{"glyphs":{"0":{"ha":882,"x_min":75,"x_max":806,"o":"m 505 862 q 489 867 505 862 q 440 873 473 873 q 375 862 408 873 q 309 823 342 851 q 249 754 275 795 q 206 646 222 713 q 189 495 189 578 q 206 333 189 405 q 249 216 222 260 q 309 142 275 172 q 376 100 343 112 q 442 88 409 88 q 496 97 469 88 q 552 123 523 105 q 605 172 581 140 q 650 247 630 204 q 681 352 669 290 q 692 490 692 414 q 676 643 692 574 q 633 753 659 711 q 572 823 607 795 q 505 862 538 850 m 440 977 q 535 963 488 977 q 632 915 582 949 q 720 827 682 880 q 782 687 758 774 q 806 492 806 601 q 782 288 806 378 q 721 143 758 198 q 633 51 683 87 q 536 0 583 14 q 442 -14 490 -14 q 375 -6 409 -14 q 305 18 342 1 q 236 61 269 35 q 174 128 203 87 q 122 220 144 169 q 88 341 101 271 q 75 494 75 412 q 88 639 75 572 q 122 754 100 706 q 173 842 144 803 q 235 905 203 880 q 304 946 268 930 q 374 970 340 963 q 440 977 408 977 z "},"1":{"ha":882,"x_min":170,"x_max":760,"o":"m 403 964 l 536 964 l 536 101 l 760 101 l 760 0 l 198 0 l 198 101 l 425 101 l 425 852 l 213 769 l 170 869 l 403 964 z "},"2":{"ha":882,"x_min":127,"x_max":768,"o":"m 127 905 q 435 970 283 970 q 664 899 577 970 q 750 722 750 827 q 731 629 750 673 q 679 550 711 585 q 605 479 646 514 q 519 406 564 445 q 432 326 473 368 q 353 226 391 284 q 293 102 315 168 l 768 102 l 768 0 l 153 0 l 153 63 q 220 218 179 146 q 305 340 261 290 q 395 434 349 390 q 484 511 442 477 q 558 574 525 544 q 611 637 591 605 q 630 702 630 669 q 566 821 630 771 q 414 871 503 871 q 161 815 317 871 l 127 905 z "},"3":{"ha":882,"x_min":119,"x_max":745,"o":"m 139 906 q 412 975 279 975 q 620 910 538 975 q 703 747 703 845 q 662 612 703 671 q 555 528 622 553 q 699 440 653 501 q 745 296 745 380 q 696 125 745 199 q 563 10 648 50 q 371 -31 478 -31 q 119 22 245 -31 l 152 115 q 372 77 293 77 q 553 131 478 77 q 627 271 627 185 q 621 317 627 294 q 595 368 615 340 q 544 416 576 395 q 454 450 511 436 q 320 464 396 464 l 320 563 q 429 574 381 563 q 506 602 477 585 q 553 642 534 619 q 579 686 572 665 q 586 728 586 707 q 534 829 586 787 q 397 871 483 871 q 176 814 298 871 l 139 906 z "},"4":{"ha":882,"x_min":81,"x_max":800,"o":"m 471 964 l 632 964 l 632 335 l 800 335 l 800 233 l 632 233 l 632 0 l 521 0 l 521 233 l 81 233 l 81 309 l 471 964 m 521 854 l 214 335 l 521 335 l 521 854 z "},"5":{"ha":882,"x_min":117,"x_max":772,"o":"m 159 964 l 740 964 l 740 862 l 270 862 l 270 599 q 408 608 340 608 q 524 596 471 608 q 614 567 577 585 q 679 524 650 549 q 725 472 708 498 q 753 415 742 445 q 768 359 764 385 q 772 308 772 333 q 768 257 772 283 q 752 198 764 231 q 722 137 741 166 q 672 80 704 109 q 599 32 640 52 q 498 -1 558 12 q 366 -14 438 -14 q 117 10 240 -14 l 139 113 q 357 91 241 91 q 461 100 414 91 q 540 126 509 110 q 593 163 571 142 q 628 207 616 183 q 646 252 640 231 q 651 296 651 274 q 643 349 651 323 q 615 405 635 376 q 565 455 595 433 q 484 491 534 477 q 370 505 433 505 q 159 488 298 505 l 159 964 z "},"6":{"ha":882,"x_min":115,"x_max":764,"o":"m 614 971 q 699 966 650 971 l 690 866 q 618 870 654 870 q 499 858 553 870 q 408 827 445 846 q 342 779 372 808 q 296 722 313 750 q 267 659 279 694 q 250 597 255 623 q 241 538 245 570 q 336 607 279 581 q 463 632 394 632 q 680 546 595 632 q 764 327 764 460 q 723 156 764 234 q 605 30 682 77 q 431 -17 528 -17 q 376 -13 403 -17 q 316 3 349 -9 q 256 33 284 14 q 202 83 229 51 q 156 156 175 115 q 126 258 138 197 q 115 391 115 318 q 142 627 115 524 q 216 793 170 729 q 328 898 262 857 q 463 955 393 939 q 614 971 532 971 m 437 537 q 289 477 349 537 q 228 323 228 416 q 291 153 228 227 q 444 78 353 78 q 591 148 530 78 q 653 315 653 218 q 589 475 653 414 q 437 537 525 537 z "},"7":{"ha":882,"x_min":89,"x_max":793,"o":"m 89 964 l 793 964 l 793 891 l 343 0 l 209 0 l 651 855 l 89 855 l 89 964 z "},"8":{"ha":882,"x_min":102,"x_max":780,"o":"m 436 880 q 318 839 366 880 q 269 744 269 798 q 277 704 269 723 q 295 670 285 684 q 325 643 306 656 q 359 621 345 629 q 399 603 374 613 q 437 589 424 593 q 473 578 450 585 q 531 615 510 600 q 574 651 552 631 q 605 692 595 671 q 614 738 614 713 q 563 842 614 804 q 436 880 511 880 m 420 492 q 273 404 327 465 q 220 275 220 342 q 283 143 220 199 q 450 88 347 88 q 603 141 545 88 q 661 269 661 193 q 647 341 661 308 q 611 396 633 374 q 556 438 589 419 q 491 469 523 457 q 420 492 460 481 m 436 977 q 652 915 578 977 q 726 741 726 852 q 692 635 726 682 q 589 537 659 587 q 733 426 686 494 q 780 277 780 359 q 758 171 780 222 q 694 78 735 119 q 588 12 653 37 q 444 -14 523 -14 q 272 22 351 -14 q 148 121 194 57 q 102 264 102 185 q 155 421 102 347 q 294 536 208 495 q 224 586 253 557 q 181 644 195 614 q 162 697 168 673 q 156 745 156 722 q 232 909 156 842 q 436 977 309 977 z "},"9":{"ha":882,"x_min":116,"x_max":766,"o":"m 452 977 q 509 973 481 977 q 568 957 536 968 q 628 925 600 945 q 681 874 655 906 q 726 801 707 842 q 755 699 744 759 q 766 566 766 639 q 738 333 766 435 q 664 168 710 231 q 553 63 618 104 q 417 6 487 22 q 266 -10 347 -10 q 182 -6 224 -10 l 190 94 q 263 91 220 91 q 361 98 316 91 q 439 118 406 106 q 500 150 473 130 q 547 189 528 170 q 581 237 566 209 q 604 287 595 264 q 620 340 613 309 q 630 393 627 372 q 636 444 633 414 q 536 377 594 399 q 418 355 479 355 q 203 439 290 355 q 116 650 116 523 q 213 881 116 785 q 452 977 309 977 m 437 882 q 291 814 355 882 q 227 661 227 747 q 292 512 227 574 q 444 450 357 450 q 591 510 530 450 q 652 653 652 570 q 624 761 652 708 q 544 848 595 814 q 437 882 494 882 z "}," ":{"ha":380,"x_min":0,"x_max":0,"o":""},"!":{"ha":441,"x_min":153,"x_max":288,"o":"m 153 136 l 288 136 l 288 0 l 153 0 l 153 136 m 163 964 l 278 964 l 278 311 l 163 311 l 163 964 z "},"\"":{"ha":539,"x_min":75,"x_max":465,"o":"m 339 1025 l 465 1025 l 465 734 l 339 734 l 339 1025 m 75 1025 l 200 1025 l 200 734 l 75 734 l 75 1025 z "},"#":{"ha":951,"x_min":31,"x_max":920,"o":"m 246 964 l 355 964 l 355 699 l 597 699 l 597 964 l 706 964 l 706 699 l 920 699 l 920 597 l 706 597 l 706 358 l 920 358 l 920 256 l 706 256 l 706 -20 l 597 -20 l 597 256 l 355 256 l 355 -20 l 246 -20 l 246 256 l 32 256 l 32 358 l 246 358 l 246 597 l 31 597 l 31 699 l 246 699 l 246 964 m 355 597 l 355 358 l 597 358 l 597 597 l 355 597 z "},"$":{"ha":814,"x_min":154,"x_max":673,"o":"m 374 1025 l 456 1025 l 456 848 q 549 843 515 848 q 636 821 583 837 l 608 736 q 448 762 517 762 q 377 754 408 762 q 329 735 346 747 q 302 710 313 724 q 289 685 292 696 q 286 663 286 673 q 314 613 286 635 q 386 578 343 591 q 479 546 429 564 q 573 506 530 527 q 645 448 616 486 q 673 362 673 411 q 664 301 673 331 q 631 241 654 272 q 564 188 608 211 q 456 157 519 165 l 456 -44 l 374 -44 l 374 153 q 154 203 278 153 l 185 288 q 290 250 250 260 q 374 240 331 240 q 465 249 428 240 q 527 282 502 257 q 552 349 552 307 q 536 390 552 372 q 492 419 519 408 q 431 442 465 430 q 361 464 397 454 q 291 491 326 474 q 230 527 257 507 q 186 579 203 547 q 170 651 170 611 q 180 705 170 677 q 212 760 190 732 q 276 809 234 787 q 374 841 317 831 l 374 1025 z "},"%":{"ha":901,"x_min":58,"x_max":830,"o":"m 221 860 q 159 833 184 860 q 133 742 133 806 q 141 675 133 703 q 164 634 150 647 q 193 615 179 621 q 222 610 206 610 q 284 639 258 610 q 310 739 310 667 q 301 801 310 775 q 279 838 293 826 q 251 855 264 850 q 221 860 237 860 m 222 924 q 260 921 241 924 q 300 905 278 917 q 338 874 322 893 q 365 821 354 855 q 376 741 376 786 q 332 598 376 650 q 221 547 288 547 q 111 592 155 547 q 66 741 66 638 q 113 877 66 829 q 222 924 159 924 m 667 357 q 605 331 631 357 q 579 239 579 304 q 588 172 579 200 q 611 131 596 144 q 639 113 625 118 q 668 108 652 108 q 730 136 704 108 q 756 236 756 165 q 748 298 756 273 q 725 336 739 323 q 697 353 711 348 q 667 357 683 357 m 668 422 q 717 415 693 422 q 766 390 741 408 q 807 333 791 372 q 823 238 823 294 q 779 97 823 149 q 667 45 734 45 q 557 90 601 45 q 513 239 513 136 q 559 375 513 327 q 668 422 605 422 m 715 964 l 830 964 l 173 0 l 58 0 l 715 964 z "},"&":{"ha":1078,"x_min":122,"x_max":1012,"o":"m 479 977 q 644 925 582 977 q 705 797 705 874 q 699 753 705 775 q 685 714 693 732 q 661 676 677 697 q 633 642 644 655 q 598 609 622 629 q 565 580 575 589 q 528 550 554 571 q 494 524 501 530 l 730 272 l 949 511 l 1012 448 l 793 204 l 985 0 l 848 0 l 716 136 q 670 92 689 109 q 614 48 650 75 q 544 7 578 22 q 463 -20 511 -9 q 363 -32 414 -32 q 186 31 251 -32 q 122 191 122 94 q 127 242 122 217 q 138 288 132 267 q 158 331 145 309 q 180 369 170 353 q 208 404 191 385 q 236 434 226 423 q 266 462 246 445 q 294 485 286 479 q 320 506 302 491 q 342 522 339 520 q 258 616 279 587 q 205 762 205 688 q 284 917 205 857 q 479 977 363 977 m 468 880 q 362 843 407 880 q 318 755 318 806 q 323 721 318 737 q 341 687 328 705 q 365 659 355 670 q 397 625 375 647 q 431 591 419 603 q 466 617 442 600 q 499 643 490 635 q 525 665 508 650 q 550 687 543 679 q 567 707 557 694 q 582 729 578 719 q 589 750 586 739 q 593 775 593 762 q 558 848 593 817 q 468 880 523 880 m 408 455 q 391 442 402 451 q 334 395 353 412 q 287 348 314 378 q 248 287 260 318 q 235 222 235 256 q 283 113 235 158 q 402 68 330 68 q 466 78 434 68 q 522 100 498 88 q 574 135 546 113 q 616 169 602 157 q 651 203 629 181 l 408 455 z "},"'":{"ha":275,"x_min":75,"x_max":200,"o":"m 75 1025 l 200 1025 l 200 734 l 75 734 l 75 1025 z "},"(":{"ha":503,"x_min":149,"x_max":449,"o":"m 359 1050 l 449 1003 q 319 715 371 873 q 268 389 268 558 q 319 65 268 222 q 449 -220 371 -92 l 361 -277 q 290 -146 323 -214 q 222 9 256 -78 q 169 196 189 97 q 149 391 149 296 q 169 582 149 484 q 222 766 189 680 q 288 920 255 852 q 359 1050 321 987 z "},")":{"ha":503,"x_min":54,"x_max":354,"o":"m 144 1050 q 215 920 182 987 q 281 766 248 852 q 334 582 315 680 q 354 391 354 484 q 334 197 354 296 q 280 10 314 98 q 213 -146 247 -78 q 142 -277 180 -214 l 54 -220 q 184 65 132 -92 q 235 389 235 222 q 183 715 235 557 q 54 1003 132 873 l 144 1050 z "},"*":{"ha":811,"x_min":122,"x_max":689,"o":"m 348 964 l 463 964 l 451 747 l 631 866 l 689 766 l 496 670 l 689 572 l 631 471 l 451 590 l 463 374 l 348 374 l 360 590 l 180 471 l 122 572 l 315 670 l 122 766 l 180 866 l 360 747 l 348 964 z "},"+":{"ha":949,"x_min":85,"x_max":865,"o":"m 425 836 l 525 836 l 525 493 l 865 493 l 865 399 l 525 399 l 525 56 l 425 56 l 425 399 l 85 399 l 85 493 l 425 493 l 425 836 z "},",":{"ha":387,"x_min":28,"x_max":258,"o":"m 136 115 l 258 115 l 151 -149 l 28 -149 l 136 115 z "},"-":{"ha":821,"x_min":119,"x_max":702,"o":"m 119 494 l 702 494 l 702 399 l 119 399 l 119 494 z "},".":{"ha":387,"x_min":122,"x_max":264,"o":"m 122 142 l 264 142 l 264 0 l 122 0 l 122 142 z "},"/":{"ha":492,"x_min":27,"x_max":479,"o":"m 363 964 l 479 964 l 142 -61 l 27 -61 l 363 964 z "},":":{"ha":387,"x_min":122,"x_max":264,"o":"m 122 142 l 264 142 l 264 0 l 122 0 l 122 142 m 122 673 l 264 673 l 264 531 l 122 531 l 122 673 z "},";":{"ha":387,"x_min":28,"x_max":264,"o":"m 136 115 l 258 115 l 151 -149 l 28 -149 l 136 115 m 122 673 l 264 673 l 264 531 l 122 531 l 122 673 z "},"<":{"ha":728,"x_min":68,"x_max":660,"o":"m 660 765 l 660 660 l 186 421 l 660 193 l 660 81 l 68 361 l 68 473 l 660 765 z "},"=":{"ha":949,"x_min":149,"x_max":800,"o":"m 149 340 l 800 340 l 800 238 l 149 238 l 149 340 m 149 647 l 800 647 l 800 545 l 149 545 l 149 647 z "},">":{"ha":728,"x_min":68,"x_max":660,"o":"m 68 765 l 660 473 l 660 361 l 68 81 l 68 193 l 542 421 l 68 660 l 68 765 z "},"?":{"ha":709,"x_min":68,"x_max":594,"o":"m 211 136 l 347 136 l 347 0 l 211 0 l 211 136 m 287 975 q 513 917 432 975 q 594 744 594 859 q 580 645 594 688 q 543 572 566 601 q 493 518 520 543 q 438 470 465 494 q 388 420 410 447 q 351 355 365 394 q 336 266 336 315 l 221 266 q 235 372 221 324 q 273 450 250 419 q 323 508 296 481 q 379 556 351 534 q 431 601 408 578 q 468 655 454 624 q 482 725 482 687 q 477 763 482 745 q 458 804 473 782 q 421 841 444 825 q 359 867 399 857 q 269 878 320 878 q 182 868 230 878 q 103 846 134 859 l 68 928 q 287 975 162 975 z "},"@":{"ha":1424,"x_min":123,"x_max":1331,"o":"m 715 652 q 882 612 800 652 l 897 656 l 974 656 l 974 171 q 975 137 974 149 q 977 103 975 124 q 985 68 979 81 q 1000 41 991 55 q 1025 20 1009 27 q 1061 14 1040 14 q 1112 31 1086 14 q 1162 85 1138 49 q 1202 190 1187 122 q 1217 346 1217 258 q 1211 455 1217 404 q 1190 557 1205 507 q 1151 650 1175 608 q 1090 727 1127 691 q 1004 787 1053 763 q 891 826 956 812 q 746 840 825 840 q 590 821 661 840 q 467 770 518 802 q 374 693 415 738 q 309 601 334 649 q 267 498 283 553 q 243 395 250 444 q 237 297 237 346 q 262 122 237 203 q 330 -15 287 42 q 431 -113 373 -73 q 554 -174 488 -154 q 690 -193 620 -193 q 888 -148 794 -193 l 930 -229 q 673 -290 812 -290 q 587 -284 631 -290 q 488 -262 543 -279 q 383 -221 433 -246 q 285 -151 334 -195 q 201 -50 236 -107 q 144 90 166 7 q 123 274 123 174 q 131 408 123 343 q 161 542 140 473 q 215 669 182 610 q 299 780 248 728 q 417 869 351 832 q 575 927 484 906 q 774 949 666 949 q 957 930 875 949 q 1095 879 1038 911 q 1195 801 1152 848 q 1264 705 1238 754 q 1305 593 1289 655 q 1326 477 1320 532 q 1331 359 1331 422 q 1310 172 1331 254 q 1259 44 1289 90 q 1187 -31 1228 -1 q 1114 -69 1147 -60 q 1048 -78 1080 -78 q 944 -46 988 -78 q 881 38 899 -14 q 698 -14 793 -14 q 489 73 570 -14 q 408 307 408 160 q 492 556 408 460 q 715 652 577 652 m 730 570 q 572 504 633 570 q 511 322 511 439 q 574 139 511 205 q 734 74 637 74 q 869 109 804 74 l 869 538 q 730 570 799 570 z "},"A":{"ha":938,"x_min":88,"x_max":904,"o":"m 431 964 l 562 964 l 904 0 l 787 0 l 690 280 l 292 280 l 195 0 l 88 0 l 431 964 m 491 851 l 327 381 l 654 381 l 491 851 z "},"B":{"ha":966,"x_min":197,"x_max":881,"o":"m 312 876 l 312 552 q 357 553 325 553 q 406 554 389 553 q 456 556 424 554 q 507 562 488 559 q 554 571 526 565 q 598 586 581 578 q 635 608 616 595 q 665 637 654 621 q 683 676 676 654 q 690 726 690 699 q 686 765 690 747 q 669 804 682 783 q 636 840 656 825 q 580 865 616 855 q 498 876 545 876 l 312 876 m 312 463 l 312 102 l 492 102 q 533 102 516 102 q 581 106 549 102 q 634 116 612 110 q 683 136 656 123 q 727 168 710 149 q 755 215 743 186 q 766 280 766 243 q 696 421 766 370 q 509 472 627 472 q 312 463 496 472 m 197 964 l 536 964 q 627 953 586 964 q 695 926 668 943 q 742 888 722 910 q 774 844 763 865 q 791 800 785 823 q 800 761 798 776 q 802 732 802 745 q 762 614 802 673 q 677 538 722 555 q 824 452 766 522 q 881 292 881 382 q 877 248 881 271 q 863 196 873 225 q 835 140 852 167 q 789 88 818 114 q 722 43 760 62 q 630 12 684 24 q 510 0 575 0 l 197 0 l 197 964 z "},"C":{"ha":984,"x_min":186,"x_max":943,"o":"m 669 970 q 930 919 800 970 l 895 823 q 665 869 764 869 q 514 837 584 869 q 399 750 445 804 q 328 627 353 696 q 302 481 302 557 q 329 332 302 403 q 406 208 357 261 q 529 123 456 155 q 690 92 603 92 q 908 133 795 92 l 943 47 q 661 -14 802 -14 q 498 12 574 -14 q 366 82 422 37 q 269 189 309 127 q 207 325 228 250 q 186 481 186 399 q 244 730 186 620 q 413 906 302 841 q 669 970 524 970 z "},"D":{"ha":1089,"x_min":197,"x_max":981,"o":"m 312 862 l 312 102 l 452 102 q 503 102 483 102 q 557 106 523 103 q 616 117 591 110 q 672 136 641 123 q 728 168 704 149 q 777 214 753 186 q 820 279 802 243 q 865 488 865 365 q 840 643 865 574 q 774 754 815 711 q 687 823 733 798 q 589 857 640 848 q 499 862 559 862 l 312 862 m 495 964 q 665 945 589 964 q 794 892 742 926 q 883 816 846 859 q 941 721 920 773 q 971 617 962 668 q 981 511 981 566 q 971 390 981 448 q 938 271 962 332 q 879 163 915 211 q 785 77 842 115 q 654 20 727 39 q 569 6 616 11 q 492 1 522 1 q 406 0 461 0 l 197 0 l 197 964 l 495 964 z "},"E":{"ha":870,"x_min":197,"x_max":762,"o":"m 197 0 l 197 964 l 762 964 l 762 862 l 312 862 l 312 547 l 724 547 l 724 446 l 312 446 l 312 102 l 762 102 l 762 0 l 197 0 z "},"F":{"ha":846,"x_min":197,"x_max":755,"o":"m 312 862 l 312 547 l 714 547 l 714 446 l 312 446 l 312 0 l 197 0 l 197 964 l 755 964 l 755 862 l 312 862 z "},"G":{"ha":1079,"x_min":146,"x_max":977,"o":"m 623 971 q 933 889 786 971 l 888 803 q 768 850 836 830 q 629 869 699 869 q 492 843 558 869 q 374 769 426 817 q 292 648 323 721 q 261 488 261 575 q 312 282 261 374 q 452 140 363 191 q 652 89 542 89 q 865 168 783 89 l 865 414 l 591 414 l 591 509 l 977 509 l 977 130 q 935 90 959 109 q 868 44 911 70 q 762 2 825 18 q 625 -14 699 -14 q 448 15 529 -14 q 312 92 367 44 q 219 204 257 140 q 163 338 181 269 q 146 481 146 408 q 165 628 146 557 q 224 762 184 700 q 320 871 264 825 q 454 944 376 918 q 623 971 532 971 z "},"H":{"ha":1085,"x_min":197,"x_max":943,"o":"m 827 964 l 943 964 l 943 0 l 827 0 l 827 446 l 312 446 l 312 0 l 197 0 l 197 964 l 312 964 l 312 548 l 827 548 l 827 964 z "},"I":{"ha":495,"x_min":217,"x_max":332,"o":"m 217 964 l 332 964 l 332 0 l 217 0 l 217 964 z "},"J":{"ha":646,"x_min":75,"x_max":504,"o":"m 389 964 l 504 964 l 504 289 q 490 163 504 214 q 437 72 477 113 q 208 -12 358 -12 q 75 5 140 -12 l 93 101 q 189 90 138 90 q 262 99 230 90 q 316 119 295 107 q 351 150 336 131 q 373 185 366 170 q 384 222 380 200 q 388 255 388 244 q 389 283 389 266 l 389 964 z "},"K":{"ha":961,"x_min":197,"x_max":907,"o":"m 197 964 l 312 964 l 312 0 l 197 0 l 197 964 m 736 964 l 881 964 l 473 504 l 907 0 l 758 0 l 328 494 l 736 964 z "},"L":{"ha":768,"x_min":197,"x_max":745,"o":"m 197 964 l 312 964 l 312 101 l 745 101 l 745 0 l 197 0 l 197 964 z "},"M":{"ha":1278,"x_min":197,"x_max":1135,"o":"m 197 964 l 359 964 l 669 379 l 983 964 l 1135 964 l 1135 0 l 1020 0 l 1020 798 l 724 276 l 608 276 l 312 798 l 312 0 l 197 0 l 197 964 z "},"N":{"ha":1125,"x_min":197,"x_max":983,"o":"m 197 964 l 342 964 l 867 157 l 867 964 l 983 964 l 983 0 l 837 0 l 312 808 l 312 0 l 197 0 l 197 964 z "},"O":{"ha":1143,"x_min":146,"x_max":1052,"o":"m 600 974 q 778 940 695 974 q 922 846 861 907 q 1017 693 983 785 q 1052 493 1052 602 q 993 230 1052 345 q 830 53 935 115 q 595 -10 726 -10 q 429 21 508 -10 q 286 111 349 52 q 184 265 222 170 q 146 479 146 360 q 180 684 146 591 q 275 841 215 777 q 419 939 336 904 q 600 974 503 974 m 593 873 q 475 850 532 873 q 370 782 418 827 q 293 663 322 738 q 264 494 264 588 q 291 327 264 404 q 363 199 317 251 q 470 119 408 148 q 604 91 532 91 q 698 105 652 91 q 787 150 745 119 q 862 226 830 181 q 914 336 895 271 q 933 481 933 402 q 913 627 933 561 q 859 739 892 694 q 781 814 825 783 q 689 859 736 845 q 593 873 642 873 z "},"P":{"ha":908,"x_min":197,"x_max":836,"o":"m 197 964 l 515 964 q 552 963 537 964 q 594 961 566 963 q 642 954 622 958 q 688 940 661 949 q 734 919 715 931 q 773 887 753 907 q 807 842 794 867 q 827 783 819 818 q 836 707 836 749 q 822 600 836 648 q 787 521 808 553 q 732 466 766 489 q 665 430 698 443 q 586 411 631 418 q 506 401 541 404 q 423 399 470 399 q 312 404 377 399 l 312 0 l 197 0 l 197 964 m 312 506 q 435 500 377 500 q 491 501 469 500 q 546 506 513 502 q 600 517 578 510 q 646 538 622 524 q 685 572 671 553 q 709 621 700 591 q 719 688 719 650 q 709 758 719 728 q 679 806 699 788 q 638 837 660 825 q 587 853 617 848 q 534 860 557 859 q 480 862 511 862 l 312 862 l 312 506 z "},"Q":{"ha":1157,"x_min":146,"x_max":1073,"o":"m 601 974 q 928 840 804 974 q 1052 482 1052 705 q 950 149 1052 279 l 1073 28 l 1010 -38 l 884 82 q 602 -10 767 -10 q 424 23 507 -10 q 279 117 341 56 q 181 271 217 178 q 146 478 146 364 q 180 684 146 591 q 275 841 215 777 q 419 939 336 904 q 601 974 503 974 m 591 873 q 475 850 532 873 q 371 784 419 828 q 294 664 323 739 q 264 491 264 588 q 293 319 264 396 q 370 192 321 241 q 482 117 419 143 q 616 91 545 91 q 808 154 726 91 l 594 356 l 665 429 l 873 225 q 933 465 933 318 q 911 629 933 556 q 853 747 888 702 q 772 821 819 791 q 681 862 726 850 q 591 873 637 873 z "},"R":{"ha":975,"x_min":197,"x_max":889,"o":"m 833 699 q 821 608 833 651 q 785 525 810 564 q 718 457 761 486 q 617 414 675 428 l 889 0 l 760 0 l 499 401 l 313 401 l 313 0 l 197 0 l 197 964 l 551 964 q 595 962 575 964 q 645 955 614 961 q 700 940 676 949 q 750 910 724 930 q 793 863 776 890 q 822 793 810 836 q 833 699 833 751 m 313 503 l 479 503 q 540 506 513 503 q 602 518 566 508 q 661 548 637 529 q 701 602 684 566 q 718 686 718 637 q 709 749 718 721 q 686 794 700 777 q 653 826 673 812 q 615 846 633 839 q 574 857 597 852 q 537 862 552 861 q 507 863 523 863 l 313 863 l 313 503 z "},"S":{"ha":923,"x_min":163,"x_max":828,"o":"m 557 972 q 796 934 668 972 l 759 829 q 547 864 637 864 q 377 822 447 864 q 308 712 308 779 q 330 646 308 675 q 389 598 353 616 q 473 562 426 580 q 568 529 519 544 q 663 491 616 514 q 747 440 710 468 q 806 369 783 413 q 828 269 828 325 q 816 192 828 231 q 775 116 804 154 q 705 50 747 79 q 598 4 663 22 q 456 -14 534 -14 q 311 3 377 -14 q 163 52 245 19 l 202 163 q 470 100 372 100 q 638 142 573 100 q 703 252 703 183 q 674 332 703 298 q 599 386 645 366 q 498 425 553 407 q 387 464 442 443 q 286 511 332 484 q 211 585 240 538 q 182 693 182 631 q 209 800 182 749 q 283 889 236 850 q 402 950 331 927 q 557 972 473 972 z "},"T":{"ha":821,"x_min":58,"x_max":817,"o":"m 58 964 l 817 964 l 817 862 l 495 862 l 495 0 l 380 0 l 380 862 l 58 862 l 58 964 z "},"U":{"ha":1073,"x_min":197,"x_max":930,"o":"m 197 964 l 312 964 l 312 339 q 322 240 312 281 q 363 163 332 199 q 564 86 431 86 q 723 128 659 86 q 806 245 787 170 q 815 339 815 281 l 815 964 l 929 964 q 929 608 929 746 q 930 430 930 469 q 930 368 930 391 q 930 329 930 345 q 929 274 930 298 q 920 213 928 251 q 899 147 912 175 q 858 87 885 119 q 792 34 830 55 q 696 0 755 14 q 564 -14 637 -14 q 421 3 484 -14 q 322 43 358 20 q 260 98 286 66 q 224 154 234 131 q 208 203 214 178 q 197 330 197 248 l 197 964 z "},"V":{"ha":950,"x_min":95,"x_max":909,"o":"m 95 964 l 232 964 l 507 122 l 783 964 l 909 964 l 574 0 l 431 0 l 95 964 z "},"W":{"ha":1468,"x_min":95,"x_max":1428,"o":"m 95 964 l 217 964 l 459 154 l 703 964 l 819 964 l 1070 154 l 1305 964 l 1428 964 l 1131 0 l 1008 0 l 755 805 l 518 0 l 395 0 l 95 964 z "},"X":{"ha":928,"x_min":75,"x_max":907,"o":"m 737 964 l 870 964 l 565 506 l 907 0 l 758 0 l 488 406 l 217 0 l 75 0 l 422 503 l 115 964 l 255 964 l 500 601 l 737 964 z "},"Y":{"ha":857,"x_min":68,"x_max":829,"o":"m 68 964 l 204 964 l 450 566 l 701 964 l 829 964 l 501 456 l 501 0 l 386 0 l 386 456 l 68 964 z "},"Z":{"ha":921,"x_min":105,"x_max":880,"o":"m 125 964 l 862 964 l 862 890 l 258 102 l 880 102 l 880 0 l 105 0 l 105 75 l 697 862 l 125 862 l 125 964 z "},"[":{"ha":514,"x_min":170,"x_max":480,"o":"m 170 1025 l 480 1025 l 480 924 l 281 924 l 281 -177 l 480 -177 l 480 -278 l 170 -278 l 170 1025 z "},"\\":{"ha":492,"x_min":14,"x_max":465,"o":"m 14 964 l 129 964 l 465 -61 l 350 -61 l 14 964 z "},"]":{"ha":514,"x_min":34,"x_max":345,"o":"m 34 1025 l 345 1025 l 345 -278 l 34 -278 l 34 -177 l 233 -177 l 233 924 l 34 924 l 34 1025 z "},"^":{"ha":1003,"x_min":300,"x_max":665,"o":"m 492 1045 l 665 851 l 602 791 l 483 924 l 360 791 l 300 845 l 492 1045 z "},"_":{"ha":787,"x_min":102,"x_max":685,"o":"m 102 102 l 685 102 l 685 0 l 102 0 l 102 102 z "},"`":{"ha":761,"x_min":186,"x_max":576,"o":"m 234 1076 l 576 865 l 533 792 l 186 992 l 234 1076 z "},"a":{"ha":725,"x_min":83,"x_max":603,"o":"m 344 683 q 470 666 418 683 q 550 615 522 648 q 591 541 578 582 q 603 448 603 500 l 603 0 l 524 0 l 498 61 q 310 -14 416 -14 q 149 44 215 -14 q 83 178 83 101 q 98 251 83 218 q 141 305 113 283 q 205 342 170 327 q 289 366 241 357 q 385 377 337 374 q 491 380 433 380 l 491 433 q 489 473 491 456 q 478 514 488 490 q 452 553 469 538 q 404 579 436 568 q 326 591 371 591 q 147 560 257 591 l 126 642 q 344 683 237 683 m 491 296 l 450 296 q 382 295 411 296 q 316 287 354 294 q 253 269 277 281 q 211 236 229 258 q 194 183 194 214 q 237 107 194 140 q 340 74 280 74 q 491 142 427 74 l 491 296 z "},"b":{"ha":802,"x_min":129,"x_max":715,"o":"m 129 1025 l 240 1025 l 240 638 q 419 684 328 684 q 499 674 460 684 q 578 639 538 664 q 648 577 618 614 q 696 479 677 540 q 715 343 715 419 q 627 82 715 178 q 399 -14 539 -14 q 220 31 308 -14 l 206 0 l 129 0 l 129 1025 m 381 591 q 240 555 309 591 l 240 105 q 383 74 313 74 q 444 81 414 74 q 503 105 473 87 q 555 151 533 123 q 592 222 578 178 q 606 323 606 267 q 591 436 606 387 q 553 514 576 486 q 499 561 530 543 q 439 585 468 579 q 381 591 411 591 z "},"c":{"ha":679,"x_min":88,"x_max":601,"o":"m 88 319 q 107 462 88 399 q 158 566 126 526 q 232 633 189 606 q 319 671 275 660 q 413 682 364 682 q 601 642 509 682 l 574 561 q 427 587 498 587 q 360 580 391 587 q 298 557 329 574 q 245 513 267 540 q 210 443 223 486 q 196 343 196 399 q 210 234 196 281 q 248 158 224 187 q 303 111 271 129 q 368 85 335 92 q 439 78 401 78 q 566 100 503 78 l 593 24 q 400 -14 497 -14 q 314 -5 355 -14 q 231 27 273 4 q 158 87 189 51 q 107 183 127 123 q 88 319 88 243 z "},"d":{"ha":806,"x_min":88,"x_max":677,"o":"m 88 323 q 113 479 88 410 q 180 593 137 549 q 280 660 222 637 q 404 684 337 684 q 566 648 484 684 l 566 1025 l 677 1025 l 677 0 l 600 0 l 581 42 q 385 -14 487 -14 q 302 -3 342 -14 q 223 32 262 7 q 154 95 184 57 q 106 191 125 132 q 88 323 88 250 m 421 78 q 566 116 495 78 l 566 564 q 420 596 493 596 q 359 589 389 596 q 300 565 330 583 q 247 519 269 547 q 211 446 225 492 q 197 341 197 400 q 212 232 197 280 q 250 156 227 184 q 304 109 273 127 q 363 84 335 91 q 421 78 392 78 z "},"e":{"ha":747,"x_min":88,"x_max":659,"o":"m 410 683 q 498 671 459 683 q 563 641 537 659 q 607 593 589 623 q 636 536 626 564 q 651 470 646 509 q 658 403 656 431 q 659 336 659 374 l 659 283 l 199 283 q 215 210 199 246 q 262 143 232 174 q 341 94 292 113 q 450 75 391 75 q 603 100 521 75 l 623 24 q 408 -14 513 -14 q 277 6 334 -14 q 185 57 220 26 q 127 133 150 89 q 97 221 105 177 q 88 313 88 264 q 106 451 88 389 q 156 556 125 513 q 229 627 187 598 q 316 670 271 656 q 410 683 362 683 m 387 587 q 284 554 327 587 q 221 472 241 521 q 201 367 201 423 l 551 367 q 387 587 551 587 z "},"f":{"ha":556,"x_min":92,"x_max":573,"o":"m 449 876 q 380 865 409 876 q 336 839 351 854 q 313 804 321 825 q 303 770 304 783 q 301 743 301 757 l 301 670 l 526 670 l 526 583 l 301 583 l 301 0 l 189 0 l 189 583 l 92 583 l 92 670 l 189 670 l 189 738 q 215 872 189 826 q 293 944 241 919 q 412 969 345 969 q 573 943 485 969 l 556 860 q 449 876 493 876 z "},"g":{"ha":798,"x_min":87,"x_max":675,"o":"m 398 684 q 583 630 478 684 l 597 670 l 675 670 l 675 -42 q 674 -81 675 -62 q 666 -135 673 -100 q 647 -198 659 -170 q 610 -259 635 -227 q 552 -315 585 -292 q 465 -352 518 -337 q 346 -367 412 -367 q 138 -323 242 -367 l 170 -243 q 332 -274 253 -274 q 564 -17 564 -274 l 564 33 q 387 -14 477 -14 q 302 -2 344 -14 q 221 35 261 9 q 152 100 182 61 q 105 199 123 139 q 87 333 87 259 q 109 474 87 411 q 163 574 130 536 q 240 638 197 612 q 322 674 283 664 q 398 684 361 684 m 405 593 q 253 526 311 593 q 195 346 195 458 q 219 212 195 271 q 294 115 243 152 q 418 78 346 78 q 564 117 492 78 l 564 555 q 405 593 471 593 z "},"h":{"ha":808,"x_min":129,"x_max":686,"o":"m 419 583 q 240 531 340 583 l 240 0 l 129 0 l 129 1025 l 240 1025 l 240 619 q 463 682 359 682 q 543 671 507 682 q 602 642 578 659 q 641 597 625 625 q 666 546 658 570 q 679 488 675 522 q 685 434 684 455 q 686 385 686 413 l 686 0 l 572 0 l 572 405 q 419 583 572 583 z "},"i":{"ha":355,"x_min":112,"x_max":243,"o":"m 112 964 l 243 964 l 243 836 l 112 836 l 112 964 m 122 670 l 233 670 l 233 0 l 122 0 l 122 670 z "},"j":{"ha":355,"x_min":12,"x_max":243,"o":"m 112 964 l 243 964 l 243 836 l 112 836 l 112 964 m 122 670 l 233 670 l 233 -93 q 233 -129 233 -115 q 229 -167 232 -142 q 219 -210 225 -192 q 199 -252 212 -229 q 167 -294 186 -276 q 120 -330 149 -312 q 54 -362 91 -349 l 12 -278 q 122 -104 122 -226 l 122 670 z "},"k":{"ha":728,"x_min":122,"x_max":680,"o":"m 122 1025 l 233 1025 l 233 0 l 122 0 l 122 1025 m 540 684 l 663 684 l 371 382 l 680 0 l 547 0 l 244 370 l 540 684 z "},"l":{"ha":382,"x_min":136,"x_max":247,"o":"m 136 1025 l 247 1025 l 247 0 l 136 0 l 136 1025 z "},"m":{"ha":1176,"x_min":122,"x_max":1051,"o":"m 390 581 q 233 529 332 581 l 233 0 l 122 0 l 122 670 l 200 670 l 224 614 q 434 683 345 683 q 595 608 536 683 q 833 682 728 682 q 922 668 884 682 q 985 630 961 654 q 1024 570 1009 606 q 1045 493 1040 534 q 1051 402 1051 453 l 1051 0 l 940 0 l 940 410 q 939 432 940 422 q 936 461 939 443 q 928 495 933 480 q 912 526 922 509 q 886 554 901 543 q 848 573 871 566 q 797 581 825 581 q 632 528 734 581 q 642 397 642 488 l 642 0 l 530 0 l 530 412 q 529 446 530 430 q 519 488 528 462 q 498 533 511 515 q 456 566 484 552 q 390 581 428 581 z "},"n":{"ha":798,"x_min":122,"x_max":675,"o":"m 122 670 l 200 670 l 224 613 q 460 684 354 684 q 556 666 515 684 q 619 623 597 649 q 655 557 642 597 q 672 481 668 517 q 675 399 675 446 l 675 0 l 564 0 l 564 407 q 412 583 564 583 q 233 531 334 583 l 233 0 l 122 0 l 122 670 z "},"o":{"ha":821,"x_min":88,"x_max":733,"o":"m 414 683 q 643 594 553 683 q 733 349 733 505 q 641 84 733 182 q 404 -14 549 -14 q 176 78 264 -14 q 88 328 88 170 q 178 586 88 490 q 414 683 268 683 m 405 588 q 259 524 321 588 q 197 347 197 459 q 258 158 197 235 q 416 81 319 81 q 565 149 505 81 q 625 326 625 217 q 605 439 625 389 q 554 522 586 490 q 484 571 523 554 q 405 588 446 588 z "},"p":{"ha":798,"x_min":122,"x_max":711,"o":"m 415 683 q 496 673 456 683 q 575 638 535 663 q 644 576 614 614 q 692 478 673 538 q 711 342 711 418 q 623 82 711 178 q 395 -14 535 -14 q 233 22 315 -14 l 233 -360 l 122 -360 l 122 670 l 199 670 l 218 627 q 415 683 313 683 m 377 591 q 233 553 303 591 l 233 106 q 379 74 306 74 q 439 81 410 74 q 499 105 469 87 q 551 151 529 123 q 588 222 574 178 q 602 323 602 267 q 587 436 602 387 q 549 513 572 485 q 495 560 526 542 q 435 585 464 578 q 377 591 407 591 z "},"q":{"ha":798,"x_min":87,"x_max":675,"o":"m 398 684 q 583 630 478 684 l 597 670 l 675 670 l 675 -360 l 564 -360 l 564 33 q 382 -14 475 -14 q 301 -3 340 -14 q 221 32 261 7 q 153 96 182 58 q 105 194 123 134 q 87 331 87 255 q 114 487 87 418 q 186 598 141 556 q 286 662 231 640 q 398 684 340 684 m 405 593 q 253 526 310 593 q 195 342 195 458 q 210 235 195 282 q 247 159 224 188 q 300 112 269 130 q 360 86 330 93 q 420 79 389 79 q 564 116 494 79 l 564 555 q 405 593 471 593 z "},"r":{"ha":543,"x_min":122,"x_max":536,"o":"m 221 620 q 408 683 306 683 q 536 656 479 683 l 503 568 q 393 588 450 588 q 233 541 308 588 l 233 0 l 122 0 l 122 670 l 200 670 l 221 620 z "},"s":{"ha":689,"x_min":88,"x_max":608,"o":"m 400 683 q 427 683 414 683 q 451 681 439 682 q 472 679 463 680 q 491 676 480 678 q 508 673 503 674 q 525 669 513 672 q 539 665 536 666 q 555 661 542 665 q 570 656 568 656 l 542 571 q 382 596 451 596 q 311 588 342 596 q 263 568 280 580 q 236 542 247 557 q 223 515 226 526 q 220 492 220 503 q 249 443 220 465 q 320 408 277 421 q 414 375 363 394 q 507 336 464 357 q 579 278 550 315 q 608 192 608 241 q 601 138 608 164 q 573 83 593 112 q 522 34 553 55 q 437 0 490 14 q 316 -14 385 -14 q 88 37 212 -14 l 119 121 q 234 85 189 96 q 321 74 278 74 q 486 179 486 74 q 470 220 486 202 q 427 249 454 237 q 365 272 399 260 q 295 294 331 283 q 225 320 260 304 q 164 357 191 337 q 121 409 137 377 q 104 481 104 441 q 112 531 104 505 q 141 584 120 556 q 195 634 163 612 q 280 669 227 655 q 400 683 333 683 z "},"t":{"ha":526,"x_min":47,"x_max":478,"o":"m 478 12 q 325 -14 380 -14 q 232 4 270 -14 q 174 54 194 22 q 146 124 155 87 q 138 211 138 162 l 138 583 l 47 583 l 47 670 l 138 670 l 138 862 l 249 862 l 249 670 l 453 670 l 453 583 l 249 583 l 249 212 q 359 73 249 73 q 463 87 378 73 l 478 12 z "},"u":{"ha":798,"x_min":122,"x_max":676,"o":"m 565 670 l 676 670 l 676 0 l 598 0 l 574 56 q 338 -14 446 -14 q 242 4 283 -14 q 179 47 201 21 q 143 112 157 73 q 126 188 130 152 q 122 270 122 224 l 122 670 l 233 670 l 233 262 q 386 86 233 86 q 565 138 465 86 l 565 670 z "},"v":{"ha":673,"x_min":44,"x_max":629,"o":"m 629 670 l 394 0 l 279 0 l 44 670 l 166 670 l 340 111 l 514 670 l 629 670 z "},"w":{"ha":1143,"x_min":41,"x_max":1102,"o":"m 41 670 l 159 670 l 341 108 l 513 670 l 623 670 l 802 109 l 983 670 l 1102 670 l 857 0 l 745 0 l 567 543 l 391 0 l 279 0 l 41 670 z "},"x":{"ha":711,"x_min":44,"x_max":663,"o":"m 44 670 l 173 670 l 362 404 l 545 670 l 663 670 l 416 328 l 650 0 l 522 0 l 342 252 l 171 0 l 52 0 l 287 329 l 44 670 z "},"y":{"ha":719,"x_min":34,"x_max":685,"o":"m 34 670 l 156 670 l 370 102 l 570 670 l 685 670 l 298 -360 l 180 -360 l 314 -33 l 34 670 z "},"z":{"ha":731,"x_min":102,"x_max":629,"o":"m 102 670 l 612 670 l 612 611 l 246 87 l 629 87 l 629 0 l 102 0 l 102 59 l 467 583 l 102 583 l 102 670 z "},"{":{"ha":541,"x_min":61,"x_max":503,"o":"m 61 419 q 169 479 124 430 q 226 621 214 529 q 232 683 229 643 q 235 732 235 724 q 265 858 242 804 q 315 942 288 913 q 377 991 342 972 q 436 1017 412 1011 q 483 1025 460 1023 l 503 937 q 432 910 465 932 q 377 856 399 888 q 346 782 357 825 q 334 697 336 739 q 327 608 332 656 q 311 520 321 561 q 275 440 302 479 q 205 372 248 400 q 284 290 256 339 q 320 189 312 241 q 331 84 328 136 q 344 -22 334 32 q 377 -111 354 -75 q 432 -165 399 -143 q 503 -192 465 -187 l 483 -279 q 439 -272 462 -278 q 380 -248 416 -267 q 317 -200 345 -229 q 266 -118 290 -172 q 235 4 242 -65 q 232 51 234 19 q 228 104 229 83 q 220 155 226 125 q 205 208 214 186 q 179 253 196 229 q 138 293 162 276 q 61 326 104 318 l 61 419 z "},"|":{"ha":600,"x_min":244,"x_max":355,"o":"m 244 1086 l 355 1086 l 355 -209 l 244 -209 l 244 1086 z "},"}":{"ha":541,"x_min":38,"x_max":480,"o":"m 58 1025 q 105 1017 81 1023 q 164 991 130 1011 q 227 942 199 972 q 276 858 254 913 q 306 732 299 804 q 310 683 307 724 q 315 621 313 643 q 372 479 328 529 q 480 419 417 430 l 480 326 q 403 293 437 318 q 362 253 379 276 q 336 208 345 229 q 321 155 328 186 q 314 104 315 125 q 310 51 312 83 q 306 4 307 19 q 275 -118 299 -65 q 224 -200 252 -172 q 161 -248 196 -229 q 102 -272 125 -267 q 58 -279 79 -278 l 38 -192 q 109 -165 76 -187 q 164 -111 142 -143 q 197 -22 187 -75 q 210 84 207 32 q 221 189 213 136 q 257 290 229 241 q 336 372 286 339 q 266 440 293 400 q 230 520 239 479 q 215 608 220 561 q 207 697 209 656 q 195 782 205 739 q 164 856 184 825 q 109 910 142 888 q 38 937 76 932 l 58 1025 z "},"~":{"ha":949,"x_min":241,"x_max":735,"o":"m 594 923 q 609 925 602 923 q 622 933 616 928 q 632 943 627 938 q 640 957 636 948 q 646 973 644 966 q 651 992 648 980 q 655 1010 654 1004 q 659 1029 656 1017 q 662 1048 661 1042 l 735 1036 q 730 1008 734 1030 q 724 978 726 987 q 717 950 722 970 q 707 921 712 930 q 695 896 703 911 q 679 872 688 880 q 658 856 670 865 q 631 844 646 847 q 598 840 616 840 q 540 853 568 840 q 491 884 512 865 q 452 920 471 902 q 416 951 434 939 q 382 964 398 964 q 367 962 374 964 q 354 954 360 960 q 345 944 349 948 q 336 929 340 939 q 330 914 332 920 q 325 896 328 909 q 321 878 322 883 q 318 859 320 873 q 315 842 315 845 l 241 852 q 247 879 243 857 q 253 909 251 901 q 260 938 255 918 q 269 967 264 958 q 281 991 274 976 q 298 1015 289 1007 q 318 1031 307 1022 q 346 1043 330 1040 q 378 1046 361 1046 q 436 1034 408 1046 q 485 1003 465 1021 q 524 966 506 985 q 561 936 543 948 q 594 923 578 923 z "}," ":{"ha":380,"x_min":0,"x_max":0,"o":""},"¡":{"ha":441,"x_min":153,"x_max":288,"o":"m 163 585 l 278 585 l 278 -278 l 163 -278 l 163 585 m 153 896 l 288 896 l 288 760 l 153 760 l 153 896 z "},"¢":{"ha":692,"x_min":102,"x_max":614,"o":"m 102 484 q 171 725 102 631 q 368 838 240 819 l 368 1025 l 450 1025 l 450 842 q 614 802 524 842 l 587 721 q 440 747 512 747 q 269 685 328 747 q 210 507 210 623 q 224 399 210 446 q 263 323 239 352 q 319 276 286 295 q 385 251 352 258 q 454 244 417 244 q 580 267 516 244 l 607 190 q 450 155 519 155 l 450 -44 l 368 -44 l 368 155 q 175 251 249 169 q 102 484 102 332 z "},"£":{"ha":882,"x_min":103,"x_max":779,"o":"m 103 92 l 269 92 l 269 449 l 149 449 l 149 541 l 269 541 l 269 636 q 289 773 269 713 q 341 869 309 833 q 417 929 373 906 q 506 962 462 953 q 598 970 549 970 q 758 945 677 970 l 725 862 q 613 878 665 878 q 533 869 568 878 q 473 845 497 860 q 431 808 449 830 q 404 764 414 786 q 389 715 394 743 q 381 665 383 687 q 380 618 380 644 l 380 541 l 739 541 l 739 449 l 380 449 l 380 92 l 779 92 l 779 0 l 103 0 l 103 92 z "},"¤":{"ha":882,"x_min":125,"x_max":755,"o":"m 441 737 q 558 705 505 737 l 671 817 l 755 732 l 643 621 q 675 503 675 566 q 643 386 675 439 l 755 274 l 670 189 l 558 301 q 440 269 503 269 q 323 300 377 269 l 211 188 l 126 273 l 239 385 q 206 503 206 439 q 239 621 206 566 l 125 734 l 210 819 l 323 705 q 441 737 378 737 m 536 601 q 516 621 536 601 q 441 642 496 642 q 345 601 385 642 q 305 503 305 561 q 345 405 305 446 q 440 364 384 364 q 536 405 496 364 q 576 503 576 446 q 536 601 576 561 z "},"¥":{"ha":882,"x_min":97,"x_max":785,"o":"m 97 964 l 222 964 l 441 555 l 666 964 l 785 964 l 495 474 l 686 474 l 686 389 l 490 389 l 490 254 l 686 254 l 686 169 l 490 169 l 490 0 l 382 0 l 382 169 l 195 169 l 195 254 l 382 254 l 382 389 l 195 389 l 195 474 l 377 474 l 97 964 z "},"¦":{"ha":600,"x_min":244,"x_max":355,"o":"m 244 312 l 355 312 l 355 -209 l 244 -209 l 244 312 m 244 1086 l 355 1086 l 355 568 l 244 568 l 244 1086 z "},"§":{"ha":770,"x_min":109,"x_max":661,"o":"m 441 972 q 477 972 460 972 q 510 969 494 971 q 536 966 526 967 q 561 961 546 964 q 582 956 576 957 q 604 949 587 954 q 625 943 621 945 l 595 854 q 425 881 510 881 q 302 854 351 881 q 254 779 254 827 q 276 728 254 750 q 334 691 298 707 q 414 662 370 676 q 501 631 457 648 q 581 593 545 614 q 639 538 616 572 q 661 463 661 505 q 604 321 661 379 q 661 208 661 275 q 653 150 661 178 q 624 92 646 122 q 570 39 603 61 q 482 1 538 16 q 355 -14 427 -14 l 347 -14 q 109 31 220 -14 l 140 115 q 346 74 256 74 q 533 194 533 74 q 511 245 533 223 q 454 280 489 267 q 376 306 418 294 q 290 334 333 319 q 212 371 247 350 q 154 428 176 392 q 132 510 132 463 q 192 640 132 583 q 132 764 132 688 q 141 818 132 791 q 173 873 150 845 q 229 923 195 902 q 318 959 263 945 q 441 972 373 972 m 288 590 q 254 523 254 563 q 268 481 254 499 q 310 448 281 463 q 365 424 339 433 q 435 399 391 414 q 504 376 479 385 q 533 449 533 404 q 522 486 533 469 q 495 514 511 503 q 452 536 479 526 q 402 554 425 547 q 345 571 378 561 q 288 590 311 582 z "},"¨":{"ha":814,"x_min":192,"x_max":622,"o":"m 192 964 l 317 964 l 317 838 l 192 838 l 192 964 m 496 964 l 622 964 l 622 838 l 496 838 l 496 964 z "},"©":{"ha":1194,"x_min":115,"x_max":1078,"o":"m 614 715 q 751 686 685 715 l 730 627 q 623 646 677 646 q 564 638 591 646 q 511 612 536 630 q 472 557 486 593 q 458 471 458 522 q 473 378 458 416 q 514 320 488 340 q 569 291 540 300 q 632 282 597 282 q 725 298 677 282 l 745 243 q 607 216 677 216 q 545 223 575 216 q 485 246 515 229 q 431 289 454 262 q 394 358 408 315 q 380 456 380 401 q 400 578 380 526 q 455 660 420 631 q 530 702 490 688 q 614 715 570 715 m 750 815 q 714 831 750 815 q 597 846 677 846 q 444 815 516 846 q 319 733 371 785 q 236 610 267 681 q 205 463 205 540 q 236 316 205 387 q 319 194 267 245 q 444 111 371 142 q 597 80 516 80 q 750 111 677 80 q 875 194 823 142 q 958 316 927 245 q 988 463 988 387 q 958 610 988 540 q 875 733 927 681 q 750 815 823 785 m 597 936 q 786 898 696 936 q 939 795 876 859 q 1041 644 1003 731 q 1078 463 1078 557 q 1041 282 1078 369 q 939 131 1003 195 q 786 29 876 67 q 597 -9 696 -9 q 408 29 498 -9 q 254 131 318 67 q 153 282 191 195 q 115 463 115 369 q 152 643 115 556 q 252 793 189 729 q 406 897 315 858 q 597 936 496 936 z "},"ª":{"ha":519,"x_min":119,"x_max":421,"o":"m 355 747 l 355 763 q 258 854 355 854 q 143 836 203 854 l 131 884 q 266 908 198 908 q 340 897 309 908 q 387 871 372 886 q 410 835 402 857 q 420 799 418 812 q 421 767 421 786 l 421 515 l 374 515 l 359 552 q 257 503 313 503 q 157 534 195 503 q 119 621 119 565 q 174 722 119 696 q 355 747 229 747 m 355 691 l 336 691 q 285 689 306 691 q 238 682 264 688 q 198 660 212 675 q 184 622 184 645 q 208 577 184 597 q 267 557 231 557 q 355 612 319 557 l 355 691 z "},"«":{"ha":635,"x_min":51,"x_max":601,"o":"m 475 670 l 601 670 l 415 422 l 601 175 l 475 175 l 302 422 l 475 670 m 224 670 l 349 670 l 163 422 l 349 175 l 224 175 l 51 422 l 224 670 z "},"¬":{"ha":949,"x_min":85,"x_max":865,"o":"m 85 496 l 865 496 l 865 191 l 764 191 l 764 395 l 85 395 l 85 496 z "},"­":{"ha":728,"x_min":149,"x_max":579,"o":"m 149 494 l 579 494 l 579 399 l 149 399 l 149 494 z "},"®":{"ha":836,"x_min":61,"x_max":774,"o":"m 440 895 q 467 894 456 895 q 495 888 477 892 q 526 871 512 884 q 549 839 540 859 q 560 785 560 816 q 489 677 560 701 l 565 526 l 497 526 l 429 667 l 353 667 l 353 526 l 290 526 l 290 895 l 440 895 m 418 1059 q 596 1012 514 1059 q 726 884 678 965 q 774 707 774 803 q 746 570 774 635 q 669 458 718 505 q 555 384 621 412 q 418 356 490 356 q 238 404 320 356 q 108 533 155 452 q 61 707 61 614 q 90 844 61 779 q 166 956 118 909 q 280 1031 214 1003 q 418 1059 346 1059 m 617 902 q 576 942 617 902 q 418 983 535 983 q 218 902 300 983 q 136 707 136 821 q 218 513 136 595 q 418 431 300 431 q 617 513 535 431 q 699 707 699 595 q 617 902 699 820 m 418 841 l 353 841 l 353 720 q 395 719 385 720 q 414 719 406 719 q 477 731 454 719 q 500 778 500 744 q 495 807 500 795 q 481 826 489 820 q 460 836 473 832 q 439 840 448 840 q 418 841 430 841 z "},"¯":{"ha":949,"x_min":193,"x_max":756,"o":"m 193 1112 l 756 1112 l 756 1011 l 193 1011 l 193 1112 z "},"°":{"ha":399,"x_min":51,"x_max":349,"o":"m 200 928 q 137 901 163 928 q 112 838 112 874 q 137 774 112 801 q 200 747 161 747 q 261 774 237 747 q 286 838 286 802 q 261 901 286 873 q 200 928 237 928 m 95 945 q 116 967 95 945 q 199 989 138 989 q 304 945 260 989 q 349 838 349 901 q 305 730 349 774 q 200 685 261 685 q 95 729 139 685 q 51 838 51 774 q 95 945 51 901 z "},"±":{"ha":949,"x_min":149,"x_max":800,"o":"m 149 195 l 800 195 l 800 102 l 149 102 l 149 195 m 425 964 l 524 964 l 524 684 l 800 684 l 800 591 l 524 591 l 524 313 l 425 313 l 425 591 l 149 591 l 149 684 l 425 684 l 425 964 z "},"²":{"ha":543,"x_min":88,"x_max":427,"o":"m 251 1034 q 370 996 322 1034 q 418 899 418 958 q 405 842 418 869 q 373 795 393 815 q 328 751 353 775 q 278 705 302 727 q 231 652 254 684 q 194 585 208 620 l 427 585 l 427 514 l 100 514 l 100 558 q 139 647 115 605 q 189 718 163 689 q 242 772 215 746 q 290 817 269 798 q 324 854 311 835 q 338 889 338 873 q 309 941 338 918 q 240 964 281 964 q 113 929 201 964 l 88 991 q 251 1034 174 1034 z "},"³":{"ha":543,"x_min":85,"x_max":420,"o":"m 94 991 q 243 1031 178 1031 q 354 996 310 1031 q 399 907 399 961 q 383 845 399 873 q 341 800 368 817 q 420 682 420 768 q 363 556 420 604 q 222 509 307 509 q 85 538 157 509 l 107 604 q 224 583 183 583 q 307 607 273 583 q 341 670 341 632 q 327 716 341 698 q 287 742 313 734 q 239 753 261 750 q 188 755 217 755 l 188 825 q 292 847 263 825 q 321 898 321 869 q 298 941 321 923 q 236 959 275 959 q 121 928 189 959 l 94 991 z "},"´":{"ha":761,"x_min":186,"x_max":575,"o":"m 528 1075 l 575 991 l 228 791 l 186 865 l 528 1075 z "},"µ":{"ha":805,"x_min":129,"x_max":683,"o":"m 129 670 l 240 670 l 240 292 q 241 255 240 272 q 248 210 243 237 q 263 161 252 183 q 292 119 275 140 q 338 87 309 99 q 405 76 368 76 q 572 128 465 76 l 572 670 l 683 670 l 683 0 l 605 0 l 585 45 q 387 -18 486 -18 q 240 36 301 -18 l 240 -278 l 129 -278 l 129 670 z "},"¶":{"ha":907,"x_min":88,"x_max":779,"o":"m 408 1025 l 779 1025 l 779 0 l 663 0 l 663 923 l 500 923 l 500 0 l 385 0 l 385 465 q 339 468 362 465 q 286 479 315 471 q 229 501 256 488 q 176 538 202 515 q 131 593 150 562 q 100 669 112 623 q 88 768 88 714 q 96 844 88 810 q 117 903 104 878 q 150 947 130 928 q 189 980 170 967 q 235 1001 208 992 q 281 1015 262 1010 q 329 1022 301 1019 q 371 1024 356 1024 q 408 1025 386 1025 z "},"·":{"ha":400,"x_min":129,"x_max":271,"o":"m 129 568 l 271 568 l 271 426 l 129 426 l 129 568 z "},"¸":{"ha":747,"x_min":262,"x_max":555,"o":"m 487 -220 q 484 -202 487 -210 q 473 -186 481 -193 q 457 -175 465 -180 q 434 -164 450 -170 q 406 -155 417 -158 q 371 -144 395 -151 q 332 -132 346 -137 l 371 15 l 457 15 l 430 -92 q 441 -95 431 -92 q 455 -99 450 -98 q 471 -104 460 -100 q 488 -112 481 -109 q 504 -121 494 -115 q 520 -133 514 -127 q 533 -148 526 -139 q 545 -166 541 -157 q 552 -187 549 -175 q 555 -213 555 -199 q 517 -299 555 -261 q 416 -337 480 -337 q 386 -335 402 -337 q 350 -328 369 -332 q 319 -319 331 -323 q 286 -310 307 -316 q 262 -302 266 -304 l 279 -241 q 419 -273 386 -273 q 469 -257 450 -273 q 487 -220 487 -242 z "},"¹":{"ha":368,"x_min":41,"x_max":233,"o":"m 170 1025 l 233 1025 l 233 515 l 156 515 l 156 951 l 58 924 l 41 989 l 170 1025 z "},"º":{"ha":517,"x_min":45,"x_max":471,"o":"m 258 960 q 210 952 233 960 q 168 924 188 943 q 135 868 147 905 q 123 779 123 831 q 132 693 123 730 q 155 634 141 656 q 188 600 169 613 q 224 582 207 587 q 259 578 241 578 q 305 586 283 578 q 348 615 326 595 q 381 676 369 635 q 394 774 394 717 q 385 854 394 820 q 362 908 376 888 q 330 940 349 928 q 294 956 311 952 q 258 960 277 960 m 259 1030 q 312 1025 286 1030 q 367 1003 337 1020 q 419 960 397 987 q 456 886 441 934 q 471 777 471 839 q 411 582 471 653 q 258 510 350 510 q 179 523 215 510 q 112 566 142 536 q 63 649 81 595 q 45 777 45 703 q 64 888 45 839 q 113 968 82 938 q 181 1014 143 998 q 259 1030 218 1030 z "},"»":{"ha":635,"x_min":34,"x_max":584,"o":"m 160 670 l 332 422 l 159 175 l 34 175 l 220 422 l 34 670 l 160 670 m 412 670 l 584 422 l 411 175 l 286 175 l 471 422 l 286 670 l 412 670 z "},"¼":{"ha":1221,"x_min":102,"x_max":1122,"o":"m 800 964 l 919 964 l 363 0 l 243 0 l 800 964 m 231 964 l 307 964 l 307 419 l 217 419 l 217 876 l 122 849 l 102 928 l 231 964 m 943 567 l 1050 567 l 1050 207 l 1122 207 l 1122 132 l 1050 132 l 1050 0 l 960 0 l 960 132 l 695 132 l 695 193 l 943 567 m 960 467 l 796 207 l 960 207 l 960 467 z "},"½":{"ha":1253,"x_min":102,"x_max":1144,"o":"m 800 964 l 919 964 l 363 0 l 243 0 l 800 964 m 231 964 l 307 964 l 307 412 l 217 412 l 217 876 l 122 849 l 102 928 l 231 964 m 951 571 q 1082 530 1029 571 q 1135 423 1135 489 q 1116 351 1135 385 q 1066 289 1097 317 q 1003 232 1036 260 q 938 163 971 203 q 888 79 905 123 l 1144 79 l 1144 0 l 784 0 l 784 49 q 837 163 803 110 q 906 251 871 216 q 974 313 941 285 q 1026 367 1006 342 q 1046 412 1046 391 q 1015 469 1046 444 q 939 494 984 494 q 800 456 895 494 l 772 524 q 951 571 868 571 z "},"¾":{"ha":1322,"x_min":132,"x_max":1224,"o":"m 909 964 l 1027 964 l 471 0 l 352 0 l 909 964 m 1045 567 l 1152 567 l 1152 207 l 1224 207 l 1224 132 l 1152 132 l 1152 0 l 1061 0 l 1061 132 l 797 132 l 797 193 l 1045 567 m 1061 467 l 898 207 l 1061 207 l 1061 467 m 142 939 q 307 983 231 983 q 428 944 380 983 q 477 846 477 905 q 460 778 477 809 q 414 728 443 747 q 500 598 500 692 q 438 460 500 513 q 282 408 376 408 q 132 441 214 408 l 157 513 q 285 489 243 489 q 376 516 338 489 q 414 585 414 543 q 245 680 414 680 l 245 756 q 320 764 289 756 q 365 785 351 772 q 386 810 380 798 q 391 836 391 823 q 366 883 391 863 q 298 903 341 903 q 172 869 245 903 l 142 939 z "},"¿":{"ha":710,"x_min":87,"x_max":613,"o":"m 240 670 l 355 670 q 370 549 355 602 q 407 465 384 497 q 457 407 429 433 q 512 358 484 380 q 562 312 539 336 q 599 250 585 288 q 613 163 613 212 q 567 31 613 92 q 458 -63 522 -31 q 333 -96 394 -96 q 206 -81 262 -96 q 87 -36 150 -66 l 122 47 q 315 0 237 0 q 452 45 402 0 q 501 153 501 90 q 492 205 501 182 q 468 247 484 229 q 433 280 453 264 q 392 314 414 296 q 349 352 370 332 q 308 401 328 372 q 273 466 288 430 q 249 554 258 502 q 240 670 240 607 m 230 964 l 366 964 l 366 827 l 230 827 l 230 964 z "},"À":{"ha":938,"x_min":88,"x_max":904,"o":"m 431 964 l 562 964 l 904 0 l 787 0 l 690 280 l 292 280 l 195 0 l 88 0 l 431 964 m 491 851 l 327 381 l 654 381 l 491 851 m 357 1308 l 699 1098 l 656 1025 l 309 1225 l 357 1308 z "},"Á":{"ha":938,"x_min":88,"x_max":904,"o":"m 431 964 l 562 964 l 904 0 l 787 0 l 690 280 l 292 280 l 195 0 l 88 0 l 431 964 m 491 851 l 327 381 l 654 381 l 491 851 m 633 1308 l 681 1225 l 334 1025 l 292 1098 l 633 1308 z "},"Â":{"ha":938,"x_min":88,"x_max":904,"o":"m 431 964 l 562 964 l 904 0 l 787 0 l 690 280 l 292 280 l 195 0 l 88 0 l 431 964 m 491 851 l 327 381 l 654 381 l 491 851 m 509 1305 l 683 1111 l 620 1051 l 500 1184 l 378 1052 l 318 1105 l 509 1305 z "},"Ã":{"ha":938,"x_min":88,"x_max":904,"o":"m 684 1274 l 757 1262 q 752 1237 755 1255 q 747 1210 749 1219 q 741 1184 745 1201 q 733 1158 737 1168 q 724 1135 730 1149 q 711 1112 718 1120 q 695 1094 705 1104 q 675 1079 686 1084 q 651 1071 665 1074 q 621 1067 637 1067 q 563 1080 591 1067 q 514 1111 534 1093 q 475 1146 493 1128 q 438 1177 456 1164 q 405 1190 420 1190 q 390 1187 397 1190 q 377 1180 382 1185 q 367 1171 372 1175 q 359 1157 363 1166 q 353 1141 355 1147 q 348 1123 351 1135 q 344 1105 345 1112 q 340 1086 342 1099 q 336 1067 337 1073 l 263 1078 q 269 1105 264 1083 q 275 1135 273 1127 q 281 1164 277 1143 q 291 1193 286 1184 q 303 1217 296 1202 q 319 1240 311 1233 q 340 1257 328 1248 q 367 1269 352 1265 q 400 1272 382 1272 q 458 1260 430 1272 q 507 1229 486 1247 q 546 1193 528 1211 q 582 1163 564 1175 q 616 1150 600 1150 q 633 1154 625 1150 q 646 1161 641 1157 q 657 1175 652 1166 q 665 1191 662 1184 q 671 1211 667 1198 q 675 1231 674 1223 q 680 1253 677 1238 q 684 1274 682 1268 m 491 851 l 327 381 l 654 381 l 491 851 m 431 964 l 562 964 l 904 0 l 787 0 l 690 280 l 292 280 l 195 0 l 88 0 l 431 964 z "},"Ä":{"ha":938,"x_min":88,"x_max":904,"o":"m 431 964 l 562 964 l 904 0 l 787 0 l 690 280 l 292 280 l 195 0 l 88 0 l 431 964 m 491 851 l 327 381 l 654 381 l 491 851 m 282 1286 l 408 1286 l 408 1161 l 282 1161 l 282 1286 m 586 1286 l 711 1286 l 711 1161 l 586 1161 l 586 1286 z "},"Å":{"ha":938,"x_min":88,"x_max":904,"o":"m 371 1220 q 398 1245 371 1220 q 497 1270 424 1270 q 624 1220 570 1270 q 677 1097 677 1169 q 647 1002 677 1045 q 570 938 618 959 l 904 0 l 787 0 l 690 280 l 292 280 l 195 0 l 88 0 l 422 939 q 347 1003 376 960 q 319 1097 319 1046 q 371 1220 319 1169 m 498 1200 q 422 1170 453 1200 q 392 1097 392 1139 q 422 1025 392 1056 q 498 994 452 994 q 572 1025 543 994 q 602 1097 602 1056 q 572 1169 602 1139 q 498 1200 543 1200 m 491 851 l 327 381 l 654 381 l 491 851 z "},"Æ":{"ha":1299,"x_min":88,"x_max":1190,"o":"m 346 381 l 656 381 l 656 862 l 532 862 l 346 381 m 465 964 l 1190 964 l 1190 862 l 771 862 l 771 547 l 1153 547 l 1153 446 l 771 446 l 771 102 l 1190 102 l 1190 0 l 656 0 l 656 281 l 307 281 l 198 0 l 88 0 l 465 964 z "},"Ç":{"ha":984,"x_min":186,"x_max":943,"o":"m 745 -214 q 705 -304 745 -266 q 601 -343 665 -343 q 550 -338 576 -343 q 439 -307 524 -332 l 460 -237 q 606 -271 571 -271 q 651 -256 635 -271 q 668 -222 668 -242 q 644 -181 668 -195 q 549 -148 619 -168 q 509 -136 523 -140 l 546 -1 q 283 168 379 35 q 186 481 186 300 q 244 730 186 620 q 413 906 302 841 q 669 970 524 970 q 930 919 800 970 l 895 823 q 665 869 764 869 q 514 837 584 869 q 399 750 445 804 q 328 627 353 696 q 302 481 302 557 q 329 332 302 403 q 406 208 357 261 q 529 123 456 155 q 690 92 603 92 q 908 133 795 92 l 943 47 q 661 -14 802 -14 l 642 -14 l 623 -92 l 630 -94 q 644 -98 637 -96 q 660 -103 650 -100 q 679 -112 671 -107 q 698 -124 688 -117 q 716 -140 709 -131 q 730 -159 724 -149 q 741 -184 737 -170 q 745 -214 745 -199 z "},"È":{"ha":870,"x_min":197,"x_max":762,"o":"m 197 964 l 762 964 l 762 862 l 312 862 l 312 547 l 724 547 l 724 446 l 312 446 l 312 102 l 762 102 l 762 0 l 197 0 l 197 964 m 325 1308 l 667 1098 l 624 1025 l 277 1225 l 325 1308 z "},"É":{"ha":870,"x_min":197,"x_max":762,"o":"m 197 964 l 762 964 l 762 862 l 312 862 l 312 547 l 724 547 l 724 446 l 312 446 l 312 102 l 762 102 l 762 0 l 197 0 l 197 964 m 646 1308 l 693 1225 l 346 1025 l 304 1098 l 646 1308 z "},"Ê":{"ha":870,"x_min":197,"x_max":762,"o":"m 197 964 l 762 964 l 762 862 l 312 862 l 312 547 l 724 547 l 724 446 l 312 446 l 312 102 l 762 102 l 762 0 l 197 0 l 197 964 m 488 1310 l 662 1116 l 598 1057 l 479 1190 l 357 1057 l 297 1110 l 488 1310 z "},"Ë":{"ha":870,"x_min":197,"x_max":762,"o":"m 197 964 l 762 964 l 762 862 l 312 862 l 312 547 l 724 547 l 724 446 l 312 446 l 312 102 l 762 102 l 762 0 l 197 0 l 197 964 m 264 1287 l 390 1287 l 390 1162 l 264 1162 l 264 1287 m 568 1287 l 694 1287 l 694 1162 l 568 1162 l 568 1287 z "},"Ì":{"ha":495,"x_min":92,"x_max":482,"o":"m 217 964 l 332 964 l 332 0 l 217 0 l 217 964 m 140 1307 l 482 1097 l 439 1025 l 92 1223 l 140 1307 z "},"Í":{"ha":495,"x_min":35,"x_max":424,"o":"m 217 964 l 332 964 l 332 0 l 217 0 l 217 964 m 376 1309 l 424 1225 l 77 1025 l 35 1099 l 376 1309 z "},"Î":{"ha":495,"x_min":75,"x_max":439,"o":"m 217 964 l 332 964 l 332 0 l 217 0 l 217 964 m 266 1305 l 439 1111 l 376 1051 l 257 1184 l 134 1052 l 75 1105 l 266 1305 z "},"Ï":{"ha":454,"x_min":60,"x_max":449,"o":"m 197 964 l 312 964 l 312 0 l 197 0 l 197 964 m 60 1237 l 185 1237 l 185 1112 l 60 1112 l 60 1237 m 323 1237 l 449 1237 l 449 1112 l 323 1112 l 323 1237 z "},"Ð":{"ha":1088,"x_min":79,"x_max":1011,"o":"m 227 964 l 522 964 q 570 963 547 964 q 631 957 593 962 q 702 943 669 951 q 774 918 734 935 q 847 879 814 901 q 910 822 879 857 q 963 744 942 787 q 998 641 985 701 q 1011 511 1011 581 q 998 365 1011 432 q 963 250 985 298 q 909 161 941 201 q 843 97 876 122 q 767 52 810 71 q 690 24 725 33 q 611 8 654 14 q 540 1 568 3 q 479 0 512 0 l 227 0 l 227 446 l 79 446 l 79 548 l 227 548 l 227 964 m 342 862 l 342 548 l 516 548 l 516 446 l 342 446 l 342 102 l 483 102 q 539 103 513 102 q 598 109 564 104 q 660 122 632 114 q 719 144 688 130 q 775 178 751 159 q 823 228 800 198 q 862 294 846 257 q 886 380 877 330 q 895 488 895 430 q 886 589 895 541 q 850 688 876 637 q 785 777 825 739 q 680 838 745 814 q 530 862 614 862 l 342 862 z "},"Ñ":{"ha":1125,"x_min":197,"x_max":983,"o":"m 497 1272 q 555 1260 527 1272 q 604 1229 583 1247 q 643 1193 625 1211 q 679 1163 661 1175 q 713 1150 697 1150 q 728 1152 721 1150 q 741 1159 735 1154 q 750 1170 746 1164 q 759 1184 755 1175 q 765 1199 762 1193 q 770 1217 768 1205 q 774 1235 772 1229 q 778 1255 775 1242 q 781 1274 780 1268 l 854 1262 q 849 1235 853 1257 q 843 1204 845 1213 q 836 1176 841 1196 q 827 1147 831 1156 q 814 1122 822 1138 q 798 1099 807 1107 q 778 1083 789 1092 q 750 1071 766 1074 q 718 1067 735 1067 q 660 1080 688 1067 q 611 1111 631 1093 q 572 1146 590 1128 q 535 1177 553 1164 q 502 1190 517 1190 q 485 1186 492 1190 q 471 1178 477 1183 q 461 1165 466 1174 q 453 1149 456 1156 q 447 1129 450 1142 q 442 1109 444 1116 q 438 1087 441 1102 q 434 1066 435 1072 l 361 1078 q 366 1103 362 1085 q 371 1129 369 1120 q 376 1155 372 1139 q 384 1181 380 1172 q 394 1205 388 1191 q 407 1227 400 1219 q 422 1245 413 1236 q 443 1260 432 1255 q 467 1269 453 1265 q 497 1272 481 1272 m 197 964 l 342 964 l 867 157 l 867 964 l 983 964 l 983 0 l 837 0 l 312 808 l 312 0 l 197 0 l 197 964 z "},"Ò":{"ha":1143,"x_min":146,"x_max":1052,"o":"m 600 974 q 778 940 695 974 q 922 846 861 907 q 1017 693 983 785 q 1052 493 1052 602 q 993 230 1052 345 q 830 53 935 115 q 595 -10 726 -10 q 429 21 508 -10 q 286 111 349 52 q 184 265 222 170 q 146 479 146 360 q 180 684 146 591 q 275 841 215 777 q 419 939 336 904 q 600 974 503 974 m 933 481 q 913 627 933 561 q 859 738 892 693 q 781 814 825 783 q 689 859 736 845 q 591 873 641 873 q 498 859 544 873 q 410 815 452 845 q 335 741 367 785 q 284 634 303 698 q 264 494 264 570 q 291 327 264 404 q 363 199 317 251 q 470 119 408 148 q 604 91 532 91 q 698 105 652 91 q 787 150 745 119 q 862 226 830 181 q 914 336 895 271 q 933 481 933 402 m 500 1310 l 842 1100 l 799 1027 l 452 1227 l 500 1310 z "},"Ó":{"ha":1143,"x_min":146,"x_max":1052,"o":"m 600 974 q 778 940 695 974 q 922 846 861 907 q 1017 693 983 785 q 1052 493 1052 602 q 993 230 1052 345 q 830 53 935 115 q 595 -10 726 -10 q 429 21 508 -10 q 286 111 349 52 q 184 265 222 170 q 146 479 146 360 q 180 684 146 591 q 275 841 215 777 q 419 939 336 904 q 600 974 503 974 m 933 481 q 913 627 933 561 q 859 738 892 693 q 781 814 825 783 q 689 859 736 845 q 591 873 641 873 q 498 859 544 873 q 410 815 452 845 q 335 741 367 785 q 284 634 303 698 q 264 494 264 570 q 291 327 264 404 q 363 199 317 251 q 470 119 408 148 q 604 91 532 91 q 698 105 652 91 q 787 150 745 119 q 862 226 830 181 q 914 336 895 271 q 933 481 933 402 m 751 1309 l 798 1225 l 451 1025 l 409 1099 l 751 1309 z "},"Ô":{"ha":1143,"x_min":146,"x_max":1052,"o":"m 600 974 q 778 940 695 974 q 922 846 861 907 q 1017 693 983 785 q 1052 493 1052 602 q 993 230 1052 345 q 830 53 935 115 q 595 -10 726 -10 q 429 21 508 -10 q 286 111 349 52 q 184 265 222 170 q 146 479 146 360 q 180 684 146 591 q 275 841 215 777 q 419 939 336 904 q 600 974 503 974 m 933 481 q 913 627 933 561 q 859 738 892 693 q 781 814 825 783 q 689 859 736 845 q 591 873 641 873 q 498 859 544 873 q 410 815 452 845 q 335 741 367 785 q 284 634 303 698 q 264 494 264 570 q 291 327 264 404 q 363 199 317 251 q 470 119 408 148 q 604 91 532 91 q 698 105 652 91 q 787 150 745 119 q 862 226 830 181 q 914 336 895 271 q 933 481 933 402 m 618 1305 l 792 1111 l 729 1051 l 610 1184 l 487 1052 l 427 1105 l 618 1305 z "},"Õ":{"ha":1143,"x_min":146,"x_max":1052,"o":"m 793 1274 l 866 1262 q 861 1235 865 1257 q 854 1204 857 1213 q 848 1176 852 1196 q 838 1147 843 1156 q 826 1122 833 1138 q 810 1099 819 1107 q 789 1083 801 1092 q 762 1071 777 1074 q 729 1067 747 1067 q 671 1080 699 1067 q 622 1111 643 1093 q 583 1146 602 1128 q 547 1177 565 1164 q 513 1190 529 1190 q 496 1186 504 1190 q 483 1178 488 1183 q 472 1165 477 1174 q 465 1149 467 1156 q 458 1129 462 1142 q 454 1109 455 1116 q 450 1087 452 1102 q 446 1066 447 1072 l 372 1078 q 378 1105 374 1083 q 384 1135 382 1127 q 391 1164 386 1143 q 400 1193 395 1184 q 412 1217 405 1202 q 429 1240 420 1233 q 449 1257 437 1248 q 476 1269 461 1265 q 509 1272 492 1272 q 567 1260 539 1272 q 616 1229 595 1247 q 655 1193 637 1211 q 691 1163 673 1175 q 725 1150 709 1150 q 742 1154 734 1150 q 755 1161 750 1157 q 766 1175 761 1166 q 774 1191 771 1184 q 780 1211 777 1198 q 785 1231 783 1223 q 789 1253 786 1238 q 793 1274 791 1268 m 933 481 q 913 626 933 560 q 860 738 893 692 q 782 813 827 783 q 689 859 737 844 q 591 873 642 873 q 498 859 544 873 q 410 815 452 845 q 335 741 367 785 q 284 634 303 698 q 264 494 264 570 q 291 327 264 404 q 363 199 317 251 q 470 119 408 148 q 604 91 532 91 q 698 105 652 91 q 787 150 745 119 q 862 226 830 181 q 914 336 895 271 q 933 481 933 402 m 600 974 q 778 940 695 974 q 922 846 861 907 q 1017 693 983 785 q 1052 493 1052 602 q 993 230 1052 345 q 830 53 935 115 q 595 -10 726 -10 q 429 21 508 -10 q 286 111 349 52 q 184 265 222 170 q 146 479 146 360 q 180 684 146 591 q 275 841 215 777 q 419 939 336 904 q 600 974 503 974 z "},"Ö":{"ha":1143,"x_min":146,"x_max":1052,"o":"m 600 974 q 778 940 695 974 q 922 846 861 907 q 1017 693 983 785 q 1052 493 1052 602 q 993 230 1052 345 q 830 53 935 115 q 595 -10 726 -10 q 429 21 508 -10 q 286 111 349 52 q 184 265 222 170 q 146 479 146 360 q 180 684 146 591 q 275 841 215 777 q 419 939 336 904 q 600 974 503 974 m 933 481 q 913 627 933 561 q 859 738 892 693 q 781 814 825 783 q 689 859 736 845 q 591 873 641 873 q 498 859 544 873 q 410 815 452 845 q 335 741 367 785 q 284 634 303 698 q 264 494 264 570 q 291 327 264 404 q 363 199 317 251 q 470 119 408 148 q 604 91 532 91 q 698 105 652 91 q 787 150 745 119 q 862 226 830 181 q 914 336 895 271 q 933 481 933 402 m 391 1287 l 516 1287 l 516 1162 l 391 1162 l 391 1287 m 695 1287 l 821 1287 l 821 1162 l 695 1162 l 695 1287 z "},"×":{"ha":881,"x_min":123,"x_max":756,"o":"m 195 132 l 123 203 l 364 444 l 129 678 l 200 749 l 445 505 l 685 745 l 756 673 l 517 433 l 751 198 l 680 127 l 435 372 l 195 132 z "},"Ø":{"ha":1191,"x_min":104,"x_max":1098,"o":"m 600 974 q 780 940 692 974 q 930 836 867 905 l 1055 956 l 1098 911 l 968 788 q 1052 493 1052 665 q 993 230 1052 345 q 830 53 935 115 q 595 -10 726 -10 q 486 3 539 -10 q 400 31 433 16 q 335 70 368 46 q 294 102 303 94 q 273 123 284 111 l 146 3 l 104 47 l 234 171 q 146 479 146 298 q 180 684 146 591 q 275 841 215 777 q 419 939 336 904 q 600 974 503 974 m 846 755 q 732 843 798 812 q 593 873 666 873 q 475 850 532 873 q 370 782 418 827 q 293 663 322 738 q 264 494 264 588 q 323 256 264 357 l 846 755 m 604 91 q 698 105 652 91 q 787 150 745 119 q 862 226 830 181 q 914 336 895 271 q 933 481 933 402 q 881 704 933 610 l 358 205 q 469 120 405 149 q 604 91 533 91 z "},"Ù":{"ha":1072,"x_min":197,"x_max":929,"o":"m 197 964 l 312 964 l 312 339 q 313 299 312 317 q 320 254 314 281 q 335 205 326 227 q 363 160 345 184 q 408 122 382 137 q 474 96 434 106 q 563 86 513 86 q 666 100 621 86 q 738 136 711 113 q 783 192 766 159 q 807 261 800 225 q 814 339 814 296 l 814 964 l 929 964 l 929 328 q 928 287 929 304 q 924 241 928 271 q 915 191 921 212 q 895 141 908 170 q 863 93 882 113 q 817 51 845 73 q 752 17 788 30 q 667 -5 717 3 q 558 -14 617 -14 q 426 1 484 -14 q 330 36 367 15 q 266 89 292 56 q 226 150 239 122 q 206 216 213 177 q 198 276 199 255 q 197 328 197 296 l 197 964 m 423 1307 l 765 1097 l 722 1025 l 375 1223 l 423 1307 z "},"Ú":{"ha":1072,"x_min":197,"x_max":929,"o":"m 197 964 l 312 964 l 312 339 q 313 299 312 317 q 320 254 314 281 q 335 205 326 227 q 363 160 345 184 q 408 122 382 137 q 474 96 434 106 q 563 86 513 86 q 666 100 621 86 q 738 136 711 113 q 783 192 766 159 q 807 261 800 225 q 814 339 814 296 l 814 964 l 929 964 l 929 328 q 928 287 929 304 q 924 241 928 271 q 915 191 921 212 q 895 141 908 170 q 863 93 882 113 q 817 51 845 73 q 752 17 788 30 q 667 -5 717 3 q 558 -14 617 -14 q 426 1 484 -14 q 330 36 367 15 q 266 89 292 56 q 226 150 239 122 q 206 216 213 177 q 198 276 199 255 q 197 328 197 296 l 197 964 m 722 1309 l 769 1225 l 422 1025 l 380 1099 l 722 1309 z "},"Û":{"ha":1072,"x_min":197,"x_max":929,"o":"m 197 964 l 312 964 l 312 339 q 313 299 312 317 q 320 254 314 281 q 335 205 326 227 q 363 160 345 184 q 408 122 382 137 q 474 96 434 106 q 563 86 513 86 q 666 100 621 86 q 738 136 711 113 q 783 192 766 159 q 807 261 800 225 q 814 339 814 296 l 814 964 l 929 964 l 929 328 q 928 287 929 304 q 924 241 928 271 q 915 191 921 212 q 895 141 908 170 q 863 93 882 113 q 817 51 845 73 q 752 17 788 30 q 667 -5 717 3 q 558 -14 617 -14 q 426 1 484 -14 q 330 36 367 15 q 266 89 292 56 q 226 150 239 122 q 206 216 213 177 q 198 276 199 255 q 197 328 197 296 l 197 964 m 572 1305 l 746 1111 l 682 1051 l 564 1184 l 441 1052 l 381 1105 l 572 1305 z "},"Ü":{"ha":1072,"x_min":197,"x_max":929,"o":"m 197 964 l 312 964 l 312 339 q 313 299 312 317 q 320 254 314 281 q 335 205 326 227 q 363 160 345 184 q 408 122 382 137 q 474 96 434 106 q 563 86 513 86 q 666 100 621 86 q 738 136 711 113 q 783 192 766 159 q 807 261 800 225 q 814 339 814 296 l 814 964 l 929 964 l 929 328 q 928 287 929 304 q 924 241 928 271 q 915 191 921 212 q 895 141 908 170 q 863 93 882 113 q 817 51 845 73 q 752 17 788 30 q 667 -5 717 3 q 558 -14 617 -14 q 426 1 484 -14 q 330 36 367 15 q 266 89 292 56 q 226 150 239 122 q 206 216 213 177 q 198 276 199 255 q 197 328 197 296 l 197 964 m 348 1287 l 473 1287 l 473 1162 l 348 1162 l 348 1287 m 652 1287 l 778 1287 l 778 1162 l 652 1162 l 652 1287 z "},"Ý":{"ha":857,"x_min":68,"x_max":829,"o":"m 68 964 l 204 964 l 450 566 l 701 964 l 829 964 l 501 456 l 501 0 l 386 0 l 386 456 l 68 964 m 591 1309 l 638 1225 l 291 1025 l 249 1099 l 591 1309 z "},"Þ":{"ha":899,"x_min":197,"x_max":838,"o":"m 463 684 q 312 677 384 684 l 312 328 q 444 321 387 321 l 463 321 q 508 322 490 321 q 555 327 526 323 q 605 338 585 331 q 649 359 625 345 q 687 392 673 373 q 711 442 701 412 q 721 510 721 472 q 712 570 721 543 q 689 614 703 597 q 654 645 675 632 q 611 666 632 659 q 562 677 589 673 q 512 683 534 682 q 463 684 490 684 m 197 964 l 312 964 l 312 778 q 494 787 400 787 q 604 780 555 787 q 697 756 652 773 q 772 711 742 739 q 820 639 802 684 q 838 536 838 595 q 833 471 838 503 q 814 402 828 438 q 780 336 801 366 q 724 281 759 306 q 646 243 690 256 q 423 221 571 221 q 312 225 368 221 l 312 0 l 197 0 l 197 964 z "},"ß":{"ha":853,"x_min":136,"x_max":772,"o":"m 403 970 q 488 956 448 970 q 554 919 527 942 q 600 867 581 896 q 628 807 619 838 q 637 747 637 777 q 619 667 637 703 q 575 610 601 632 q 524 568 549 587 q 479 528 498 549 q 461 483 461 507 q 478 439 461 457 q 523 409 496 420 q 583 386 550 397 q 650 360 616 375 q 710 323 683 345 q 754 264 737 302 q 772 177 772 227 q 767 131 772 154 q 746 80 762 107 q 707 31 730 52 q 642 -4 683 10 q 547 -18 600 -18 q 340 14 448 -18 l 361 93 q 524 72 468 72 q 621 96 587 72 q 654 175 654 119 q 641 227 654 205 q 607 262 628 249 q 558 287 586 275 q 503 307 531 298 q 447 331 474 316 q 398 362 419 345 q 364 410 377 380 q 351 478 351 439 q 364 542 351 513 q 397 589 377 571 q 440 626 416 608 q 483 660 463 645 q 516 695 503 674 q 529 740 529 716 q 486 832 529 795 q 391 870 443 870 q 363 867 378 870 q 326 853 348 865 q 288 824 304 842 q 259 772 271 806 q 247 693 247 739 l 247 0 l 136 0 l 136 694 q 152 800 136 752 q 194 878 168 847 q 256 930 220 909 q 328 961 291 951 q 403 970 365 970 z "},"à":{"ha":725,"x_min":83,"x_max":603,"o":"m 344 682 q 471 665 419 682 q 551 613 523 647 q 591 539 579 580 q 603 445 603 498 l 603 0 l 524 0 l 498 61 q 310 -14 416 -14 q 149 44 215 -14 q 83 178 83 101 q 105 263 83 227 q 164 322 127 300 q 254 357 200 344 q 365 375 309 370 q 491 380 420 380 l 491 433 q 489 473 491 456 q 478 514 488 490 q 452 553 469 538 q 404 579 436 568 q 326 591 371 591 q 147 560 257 591 l 126 642 q 344 682 235 682 m 491 296 l 450 296 q 394 295 418 296 q 338 291 370 294 q 283 280 306 288 q 238 260 260 272 q 206 229 217 248 q 195 183 195 209 q 237 107 195 140 q 340 74 280 74 q 491 142 427 74 l 491 296 m 302 1044 l 549 824 l 494 756 l 239 970 l 302 1044 z "},"á":{"ha":725,"x_min":83,"x_max":603,"o":"m 458 1050 l 521 977 l 266 763 l 212 831 l 458 1050 m 491 296 l 450 296 q 394 295 418 296 q 338 291 370 294 q 283 280 306 288 q 238 260 260 272 q 206 229 217 248 q 195 183 195 209 q 237 107 195 140 q 340 74 280 74 q 491 142 427 74 l 491 296 m 344 682 q 471 665 419 682 q 551 613 523 647 q 591 539 579 580 q 603 445 603 498 l 603 0 l 524 0 l 498 61 q 310 -14 416 -14 q 149 44 215 -14 q 83 178 83 101 q 105 263 83 227 q 164 322 127 300 q 254 357 200 344 q 365 375 309 370 q 491 380 420 380 l 491 433 q 489 473 491 456 q 478 514 488 490 q 452 553 469 538 q 404 579 436 568 q 326 591 371 591 q 147 560 257 591 l 126 642 q 344 682 235 682 z "},"â":{"ha":725,"x_min":83,"x_max":603,"o":"m 369 1010 l 543 817 l 479 757 l 361 890 l 237 758 l 178 810 l 369 1010 m 491 296 l 450 296 q 394 295 418 296 q 338 291 370 294 q 283 280 306 288 q 238 260 260 272 q 206 229 217 248 q 195 183 195 209 q 237 107 195 140 q 340 74 280 74 q 491 142 427 74 l 491 296 m 344 682 q 471 665 419 682 q 551 613 523 647 q 591 539 579 580 q 603 445 603 498 l 603 0 l 524 0 l 498 61 q 310 -14 416 -14 q 149 44 215 -14 q 83 178 83 101 q 105 263 83 227 q 164 322 127 300 q 254 357 200 344 q 365 375 309 370 q 491 380 420 380 l 491 433 q 489 473 491 456 q 478 514 488 490 q 452 553 469 538 q 404 579 436 568 q 326 591 371 591 q 147 560 257 591 l 126 642 q 344 682 235 682 z "},"ã":{"ha":725,"x_min":83,"x_max":617,"o":"m 544 979 l 617 968 l 606 910 q 568 814 592 845 q 480 773 536 773 q 422 786 450 773 q 373 816 394 798 q 334 852 353 834 q 298 883 316 870 q 264 895 280 895 q 248 892 256 895 q 235 884 240 888 q 224 872 229 880 q 217 858 220 864 q 211 842 214 852 q 207 828 208 833 q 205 815 206 824 l 203 807 l 197 773 l 123 783 l 135 841 q 138 859 138 855 q 144 881 139 862 q 155 908 150 899 q 170 933 159 917 q 192 957 180 949 q 221 971 203 964 q 260 978 239 978 q 318 965 290 978 q 367 935 347 953 q 406 899 388 917 q 443 868 425 881 q 476 856 460 856 q 493 859 485 856 q 506 867 500 863 q 516 879 511 871 q 524 893 521 887 q 530 909 527 899 q 533 923 532 918 q 536 936 534 927 l 537 944 l 544 979 m 491 296 l 450 296 q 394 295 418 296 q 338 291 370 294 q 283 280 306 288 q 238 260 260 272 q 206 229 217 248 q 195 183 195 209 q 237 107 195 140 q 340 74 280 74 q 491 142 427 74 l 491 296 m 344 682 q 471 665 419 682 q 551 613 523 647 q 591 539 579 580 q 603 445 603 498 l 603 0 l 524 0 l 498 61 q 310 -14 416 -14 q 149 44 215 -14 q 83 178 83 101 q 105 263 83 227 q 164 322 127 300 q 254 357 200 344 q 365 375 309 370 q 491 380 420 380 l 491 433 q 489 473 491 456 q 478 514 488 490 q 452 553 469 538 q 404 579 436 568 q 326 591 371 591 q 147 560 257 591 l 126 642 q 344 682 235 682 z "},"ä":{"ha":725,"x_min":83,"x_max":606,"o":"m 480 964 l 606 964 l 606 838 l 480 838 l 480 964 m 176 964 l 301 964 l 301 838 l 176 838 l 176 964 m 491 296 l 450 296 q 394 295 418 296 q 338 291 370 294 q 283 280 306 288 q 238 260 260 272 q 206 229 217 248 q 195 183 195 209 q 237 107 195 140 q 340 74 280 74 q 491 142 427 74 l 491 296 m 344 682 q 471 665 419 682 q 551 613 523 647 q 591 539 579 580 q 603 445 603 498 l 603 0 l 524 0 l 498 61 q 310 -14 416 -14 q 149 44 215 -14 q 83 178 83 101 q 105 263 83 227 q 164 322 127 300 q 254 357 200 344 q 365 375 309 370 q 491 380 420 380 l 491 433 q 489 473 491 456 q 478 514 488 490 q 452 553 469 538 q 404 579 436 568 q 326 591 371 591 q 147 560 257 591 l 126 642 q 344 682 235 682 z "},"å":{"ha":725,"x_min":83,"x_max":603,"o":"m 374 1005 q 311 978 336 1005 q 286 915 286 951 q 310 851 286 878 q 374 824 335 824 q 435 851 410 824 q 460 915 460 879 q 435 978 460 951 q 374 1005 410 1005 m 268 1022 q 290 1045 268 1022 q 373 1067 312 1067 q 478 1022 434 1067 q 522 915 522 978 q 478 807 522 852 q 374 762 435 762 q 269 807 313 762 q 224 915 224 851 q 268 1022 224 978 m 491 296 l 450 296 q 394 295 418 296 q 338 291 370 294 q 283 280 306 288 q 238 260 260 272 q 206 229 217 248 q 195 183 195 209 q 237 107 195 140 q 340 74 280 74 q 491 142 427 74 l 491 296 m 344 682 q 471 665 419 682 q 551 613 523 647 q 591 539 579 580 q 603 445 603 498 l 603 0 l 524 0 l 498 61 q 310 -14 416 -14 q 149 44 215 -14 q 83 178 83 101 q 105 263 83 227 q 164 322 127 300 q 254 357 200 344 q 365 375 309 370 q 491 380 420 380 l 491 433 q 489 473 491 456 q 478 514 488 490 q 452 553 469 538 q 404 579 436 568 q 326 591 371 591 q 147 560 257 591 l 126 642 q 344 682 235 682 z "},"æ":{"ha":1135,"x_min":83,"x_max":1046,"o":"m 194 186 q 239 108 194 140 q 343 75 285 75 q 491 140 429 75 l 491 296 q 341 288 401 296 q 249 266 281 281 q 206 232 218 250 q 194 186 194 213 m 789 586 q 657 525 707 586 q 608 380 608 465 l 940 380 q 937 432 940 407 q 923 487 933 458 q 897 537 913 516 q 853 572 881 558 q 789 586 825 586 m 126 640 q 353 682 239 682 q 487 651 433 682 q 567 564 541 620 q 674 650 611 618 q 808 682 738 682 q 911 659 867 682 q 981 599 956 635 q 1022 510 1006 563 q 1042 407 1037 456 q 1046 296 1046 357 l 603 296 q 674 139 603 203 q 850 76 745 76 q 989 100 907 76 l 1008 24 q 807 -14 905 -14 q 667 12 733 -14 q 557 89 600 37 q 321 -14 479 -14 q 155 42 226 -14 q 83 180 83 98 q 146 310 83 256 q 328 375 208 363 q 491 381 387 381 l 491 416 q 484 477 491 448 q 458 532 476 505 q 407 574 441 559 q 325 590 372 590 q 154 560 263 590 l 126 640 z "},"ç":{"ha":679,"x_min":88,"x_max":601,"o":"m 460 -221 q 458 -202 460 -211 q 447 -187 455 -194 q 431 -176 438 -180 q 407 -165 424 -171 q 380 -155 391 -159 q 344 -145 369 -152 q 305 -133 319 -138 l 337 -14 q 264 6 298 -7 q 197 45 230 19 q 140 106 163 71 q 102 195 117 142 q 88 315 88 249 q 107 457 88 394 q 158 561 126 521 q 232 628 189 602 q 319 666 275 655 q 413 677 364 677 q 601 637 509 677 l 574 556 q 427 582 498 582 q 360 575 391 582 q 298 552 329 569 q 245 508 267 535 q 210 438 223 481 q 196 338 196 395 q 210 230 196 277 q 248 153 224 182 q 303 106 271 124 q 368 80 335 87 q 439 73 401 73 q 566 96 503 73 l 593 19 q 422 -18 506 -14 l 404 -92 q 414 -96 405 -93 q 429 -100 424 -98 q 444 -105 433 -101 q 461 -113 455 -109 q 477 -122 467 -116 q 494 -134 488 -127 q 507 -149 500 -140 q 518 -166 514 -157 q 526 -188 523 -176 q 528 -214 528 -200 q 491 -300 528 -262 q 390 -338 454 -338 q 359 -335 376 -338 q 323 -328 342 -333 q 292 -320 304 -323 q 260 -311 280 -317 q 235 -303 239 -304 l 253 -241 q 393 -273 359 -273 q 442 -258 424 -273 q 460 -221 460 -243 z "},"è":{"ha":747,"x_min":88,"x_max":659,"o":"m 410 683 q 498 671 459 683 q 563 641 537 659 q 607 593 589 623 q 636 536 626 564 q 651 470 646 509 q 658 403 656 431 q 659 336 659 374 l 659 283 l 199 283 q 215 210 199 246 q 262 143 232 174 q 341 94 292 113 q 450 75 391 75 q 603 100 521 75 l 623 24 q 408 -14 513 -14 q 277 6 334 -14 q 185 57 220 26 q 127 133 150 89 q 97 221 105 177 q 88 313 88 264 q 106 451 88 389 q 156 556 125 513 q 229 627 187 598 q 316 670 271 656 q 410 683 362 683 m 387 587 q 284 554 327 587 q 221 472 241 521 q 201 367 201 423 l 551 367 q 387 587 551 587 m 312 1050 l 559 831 l 505 763 l 250 977 l 312 1050 z "},"é":{"ha":747,"x_min":88,"x_max":659,"o":"m 410 683 q 498 671 459 683 q 563 641 537 659 q 607 593 589 623 q 636 536 626 564 q 651 470 646 509 q 658 403 656 431 q 659 336 659 374 l 659 283 l 199 283 q 215 210 199 246 q 262 143 232 174 q 341 94 292 113 q 450 75 391 75 q 603 100 521 75 l 623 24 q 408 -14 513 -14 q 277 6 334 -14 q 185 57 220 26 q 127 133 150 89 q 97 221 105 177 q 88 313 88 264 q 106 451 88 389 q 156 556 125 513 q 229 627 187 598 q 316 670 271 656 q 410 683 362 683 m 387 587 q 284 554 327 587 q 221 472 241 521 q 201 367 201 423 l 551 367 q 387 587 551 587 m 526 1050 l 589 977 l 334 763 l 279 831 l 526 1050 z "},"ê":{"ha":747,"x_min":88,"x_max":659,"o":"m 410 683 q 498 671 459 683 q 563 641 537 659 q 607 593 589 623 q 636 536 626 564 q 651 470 646 509 q 658 403 656 431 q 659 336 659 374 l 659 283 l 199 283 q 215 210 199 246 q 262 143 232 174 q 341 94 292 113 q 450 75 391 75 q 603 100 521 75 l 623 24 q 408 -14 513 -14 q 277 6 334 -14 q 185 57 220 26 q 127 133 150 89 q 97 221 105 177 q 88 313 88 264 q 106 451 88 389 q 156 556 125 513 q 229 627 187 598 q 316 670 271 656 q 410 683 362 683 m 387 587 q 284 554 327 587 q 221 472 241 521 q 201 367 201 423 l 551 367 q 387 587 551 587 m 428 1010 l 602 817 l 538 757 l 419 890 l 296 758 l 237 810 l 428 1010 z "},"ë":{"ha":747,"x_min":88,"x_max":659,"o":"m 410 683 q 498 671 459 683 q 563 641 537 659 q 607 593 589 623 q 636 536 626 564 q 651 470 646 509 q 658 403 656 431 q 659 336 659 374 l 659 283 l 200 283 q 216 210 200 246 q 263 143 233 174 q 342 94 293 113 q 450 75 391 75 q 603 100 521 75 l 623 24 q 408 -14 513 -14 q 277 6 334 -14 q 185 57 220 26 q 127 133 150 89 q 97 221 105 177 q 88 313 88 264 q 106 451 88 389 q 156 556 125 513 q 229 627 187 598 q 316 670 271 656 q 410 683 362 683 m 387 587 q 283 554 327 587 q 220 472 240 521 q 200 367 200 423 l 551 367 q 387 587 551 587 m 200 964 l 326 964 l 326 838 l 200 838 l 200 964 m 505 964 l 630 964 l 630 838 l 505 838 l 505 964 z "},"ì":{"ha":355,"x_min":0,"x_max":309,"o":"m 122 670 l 233 670 l 233 0 l 122 0 l 122 670 m 62 1050 l 309 831 l 255 763 l 0 977 l 62 1050 z "},"í":{"ha":355,"x_min":76,"x_max":385,"o":"m 122 670 l 233 670 l 233 0 l 122 0 l 122 670 m 323 1050 l 385 977 l 130 763 l 76 831 l 323 1050 z "},"î":{"ha":359,"x_min":12,"x_max":335,"o":"m 122 670 l 233 670 l 233 0 l 122 0 l 122 670 m 182 1010 l 335 817 l 272 757 l 173 883 l 71 758 l 12 810 l 182 1010 z "},"ï":{"ha":355,"x_min":-10,"x_max":366,"o":"m 122 670 l 233 670 l 233 0 l 122 0 l 122 670 m -10 964 l 115 964 l 115 838 l -10 838 l -10 964 m 240 964 l 366 964 l 366 838 l 240 838 l 240 964 z "},"ð":{"ha":849,"x_min":88,"x_max":727,"o":"m 196 326 q 259 149 196 220 q 410 77 321 77 q 454 82 432 77 q 503 102 476 87 q 550 140 529 117 q 589 203 572 163 q 613 296 606 243 q 620 427 620 348 l 620 469 q 399 547 493 547 q 254 486 312 547 q 196 326 196 424 m 348 989 q 548 890 460 958 l 671 962 l 709 897 l 606 838 q 701 675 674 765 q 727 466 727 586 q 724 362 727 410 q 711 264 720 315 q 687 174 702 214 q 646 98 671 134 q 588 38 621 62 q 506 0 554 14 q 400 -14 458 -14 q 175 68 262 -14 q 88 290 88 149 q 125 465 88 385 q 230 592 161 544 q 385 640 298 640 q 614 566 484 640 q 507 782 596 696 l 386 712 l 349 777 l 446 832 q 306 902 384 876 l 348 989 z "},"ñ":{"ha":798,"x_min":122,"x_max":676,"o":"m 122 670 l 200 670 l 224 613 q 460 684 354 684 q 556 666 515 684 q 619 623 597 649 q 655 557 642 597 q 672 481 669 517 q 676 399 676 446 l 676 0 l 564 0 l 564 407 q 412 583 564 583 q 233 531 334 583 l 233 0 l 122 0 l 122 670 m 602 983 l 675 971 l 663 913 q 627 819 650 849 q 538 776 594 776 q 480 788 508 776 q 431 819 452 801 q 392 855 410 837 q 356 885 374 873 q 322 898 338 898 q 306 895 313 898 q 292 887 298 891 q 282 874 287 882 q 274 861 277 867 q 269 845 271 855 q 265 831 266 836 q 263 819 264 827 l 261 810 l 254 776 l 181 787 l 193 844 q 193 848 193 846 q 318 981 219 981 q 376 968 348 981 q 424 938 404 956 q 463 902 445 920 q 499 871 481 884 q 533 859 517 859 q 548 861 541 859 q 560 868 555 863 q 570 878 566 873 q 578 890 574 883 q 584 903 581 898 q 588 917 586 909 q 591 929 590 925 q 593 940 592 933 q 595 947 595 947 l 602 983 z "},"ò":{"ha":821,"x_min":88,"x_max":733,"o":"m 359 1050 l 606 831 l 551 763 l 296 977 l 359 1050 m 405 588 q 259 524 321 588 q 197 347 197 459 q 258 158 197 235 q 416 81 319 81 q 565 149 505 81 q 625 326 625 217 q 605 439 625 389 q 554 522 586 490 q 484 571 523 554 q 405 588 446 588 m 414 683 q 643 594 553 683 q 733 349 733 505 q 641 84 733 182 q 404 -14 549 -14 q 176 78 264 -14 q 88 328 88 170 q 178 586 88 490 q 414 683 268 683 z "},"ó":{"ha":821,"x_min":88,"x_max":733,"o":"m 414 683 q 643 594 553 683 q 733 349 733 505 q 641 84 733 182 q 404 -14 549 -14 q 176 78 264 -14 q 88 328 88 170 q 178 586 88 490 q 414 683 268 683 m 405 588 q 259 524 321 588 q 197 347 197 459 q 258 158 197 235 q 416 81 319 81 q 565 149 505 81 q 625 326 625 217 q 605 439 625 389 q 554 522 586 490 q 484 571 523 554 q 405 588 446 588 m 479 1050 l 541 977 l 286 763 l 232 831 l 479 1050 z "},"ô":{"ha":821,"x_min":88,"x_max":733,"o":"m 414 683 q 643 594 553 683 q 733 349 733 505 q 641 84 733 182 q 404 -14 549 -14 q 176 78 264 -14 q 88 328 88 170 q 178 586 88 490 q 414 683 268 683 m 405 588 q 259 524 321 588 q 197 347 197 459 q 258 158 197 235 q 416 81 319 81 q 565 149 505 81 q 625 326 625 217 q 605 439 625 389 q 554 522 586 490 q 484 571 523 554 q 405 588 446 588 m 423 1010 l 597 817 l 534 757 l 415 890 l 292 758 l 232 810 l 423 1010 z "},"õ":{"ha":821,"x_min":88,"x_max":733,"o":"m 588 982 l 661 970 q 656 943 660 965 q 650 913 652 921 q 643 884 648 905 q 633 855 638 864 q 621 831 629 846 q 605 808 614 815 q 584 791 596 800 q 557 779 572 783 q 524 776 542 776 q 466 788 494 776 q 417 819 438 801 q 378 855 397 837 q 342 885 360 873 q 309 898 324 898 q 293 896 300 898 q 281 889 286 894 q 271 879 275 884 q 263 865 267 874 q 257 850 259 857 q 252 832 254 844 q 248 814 250 821 q 244 794 247 807 q 241 776 242 782 l 168 786 q 173 813 169 791 q 179 844 177 836 q 186 872 181 852 q 195 901 191 892 q 208 926 200 910 q 224 949 215 941 q 244 965 233 956 q 272 977 256 974 q 304 981 287 981 q 362 968 334 981 q 411 938 391 956 q 450 902 432 920 q 487 871 469 884 q 520 859 505 859 q 537 862 530 859 q 551 870 545 865 q 561 883 556 874 q 569 899 566 892 q 575 919 572 906 q 580 939 578 932 q 584 961 581 946 q 588 982 587 977 m 405 588 q 259 524 321 588 q 197 347 197 459 q 258 158 197 235 q 416 81 319 81 q 565 149 505 81 q 625 326 625 217 q 605 439 625 389 q 554 522 586 490 q 484 571 523 554 q 405 588 446 588 m 414 683 q 643 594 553 683 q 733 349 733 505 q 641 84 733 182 q 404 -14 549 -14 q 176 78 264 -14 q 88 328 88 170 q 178 586 88 490 q 414 683 268 683 z "},"ö":{"ha":821,"x_min":88,"x_max":733,"o":"m 414 683 q 643 594 553 683 q 733 349 733 505 q 641 84 733 182 q 404 -14 549 -14 q 176 78 264 -14 q 88 328 88 170 q 178 586 88 490 q 414 683 268 683 m 405 588 q 259 524 321 588 q 197 347 197 459 q 258 158 197 235 q 416 81 319 81 q 565 149 505 81 q 625 326 625 217 q 605 439 625 389 q 554 522 586 490 q 484 571 523 554 q 405 588 446 588 m 216 964 l 342 964 l 342 838 l 216 838 l 216 964 m 521 964 l 646 964 l 646 838 l 521 838 l 521 964 z "},"÷":{"ha":949,"x_min":85,"x_max":865,"o":"m 408 836 l 541 836 l 541 704 l 408 704 l 408 836 m 408 189 l 541 189 l 541 56 l 408 56 l 408 189 m 85 493 l 865 493 l 865 399 l 85 399 l 85 493 z "},"ø":{"ha":821,"x_min":75,"x_max":745,"o":"m 706 675 l 745 637 l 671 561 q 733 349 733 475 q 641 84 733 182 q 404 -14 549 -14 q 189 66 273 -14 l 114 -10 l 75 28 l 152 107 q 88 328 88 195 q 178 586 88 490 q 414 683 268 683 q 635 602 548 683 l 706 675 m 405 588 q 259 524 321 588 q 197 347 197 459 q 235 192 197 260 l 555 521 q 405 588 492 588 m 589 476 l 267 147 q 416 81 328 81 q 565 149 505 81 q 625 326 625 217 q 589 476 625 413 z "},"ù":{"ha":798,"x_min":122,"x_max":676,"o":"m 565 670 l 676 670 l 676 0 l 598 0 l 574 56 q 338 -14 446 -14 q 242 4 283 -14 q 179 47 201 21 q 143 112 157 73 q 126 188 130 152 q 122 270 122 224 l 122 670 l 233 670 l 233 262 q 386 86 233 86 q 565 138 465 86 l 565 670 m 323 1050 l 570 831 l 516 763 l 261 977 l 323 1050 z "},"ú":{"ha":798,"x_min":122,"x_max":676,"o":"m 565 670 l 676 670 l 676 0 l 598 0 l 574 56 q 338 -14 446 -14 q 242 4 283 -14 q 179 47 201 21 q 143 112 157 73 q 126 188 130 152 q 122 270 122 224 l 122 670 l 233 670 l 233 262 q 386 86 233 86 q 565 138 465 86 l 565 670 m 519 1050 l 582 977 l 327 763 l 273 831 l 519 1050 z "},"û":{"ha":798,"x_min":122,"x_max":676,"o":"m 565 670 l 676 670 l 676 0 l 598 0 l 574 56 q 338 -14 446 -14 q 242 4 283 -14 q 179 47 201 21 q 143 112 157 73 q 126 188 130 152 q 122 270 122 224 l 122 670 l 233 670 l 233 262 q 386 86 233 86 q 565 138 465 86 l 565 670 m 414 1010 l 588 817 l 525 757 l 406 890 l 283 758 l 223 810 l 414 1010 z "},"ü":{"ha":798,"x_min":122,"x_max":676,"o":"m 565 670 l 676 670 l 676 0 l 598 0 l 574 56 q 338 -14 446 -14 q 242 4 283 -14 q 179 47 201 21 q 143 112 157 73 q 126 188 130 152 q 122 270 122 224 l 122 670 l 233 670 l 233 262 q 386 86 233 86 q 565 138 465 86 l 565 670 m 187 964 l 313 964 l 313 838 l 187 838 l 187 964 m 491 964 l 616 964 l 616 838 l 491 838 l 491 964 z "},"ý":{"ha":712,"x_min":34,"x_max":678,"o":"m 34 670 l 149 670 l 363 102 l 563 670 l 678 670 l 292 -360 l 173 -360 l 311 -26 l 34 670 m 519 1050 l 582 977 l 327 763 l 273 831 l 519 1050 z "},"þ":{"ha":828,"x_min":129,"x_max":740,"o":"m 414 585 q 335 568 369 585 q 283 525 302 551 q 252 463 264 500 q 237 391 241 425 q 234 317 234 357 q 417 79 234 79 q 472 87 444 79 q 529 113 500 94 q 581 159 558 132 q 617 229 603 186 q 631 326 631 273 q 612 438 631 388 q 562 519 593 488 q 492 568 530 551 q 414 585 454 585 m 433 680 q 551 657 496 680 q 649 592 607 634 q 715 487 691 551 q 740 346 740 423 q 651 87 740 189 q 427 -16 562 -16 q 240 57 318 -16 l 240 -360 l 129 -360 l 129 964 l 240 964 l 240 600 q 433 680 311 680 z "},"ÿ":{"ha":712,"x_min":34,"x_max":678,"o":"m 34 670 l 149 670 l 363 102 l 563 670 l 678 670 l 292 -360 l 173 -360 l 311 -26 l 34 670 m 150 964 l 275 964 l 275 838 l 150 838 l 150 964 m 454 964 l 580 964 l 580 838 l 454 838 l 454 964 z "},"Ā":{"ha":938,"x_min":88,"x_max":904,"o":"m 431 964 l 562 964 l 904 0 l 787 0 l 690 280 l 292 280 l 195 0 l 88 0 l 431 964 m 491 851 l 327 381 l 654 381 l 491 851 m 247 1151 l 749 1151 l 749 1063 l 247 1063 l 247 1151 z "},"ā":{"ha":725,"x_min":83,"x_max":603,"o":"m 180 904 l 541 904 l 541 817 l 180 817 l 180 904 m 491 296 l 450 296 q 382 295 411 296 q 316 287 354 294 q 253 269 277 281 q 211 236 229 258 q 194 183 194 214 q 237 107 194 140 q 340 74 280 74 q 491 142 427 74 l 491 296 m 344 683 q 471 665 418 683 q 551 614 523 648 q 591 539 579 581 q 603 445 603 498 l 603 0 l 524 0 l 498 61 q 310 -14 416 -14 q 149 44 215 -14 q 83 178 83 101 q 98 251 83 218 q 141 305 113 283 q 205 342 170 327 q 289 366 241 357 q 385 377 337 374 q 491 380 433 380 l 491 433 q 489 473 491 456 q 478 514 488 490 q 452 553 469 538 q 404 579 436 568 q 326 591 371 591 q 147 560 257 591 l 126 642 q 344 683 237 683 z "},"Ă":{"ha":938,"x_min":88,"x_max":904,"o":"m 243 1232 l 327 1276 q 395 1187 351 1225 q 498 1149 438 1149 q 605 1186 553 1149 q 698 1276 658 1223 l 774 1224 q 644 1104 720 1152 q 487 1056 568 1056 q 334 1108 398 1056 q 243 1232 269 1160 m 491 851 l 327 381 l 654 381 l 491 851 m 431 964 l 562 964 l 904 0 l 787 0 l 690 280 l 292 280 l 195 0 l 88 0 l 431 964 z "},"ă":{"ha":725,"x_min":83,"x_max":648,"o":"m 117 937 l 200 982 q 268 893 224 931 q 371 855 311 855 q 478 892 426 855 q 571 982 531 929 l 648 930 q 517 809 593 857 q 360 762 441 762 q 207 813 271 762 q 117 937 143 865 m 491 296 l 450 296 q 394 295 418 296 q 338 291 370 294 q 283 280 306 288 q 238 260 260 272 q 206 229 217 248 q 195 183 195 209 q 237 107 195 140 q 340 74 280 74 q 491 142 427 74 l 491 296 m 344 682 q 471 665 419 682 q 551 613 523 647 q 591 539 579 580 q 603 445 603 498 l 603 0 l 524 0 l 498 61 q 310 -14 416 -14 q 149 44 215 -14 q 83 178 83 101 q 105 263 83 227 q 164 322 127 300 q 254 357 200 344 q 365 375 309 370 q 491 380 420 380 l 491 433 q 489 473 491 456 q 478 514 488 490 q 452 553 469 538 q 404 579 436 568 q 326 591 371 591 q 147 560 257 591 l 126 642 q 344 682 235 682 z "},"Ą":{"ha":938,"x_min":88,"x_max":904,"o":"m 431 964 l 562 964 l 904 0 q 783 -20 836 0 q 703 -68 730 -41 q 657 -127 675 -96 q 634 -179 639 -159 q 629 -206 629 -198 q 647 -256 629 -235 q 700 -278 664 -278 q 812 -239 746 -278 l 845 -300 q 669 -369 751 -369 q 570 -331 609 -369 q 531 -231 531 -292 q 606 -61 531 -146 q 769 53 680 24 l 690 280 l 292 280 l 195 0 l 88 0 l 431 964 m 491 851 l 327 381 l 654 381 l 491 851 z "},"ą":{"ha":725,"x_min":83,"x_max":603,"o":"m 326 583 q 147 552 257 583 l 126 633 q 344 674 235 674 q 471 656 419 674 q 551 605 524 639 q 591 531 579 572 q 603 437 603 490 l 603 -31 q 569 -47 592 -36 q 536 -64 547 -59 q 505 -81 525 -70 q 476 -98 486 -92 q 450 -114 466 -104 q 427 -133 435 -125 q 408 -151 418 -140 q 393 -172 398 -162 q 385 -193 389 -181 q 382 -217 382 -205 q 402 -267 382 -248 q 454 -286 422 -286 q 565 -248 496 -286 l 597 -304 q 420 -368 500 -368 q 322 -332 360 -368 q 284 -239 284 -295 q 303 -164 284 -201 q 349 -103 323 -128 q 411 -55 374 -79 q 469 -20 447 -31 q 517 3 492 -8 q 522 5 520 5 l 499 58 q 301 -12 397 -12 q 148 45 212 -12 q 83 178 83 102 q 92 229 83 203 q 120 281 101 254 q 176 329 139 307 q 262 361 212 350 q 491 380 344 380 l 491 425 q 489 465 491 448 q 478 506 488 482 q 452 545 469 530 q 404 571 436 560 q 326 583 371 583 m 332 79 q 491 136 417 79 l 491 296 l 464 296 q 307 288 361 296 q 220 245 252 279 q 195 182 195 218 q 233 110 195 140 q 332 79 272 79 z "},"Ć":{"ha":984,"x_min":186,"x_max":943,"o":"m 728 1340 l 775 1257 l 428 1057 l 386 1130 l 728 1340 m 186 481 q 244 730 186 620 q 413 906 302 841 q 669 970 524 970 q 930 919 800 970 l 895 823 q 665 869 764 869 q 514 837 584 869 q 399 750 445 804 q 328 627 353 696 q 302 481 302 557 q 329 332 302 403 q 406 208 357 261 q 529 123 456 155 q 690 92 603 92 q 908 133 795 92 l 943 47 q 661 -14 802 -14 q 498 12 574 -14 q 366 82 422 37 q 269 189 309 127 q 207 325 228 250 q 186 481 186 399 z "},"ć":{"ha":679,"x_min":88,"x_max":601,"o":"m 88 319 q 107 462 88 399 q 158 566 126 526 q 232 633 189 606 q 319 671 275 660 q 413 682 364 682 q 601 642 509 682 l 574 561 q 427 587 498 587 q 360 580 391 587 q 298 557 329 574 q 245 513 267 540 q 210 443 223 486 q 196 343 196 399 q 210 234 196 281 q 248 158 224 187 q 303 111 271 129 q 368 85 335 92 q 439 78 401 78 q 566 100 503 78 l 593 24 q 400 -14 497 -14 q 314 -5 355 -14 q 231 27 273 4 q 158 87 189 51 q 107 183 127 123 q 88 319 88 243 m 465 1050 l 528 977 l 273 763 l 218 831 l 465 1050 z "},"Ĉ":{"ha":984,"x_min":186,"x_max":943,"o":"m 186 481 q 244 730 186 620 q 413 906 302 841 q 669 970 524 970 q 930 919 800 970 l 895 823 q 665 869 764 869 q 514 837 584 869 q 399 750 445 804 q 328 627 353 696 q 302 481 302 557 q 329 332 302 403 q 406 208 357 261 q 529 123 456 155 q 690 92 603 92 q 908 133 795 92 l 943 47 q 661 -14 802 -14 q 498 12 574 -14 q 366 82 422 37 q 269 189 309 127 q 207 325 228 250 q 186 481 186 399 m 574 1310 l 747 1116 l 684 1057 l 565 1190 l 442 1057 l 382 1110 l 574 1310 z "},"ĉ":{"ha":679,"x_min":88,"x_max":601,"o":"m 88 319 q 107 462 88 399 q 158 566 126 526 q 232 633 189 606 q 319 671 275 660 q 413 682 364 682 q 601 642 509 682 l 574 561 q 427 587 498 587 q 360 580 391 587 q 298 557 329 574 q 245 513 267 540 q 210 443 223 486 q 196 343 196 399 q 210 234 196 281 q 248 158 224 187 q 303 111 271 129 q 368 85 335 92 q 439 78 401 78 q 566 100 503 78 l 593 24 q 400 -14 497 -14 q 314 -5 355 -14 q 231 27 273 4 q 158 87 189 51 q 107 183 127 123 q 88 319 88 243 m 385 1016 l 558 822 l 495 762 l 376 895 l 253 763 l 193 816 l 385 1016 z "},"Ċ":{"ha":984,"x_min":186,"x_max":943,"o":"m 511 1240 l 654 1240 l 654 1098 l 511 1098 l 511 1240 m 186 481 q 244 730 186 620 q 413 906 302 841 q 669 970 524 970 q 930 919 800 970 l 895 823 q 665 869 764 869 q 514 837 584 869 q 399 750 445 804 q 328 627 353 696 q 302 481 302 557 q 329 332 302 403 q 406 208 357 261 q 529 123 456 155 q 690 92 603 92 q 908 133 795 92 l 943 47 q 661 -14 802 -14 q 498 12 574 -14 q 366 82 422 37 q 269 189 309 127 q 207 325 228 250 q 186 481 186 399 z "},"ċ":{"ha":679,"x_min":88,"x_max":601,"o":"m 88 319 q 107 462 88 399 q 158 566 126 526 q 232 633 189 606 q 319 671 275 660 q 413 682 364 682 q 601 642 509 682 l 574 561 q 427 587 498 587 q 360 580 391 587 q 298 557 329 574 q 245 513 267 540 q 210 443 223 486 q 196 343 196 399 q 210 234 196 281 q 248 158 224 187 q 303 111 271 129 q 368 85 335 92 q 439 78 401 78 q 566 100 503 78 l 593 24 q 400 -14 497 -14 q 314 -5 355 -14 q 231 27 273 4 q 158 87 189 51 q 107 183 127 123 q 88 319 88 243 m 342 964 l 485 964 l 485 822 l 342 822 l 342 964 z "},"Č":{"ha":984,"x_min":186,"x_max":943,"o":"m 186 481 q 244 730 186 620 q 413 906 302 841 q 669 970 524 970 q 930 919 800 970 l 895 823 q 665 869 764 869 q 514 837 584 869 q 399 750 445 804 q 328 627 353 696 q 302 481 302 557 q 329 332 302 403 q 406 208 357 261 q 529 123 456 155 q 690 92 603 92 q 908 133 795 92 l 943 47 q 661 -14 802 -14 q 498 12 574 -14 q 366 82 422 37 q 269 189 309 127 q 207 325 228 250 q 186 481 186 399 m 604 1057 l 430 1251 l 493 1310 l 612 1177 l 735 1310 l 795 1257 l 604 1057 z "},"č":{"ha":679,"x_min":88,"x_max":601,"o":"m 88 319 q 107 462 88 399 q 158 566 126 526 q 232 633 189 606 q 319 671 275 660 q 413 682 364 682 q 601 642 509 682 l 574 561 q 427 587 498 587 q 360 580 391 587 q 298 557 329 574 q 245 513 267 540 q 210 443 223 486 q 196 343 196 399 q 210 234 196 281 q 248 158 224 187 q 303 111 271 129 q 368 85 335 92 q 439 78 401 78 q 566 100 503 78 l 593 24 q 400 -14 497 -14 q 314 -5 355 -14 q 231 27 273 4 q 158 87 189 51 q 107 183 127 123 q 88 319 88 243 m 367 762 l 193 956 l 256 1016 l 375 883 l 498 1015 l 558 964 l 367 762 z "},"Ď":{"ha":1088,"x_min":197,"x_max":981,"o":"m 496 964 q 645 949 576 964 q 762 910 713 935 q 849 851 811 886 q 912 777 888 816 q 952 692 937 738 q 974 602 968 646 q 981 511 981 558 q 971 390 981 448 q 938 271 962 332 q 879 163 915 211 q 785 77 842 115 q 654 20 727 39 q 569 6 616 11 q 492 1 522 1 q 406 0 461 0 l 197 0 l 197 964 l 496 964 m 312 862 l 312 102 l 452 102 q 503 102 483 102 q 557 106 523 103 q 616 117 591 110 q 672 136 641 123 q 728 168 704 149 q 777 214 753 186 q 820 279 802 243 q 865 488 865 365 q 840 643 865 574 q 774 754 815 711 q 687 823 733 798 q 589 857 640 848 q 499 862 559 862 l 312 862 m 572 1057 l 399 1251 l 462 1310 l 581 1177 l 704 1310 l 764 1257 l 572 1057 z "},"ď":{"ha":966,"x_min":88,"x_max":932,"o":"m 820 1025 l 932 1025 l 852 760 l 740 760 l 820 1025 m 88 323 q 113 479 88 410 q 180 593 137 549 q 280 660 222 637 q 404 684 337 684 q 566 648 484 684 l 566 1025 l 677 1025 l 677 0 l 600 0 l 581 42 q 385 -14 487 -14 q 302 -3 342 -14 q 223 32 262 7 q 154 95 184 57 q 106 191 125 132 q 88 323 88 250 m 421 78 q 566 116 495 78 l 566 564 q 420 596 493 596 q 359 589 389 596 q 300 565 330 583 q 247 519 269 547 q 211 446 225 492 q 197 341 197 400 q 212 232 197 280 q 250 156 227 184 q 304 109 273 127 q 363 84 335 91 q 421 78 392 78 z "},"Đ":{"ha":1088,"x_min":79,"x_max":1011,"o":"m 526 964 q 675 949 607 964 q 792 910 743 935 q 880 851 842 886 q 943 777 918 816 q 983 692 967 738 q 1005 602 998 646 q 1011 511 1011 558 q 1002 390 1011 448 q 969 271 992 332 q 909 163 945 211 q 815 77 873 115 q 684 20 758 39 q 600 6 646 11 q 522 1 553 1 q 436 0 492 0 l 227 0 l 227 446 l 79 446 l 79 548 l 227 548 l 227 964 l 526 964 m 342 446 l 342 102 l 483 102 q 533 102 513 102 q 588 106 553 103 q 647 117 622 110 q 703 136 671 123 q 759 168 734 149 q 808 214 783 186 q 850 279 832 243 q 895 488 895 365 q 870 643 895 574 q 805 754 846 711 q 717 823 764 798 q 620 857 671 848 q 530 862 590 862 l 342 862 l 342 548 l 516 548 l 516 446 l 342 446 z "},"đ":{"ha":840,"x_min":88,"x_max":768,"o":"m 420 596 q 359 589 389 596 q 300 565 330 583 q 247 519 269 547 q 211 446 225 492 q 197 341 197 400 q 212 232 197 280 q 250 156 227 184 q 304 109 273 127 q 363 84 335 91 q 421 78 392 78 q 566 116 495 78 l 566 564 q 420 596 493 596 m 404 684 q 566 648 484 684 l 566 798 l 384 798 l 384 886 l 566 886 l 566 1025 l 677 1025 l 677 886 l 768 886 l 768 798 l 677 798 l 677 0 l 600 0 l 581 42 q 385 -14 487 -14 q 302 -3 342 -14 q 223 32 262 7 q 154 95 184 57 q 106 191 125 132 q 88 323 88 250 q 113 479 88 410 q 180 593 137 549 q 280 660 222 637 q 404 684 337 684 z "},"Ē":{"ha":870,"x_min":197,"x_max":762,"o":"m 197 0 l 197 964 l 762 964 l 762 862 l 312 862 l 312 547 l 724 547 l 724 446 l 312 446 l 312 102 l 762 102 l 762 0 l 197 0 m 244 1151 l 741 1151 l 741 1063 l 244 1063 l 244 1151 z "},"ē":{"ha":747,"x_min":88,"x_max":659,"o":"m 88 313 q 106 451 88 389 q 156 556 125 513 q 229 627 187 598 q 316 670 271 656 q 410 683 362 683 q 498 671 459 683 q 563 641 537 659 q 607 593 589 623 q 636 536 626 564 q 651 470 646 509 q 658 403 656 431 q 659 336 659 374 l 659 283 l 199 283 q 215 210 199 246 q 262 143 232 174 q 341 94 292 113 q 450 75 391 75 q 603 100 521 75 l 623 24 q 408 -14 513 -14 q 277 6 334 -14 q 185 57 220 26 q 127 133 150 89 q 97 221 105 177 q 88 313 88 264 m 387 587 q 284 554 327 587 q 221 472 241 521 q 201 367 201 423 l 551 367 q 387 587 551 587 m 180 904 l 582 904 l 582 803 l 180 803 l 180 904 z "},"Ĕ":{"ha":870,"x_min":197,"x_max":762,"o":"m 680 1276 l 757 1224 q 618 1099 693 1140 q 468 1057 543 1057 q 320 1104 386 1057 q 225 1232 254 1151 l 309 1276 q 382 1184 337 1218 q 481 1149 427 1149 q 680 1276 585 1149 m 197 0 l 197 964 l 762 964 l 762 862 l 312 862 l 312 547 l 724 547 l 724 446 l 312 446 l 312 102 l 762 102 l 762 0 l 197 0 z "},"ĕ":{"ha":747,"x_min":88,"x_max":688,"o":"m 88 313 q 106 451 88 389 q 156 556 125 513 q 229 627 187 598 q 316 670 271 656 q 410 683 362 683 q 498 671 459 683 q 563 641 537 659 q 607 593 589 623 q 636 536 626 564 q 651 470 646 509 q 658 403 656 431 q 659 336 659 374 l 659 283 l 199 283 q 215 210 199 246 q 262 143 232 174 q 341 94 292 113 q 450 75 391 75 q 603 100 521 75 l 623 24 q 408 -14 513 -14 q 277 6 334 -14 q 185 57 220 26 q 127 133 150 89 q 97 221 105 177 q 88 313 88 264 m 387 587 q 284 554 327 587 q 221 472 241 521 q 201 367 201 423 l 551 367 q 387 587 551 587 m 157 937 l 241 982 q 309 893 265 931 q 412 855 352 855 q 519 892 467 855 q 612 982 572 929 l 688 930 q 558 809 634 857 q 401 762 481 762 q 248 813 312 762 q 157 937 184 865 z "},"Ė":{"ha":870,"x_min":197,"x_max":762,"o":"m 197 0 l 197 964 l 762 964 l 762 862 l 312 862 l 312 547 l 724 547 l 724 446 l 312 446 l 312 102 l 762 102 l 762 0 l 197 0 m 401 1240 l 544 1240 l 544 1098 l 401 1098 l 401 1240 z "},"ė":{"ha":747,"x_min":88,"x_max":659,"o":"m 88 313 q 106 451 88 389 q 156 556 125 513 q 229 627 187 598 q 316 670 271 656 q 410 683 362 683 q 498 671 459 683 q 563 641 537 659 q 607 593 589 623 q 636 536 626 564 q 651 470 646 509 q 658 403 656 431 q 659 336 659 374 l 659 283 l 199 283 q 215 210 199 246 q 262 143 232 174 q 341 94 292 113 q 450 75 391 75 q 603 100 521 75 l 623 24 q 408 -14 513 -14 q 277 6 334 -14 q 185 57 220 26 q 127 133 150 89 q 97 221 105 177 q 88 313 88 264 m 387 587 q 284 554 327 587 q 221 472 241 521 q 201 367 201 423 l 551 367 q 387 587 551 587 m 338 964 l 480 964 l 480 822 l 338 822 l 338 964 z "},"Ę":{"ha":870,"x_min":197,"x_max":762,"o":"m 197 964 l 762 964 l 762 862 l 312 862 l 312 547 l 724 547 l 724 446 l 312 446 l 312 102 l 762 102 l 762 19 q 718 -12 746 8 q 675 -42 689 -32 q 640 -68 662 -52 q 606 -95 617 -85 q 581 -121 595 -106 q 561 -148 567 -136 q 549 -176 554 -161 q 545 -206 545 -191 q 565 -258 545 -238 q 617 -278 585 -278 q 728 -238 665 -278 l 760 -299 q 585 -368 667 -368 q 485 -330 523 -368 q 447 -231 447 -292 q 461 -155 447 -191 q 500 -90 475 -119 q 549 -42 526 -61 q 604 0 572 -22 l 197 0 l 197 964 z "},"ę":{"ha":747,"x_min":88,"x_max":659,"o":"m 88 302 q 108 449 88 383 q 160 555 128 514 q 236 625 193 597 q 322 665 279 653 q 411 676 366 676 q 499 664 460 676 q 563 634 538 652 q 607 587 589 616 q 636 531 626 558 q 651 465 646 503 q 658 397 656 426 q 659 330 659 369 l 659 276 l 199 276 q 270 133 199 192 q 451 73 342 73 q 603 98 524 73 l 623 22 q 465 -82 528 -11 q 402 -213 402 -154 q 422 -267 402 -246 q 475 -287 442 -287 q 586 -249 516 -287 l 618 -305 q 441 -369 523 -369 q 342 -332 380 -369 q 305 -235 305 -295 q 340 -118 305 -175 q 426 -16 376 -61 q 177 63 267 -16 q 88 302 88 142 m 387 580 q 284 547 327 580 q 221 465 241 514 q 201 360 201 416 l 551 360 q 387 580 551 580 z "},"Ě":{"ha":870,"x_min":197,"x_max":762,"o":"m 197 0 l 197 964 l 762 964 l 762 862 l 312 862 l 312 547 l 724 547 l 724 446 l 312 446 l 312 102 l 762 102 l 762 0 l 197 0 m 471 1057 l 297 1251 l 359 1310 l 479 1177 l 602 1310 l 662 1257 l 471 1057 z "},"ě":{"ha":747,"x_min":88,"x_max":659,"o":"m 88 313 q 106 451 88 389 q 156 556 125 513 q 229 627 187 598 q 316 670 271 656 q 410 683 362 683 q 498 671 459 683 q 563 641 537 659 q 607 593 589 623 q 636 536 626 564 q 651 470 646 509 q 658 403 656 431 q 659 336 659 374 l 659 283 l 199 283 q 215 210 199 246 q 262 143 232 174 q 341 94 292 113 q 450 75 391 75 q 603 100 521 75 l 623 24 q 408 -14 513 -14 q 277 6 334 -14 q 185 57 220 26 q 127 133 150 89 q 97 221 105 177 q 88 313 88 264 m 387 587 q 284 554 327 587 q 221 472 241 521 q 201 367 201 423 l 551 367 q 387 587 551 587 m 409 762 l 235 956 l 298 1016 l 417 883 l 541 1015 l 600 964 l 409 762 z "},"Ĝ":{"ha":1079,"x_min":146,"x_max":977,"o":"m 146 481 q 177 664 146 576 q 267 820 209 751 q 418 930 326 889 q 623 971 510 971 q 933 889 786 971 l 888 803 q 768 850 836 830 q 629 869 699 869 q 492 843 558 869 q 374 769 426 817 q 292 648 323 721 q 261 488 261 575 q 312 282 261 374 q 452 140 363 191 q 652 89 542 89 q 865 168 783 89 l 865 414 l 591 414 l 591 509 l 977 509 l 977 130 q 935 90 959 109 q 868 44 911 70 q 762 2 825 18 q 625 -14 699 -14 q 448 15 529 -14 q 312 92 367 44 q 219 204 257 140 q 163 338 181 269 q 146 481 146 408 m 593 1310 l 766 1116 l 703 1057 l 585 1190 l 461 1057 l 401 1110 l 593 1310 z "},"ĝ":{"ha":798,"x_min":87,"x_max":675,"o":"m 418 78 q 564 117 492 78 l 564 555 q 405 593 471 593 q 253 526 311 593 q 195 346 195 458 q 219 212 195 271 q 294 115 243 152 q 418 78 346 78 m 398 684 q 583 630 478 684 l 597 670 l 675 670 l 675 -42 q 674 -81 675 -62 q 666 -135 673 -100 q 647 -198 659 -170 q 610 -259 635 -227 q 552 -315 585 -292 q 465 -352 518 -337 q 346 -367 412 -367 q 138 -323 242 -367 l 170 -243 q 332 -274 255 -274 q 371 -272 351 -274 q 416 -262 390 -269 q 465 -242 442 -256 q 508 -208 487 -228 q 542 -154 528 -187 q 561 -80 556 -121 q 564 8 564 -52 l 564 33 q 387 -14 477 -14 q 302 -2 344 -14 q 221 35 261 9 q 152 100 182 61 q 105 199 123 139 q 87 333 87 259 q 109 474 87 411 q 163 574 130 536 q 240 638 197 612 q 322 674 283 664 q 398 684 361 684 m 414 1016 l 587 822 l 524 762 l 405 895 l 282 763 l 222 816 l 414 1016 z "},"Ğ":{"ha":1079,"x_min":146,"x_max":977,"o":"m 344 1232 l 427 1276 q 495 1187 452 1225 q 599 1149 539 1149 q 706 1186 654 1149 q 799 1276 759 1223 l 875 1224 q 745 1104 821 1152 q 588 1056 669 1056 q 435 1108 499 1056 q 344 1232 370 1160 m 623 971 q 933 889 786 971 l 888 803 q 768 850 836 830 q 629 869 699 869 q 492 843 558 869 q 374 769 426 817 q 292 648 323 721 q 261 488 261 575 q 312 282 261 374 q 452 140 363 191 q 652 89 542 89 q 865 168 783 89 l 865 414 l 591 414 l 591 509 l 977 509 l 977 130 q 935 90 959 109 q 868 44 911 70 q 762 2 825 18 q 625 -14 699 -14 q 452 14 532 -14 q 317 87 373 41 q 223 196 262 134 q 165 328 184 258 q 146 473 146 398 q 165 620 146 548 q 224 755 184 692 q 319 867 264 819 q 453 943 375 915 q 623 971 532 971 z "},"ğ":{"ha":798,"x_min":87,"x_max":696,"o":"m 165 937 l 248 982 q 316 893 273 931 q 419 855 359 855 q 527 892 474 855 q 620 982 580 929 l 696 930 q 565 809 642 857 q 408 762 489 762 q 255 813 319 762 q 165 937 191 865 m 418 78 q 564 117 492 78 l 564 555 q 405 593 471 593 q 253 526 311 593 q 195 346 195 458 q 219 212 195 271 q 294 115 243 152 q 418 78 346 78 m 346 -367 q 138 -323 242 -367 l 170 -243 q 332 -274 255 -274 q 371 -272 351 -274 q 416 -262 390 -269 q 465 -242 442 -256 q 508 -208 487 -228 q 542 -154 528 -187 q 561 -80 556 -121 q 564 8 564 -52 l 564 33 q 387 -14 477 -14 q 302 -2 344 -14 q 221 35 261 9 q 152 100 182 61 q 105 199 123 139 q 87 333 87 259 q 109 474 87 411 q 163 574 130 536 q 240 638 197 612 q 322 674 283 664 q 398 684 361 684 q 583 630 478 684 l 597 670 l 675 670 l 675 -33 q 655 -170 675 -110 q 604 -266 635 -230 q 527 -326 572 -302 q 439 -358 483 -349 q 346 -367 395 -367 z "},"Ġ":{"ha":1079,"x_min":146,"x_max":977,"o":"m 541 1240 l 683 1240 l 683 1098 l 541 1098 l 541 1240 m 146 481 q 177 664 146 576 q 267 820 209 751 q 418 930 326 889 q 623 971 510 971 q 933 889 786 971 l 888 803 q 768 850 836 830 q 629 869 699 869 q 492 843 558 869 q 374 769 426 817 q 292 648 323 721 q 261 488 261 575 q 312 282 261 374 q 452 140 363 191 q 652 89 542 89 q 865 168 783 89 l 865 414 l 591 414 l 591 509 l 977 509 l 977 130 q 935 90 959 109 q 868 44 911 70 q 762 2 825 18 q 625 -14 699 -14 q 448 15 529 -14 q 312 92 367 44 q 219 204 257 140 q 163 338 181 269 q 146 481 146 408 z "},"ġ":{"ha":798,"x_min":87,"x_max":675,"o":"m 398 684 q 583 630 478 684 l 597 670 l 675 670 l 675 -42 q 674 -81 675 -62 q 666 -135 673 -100 q 647 -198 659 -170 q 610 -259 635 -227 q 552 -315 585 -292 q 465 -352 518 -337 q 346 -367 412 -367 q 138 -323 242 -367 l 170 -243 q 332 -274 253 -274 q 371 -272 351 -274 q 416 -262 390 -269 q 465 -242 442 -256 q 508 -208 487 -228 q 542 -154 528 -187 q 561 -80 556 -121 q 564 8 564 -52 l 564 33 q 387 -14 477 -14 q 302 -2 344 -14 q 221 35 261 9 q 152 100 182 61 q 105 199 123 139 q 87 333 87 259 q 109 474 87 411 q 163 574 130 536 q 240 638 197 612 q 322 674 283 664 q 398 684 361 684 m 418 78 q 564 117 492 78 l 564 555 q 405 593 471 593 q 253 526 311 593 q 195 346 195 458 q 219 212 195 271 q 294 115 243 152 q 418 78 346 78 m 327 964 l 469 964 l 469 822 l 327 822 l 327 964 z "},"Ģ":{"ha":1079,"x_min":146,"x_max":977,"o":"m 146 481 q 165 628 146 557 q 224 762 184 700 q 320 871 264 825 q 454 944 376 918 q 623 971 532 971 q 933 889 786 971 l 888 803 q 768 850 836 830 q 629 869 699 869 q 492 843 558 869 q 374 769 426 817 q 292 648 323 721 q 261 488 261 575 q 312 282 261 374 q 452 140 363 191 q 652 89 542 89 q 865 168 783 89 l 865 414 l 591 414 l 591 509 l 977 509 l 977 130 q 935 90 959 109 q 868 44 911 70 q 762 2 825 18 q 625 -14 699 -14 q 448 15 529 -14 q 312 92 367 44 q 219 204 257 140 q 163 338 181 269 q 146 481 146 408 m 601 -96 l 723 -96 l 616 -360 l 494 -360 l 601 -96 z "},"ģ":{"ha":798,"x_min":87,"x_max":675,"o":"m 398 682 q 583 629 478 682 l 597 670 l 675 670 l 675 -43 q 674 -83 675 -64 q 666 -136 673 -102 q 647 -199 659 -171 q 610 -261 635 -228 q 552 -316 585 -294 q 465 -353 518 -338 q 346 -368 412 -368 q 138 -325 242 -368 l 170 -244 q 332 -275 253 -275 q 371 -273 351 -275 q 416 -264 390 -271 q 465 -243 442 -257 q 508 -209 487 -229 q 542 -156 528 -189 q 561 -81 556 -123 q 564 7 564 -54 l 564 31 q 387 -14 479 -14 q 302 -3 344 -14 q 221 34 261 8 q 152 99 182 60 q 105 198 123 138 q 87 332 87 258 q 109 472 87 410 q 163 573 130 535 q 240 637 197 611 q 322 672 283 663 q 398 682 361 682 m 418 77 q 564 115 492 77 l 564 554 q 405 592 471 592 q 253 524 311 592 q 195 345 195 456 q 219 210 195 270 q 294 114 243 151 q 418 77 346 77 m 410 1049 l 532 1049 l 425 785 l 303 785 l 410 1049 z "},"Ĥ":{"ha":1085,"x_min":197,"x_max":943,"o":"m 827 964 l 943 964 l 943 0 l 827 0 l 827 446 l 312 446 l 312 0 l 197 0 l 197 964 l 312 964 l 312 548 l 827 548 l 827 964 m 565 1314 l 739 1120 l 675 1060 l 556 1193 l 433 1061 l 374 1114 l 565 1314 z "},"ĥ":{"ha":808,"x_min":129,"x_max":686,"o":"m 419 583 q 240 531 340 583 l 240 0 l 129 0 l 129 1025 l 240 1025 l 240 619 q 463 682 359 682 q 543 671 507 682 q 602 642 578 659 q 641 597 625 625 q 666 546 658 570 q 679 488 675 522 q 685 434 684 455 q 686 385 686 413 l 686 0 l 572 0 l 572 405 q 419 583 572 583 m 404 1314 l 577 1120 l 514 1060 l 395 1193 l 272 1061 l 212 1114 l 404 1314 z "},"Ħ":{"ha":1085,"x_min":95,"x_max":1044,"o":"m 827 964 l 943 964 l 943 862 l 1044 862 l 1044 768 l 943 768 l 943 0 l 827 0 l 827 446 l 312 446 l 312 0 l 197 0 l 197 768 l 95 768 l 95 862 l 197 862 l 197 964 l 312 964 l 312 862 l 827 862 l 827 964 m 827 768 l 312 768 l 312 548 l 827 548 l 827 768 z "},"ħ":{"ha":808,"x_min":37,"x_max":686,"o":"m 129 1025 l 240 1025 l 240 886 l 459 886 l 459 798 l 240 798 l 240 619 q 463 682 359 682 q 572 660 527 682 q 642 598 618 638 q 675 510 665 557 q 686 402 686 463 l 686 0 l 572 0 l 572 408 q 419 583 572 583 q 240 531 340 583 l 240 0 l 129 0 l 129 798 l 37 798 l 37 886 l 129 886 l 129 1025 z "},"Ĩ":{"ha":495,"x_min":57,"x_max":492,"o":"m 217 964 l 332 964 l 332 0 l 217 0 l 217 964 m 127 1074 l 57 1093 l 75 1160 q 129 1246 92 1221 q 196 1265 157 1265 q 240 1255 220 1265 q 267 1236 260 1244 q 283 1215 273 1228 l 315 1172 q 361 1137 342 1137 q 381 1145 372 1137 q 394 1167 389 1154 q 400 1186 399 1180 q 404 1198 402 1192 l 422 1264 l 492 1244 l 475 1179 q 351 1051 441 1051 q 269 1100 304 1051 q 267 1103 267 1102 l 234 1146 q 182 1183 208 1183 q 146 1141 157 1183 l 127 1074 z "},"ĩ":{"ha":355,"x_min":-40,"x_max":395,"o":"m 31 779 l -40 798 l -22 865 q 32 951 -5 926 q 99 970 60 970 q 143 960 123 970 q 170 941 163 949 q 186 920 176 933 l 218 877 q 264 842 245 842 q 284 850 275 842 q 297 872 292 859 q 303 891 302 885 q 307 903 305 897 l 325 968 l 395 949 l 378 884 q 254 756 345 756 q 172 805 207 756 q 170 808 170 807 l 137 851 q 85 888 111 888 q 49 846 60 888 l 31 779 m 122 670 l 233 670 l 233 -1 l 122 -1 l 122 670 z "},"Ī":{"ha":495,"x_min":136,"x_max":414,"o":"m 136 1151 l 414 1151 l 414 1063 l 136 1063 l 136 1151 m 217 964 l 332 964 l 332 0 l 217 0 l 217 964 z "},"ī":{"ha":355,"x_min":54,"x_max":301,"o":"m 122 670 l 233 670 l 233 0 l 122 0 l 122 670 m 54 904 l 301 904 l 301 817 l 54 817 l 54 904 z "},"Ĭ":{"ha":495,"x_min":56,"x_max":492,"o":"m 56 1226 l 140 1271 q 196 1187 160 1217 q 272 1156 232 1156 q 352 1186 315 1156 q 429 1270 389 1216 l 492 1217 q 386 1100 450 1144 q 251 1056 321 1056 q 176 1071 210 1056 q 119 1113 142 1086 q 81 1166 96 1139 q 56 1226 66 1194 m 217 964 l 332 964 l 332 0 l 217 0 l 217 964 z "},"ĭ":{"ha":355,"x_min":-31,"x_max":405,"o":"m 122 670 l 233 670 l 233 0 l 122 0 l 122 670 m -31 928 l 52 973 q 109 889 73 920 q 184 859 144 859 q 265 888 228 859 q 342 972 302 918 l 405 920 q 298 802 362 846 q 163 758 234 758 q 89 773 123 758 q 32 815 55 789 q -6 869 9 841 q -31 928 -21 897 z "},"Į":{"ha":495,"x_min":20,"x_max":334,"o":"m 20 -230 q 77 -82 20 -154 q 217 33 133 -10 l 217 964 l 332 964 l 332 20 q 223 -49 269 -14 q 157 -113 178 -84 q 127 -164 136 -142 q 119 -205 119 -186 q 139 -258 119 -237 q 192 -279 159 -279 q 302 -239 233 -279 l 334 -300 q 158 -369 238 -369 q 59 -330 98 -369 q 20 -230 20 -292 z "},"į":{"ha":355,"x_min":-83,"x_max":243,"o":"m -83 -234 q -23 -71 -83 -151 q 122 55 37 9 l 122 670 l 233 670 l 233 15 q 79 -83 143 -18 q 14 -211 14 -149 q 35 -265 14 -244 q 87 -286 55 -286 q 197 -246 127 -286 l 230 -306 q 54 -376 135 -376 q -45 -337 -7 -376 q -83 -234 -83 -297 m 112 964 l 243 964 l 243 836 l 112 836 l 112 964 z "},"İ":{"ha":495,"x_min":202,"x_max":345,"o":"m 202 1240 l 345 1240 l 345 1098 l 202 1098 l 202 1240 m 217 964 l 332 964 l 332 0 l 217 0 l 217 964 z "},"ı":{"ha":355,"x_min":122,"x_max":233,"o":"m 122 670 l 233 670 l 233 0 l 122 0 l 122 670 z "},"Ĳ":{"ha":1141,"x_min":217,"x_max":999,"o":"m 884 964 l 999 964 l 999 289 q 985 163 999 214 q 932 72 972 113 q 703 -12 853 -12 q 570 5 635 -12 l 588 101 q 684 90 633 90 q 758 99 725 90 q 811 119 790 107 q 846 150 831 131 q 868 185 861 170 q 879 222 875 200 q 883 255 883 244 q 884 283 884 266 l 884 964 m 217 964 l 332 964 l 332 0 l 217 0 l 217 964 z "},"ĳ":{"ha":711,"x_min":112,"x_max":599,"o":"m 475 670 l 586 670 l 586 -93 q 586 -129 586 -115 q 582 -167 585 -142 q 572 -210 578 -193 q 552 -252 566 -228 q 521 -294 539 -276 q 474 -330 503 -312 q 408 -362 445 -349 l 366 -278 q 475 -106 475 -227 l 475 670 m 467 964 l 599 964 l 599 836 l 467 836 l 467 964 m 122 670 l 233 670 l 233 0 l 122 0 l 122 670 m 112 964 l 243 964 l 243 836 l 112 836 l 112 964 z "},"Ĵ":{"ha":646,"x_min":75,"x_max":624,"o":"m 450 1310 l 624 1116 l 561 1057 l 441 1190 l 319 1057 l 259 1110 l 450 1310 m 389 964 l 504 964 l 504 289 q 490 163 504 214 q 437 72 477 113 q 208 -12 358 -12 q 75 5 140 -12 l 93 101 q 189 90 138 90 q 262 99 230 90 q 316 119 295 107 q 351 150 336 131 q 373 185 366 170 q 384 222 380 200 q 388 255 388 244 q 389 283 389 266 l 389 964 z "},"ĵ":{"ha":355,"x_min":12,"x_max":335,"o":"m 182 1010 l 335 817 l 272 757 l 173 883 l 71 758 l 12 810 l 182 1010 m 122 670 l 233 670 l 233 -93 q 233 -129 233 -115 q 229 -167 232 -142 q 219 -210 225 -192 q 199 -252 212 -229 q 167 -294 186 -276 q 120 -330 149 -312 q 54 -362 91 -349 l 12 -278 q 122 -104 122 -226 l 122 670 z "},"Ķ":{"ha":961,"x_min":197,"x_max":907,"o":"m 439 -83 l 562 -83 l 454 -347 l 332 -347 l 439 -83 m 736 964 l 881 964 l 473 504 l 907 0 l 758 0 l 328 494 l 736 964 m 197 964 l 312 964 l 312 0 l 197 0 l 197 964 z "},"ķ":{"ha":728,"x_min":122,"x_max":680,"o":"m 321 -83 l 443 -83 l 336 -347 l 214 -347 l 321 -83 m 540 684 l 663 684 l 371 382 l 680 0 l 547 0 l 244 370 l 540 684 m 122 1025 l 233 1025 l 233 0 l 122 0 l 122 1025 z "},"ĸ":{"ha":727,"x_min":122,"x_max":680,"o":"m 122 670 l 233 670 l 233 0 l 122 0 l 122 670 m 528 670 l 644 670 l 370 357 l 680 0 l 543 0 l 244 343 l 528 670 z "},"Ĺ":{"ha":768,"x_min":192,"x_max":745,"o":"m 197 964 l 312 964 l 312 101 l 745 101 l 745 0 l 197 0 l 197 964 m 534 1340 l 581 1257 l 234 1057 l 192 1130 l 534 1340 z "},"ĺ":{"ha":382,"x_min":109,"x_max":498,"o":"m 136 1025 l 247 1025 l 247 0 l 136 0 l 136 1025 m 450 1391 l 498 1308 l 151 1107 l 109 1181 l 450 1391 z "},"Ļ":{"ha":768,"x_min":195,"x_max":745,"o":"m 197 964 l 312 964 l 312 101 l 745 101 l 745 0 l 197 0 l 197 964 m 302 -83 l 425 -83 l 317 -347 l 195 -347 l 302 -83 z "},"ļ":{"ha":382,"x_min":47,"x_max":277,"o":"m 136 1025 l 247 1025 l 247 0 l 136 0 l 136 1025 m 155 -83 l 277 -83 l 170 -347 l 47 -347 l 155 -83 z "},"Ľ":{"ha":768,"x_min":197,"x_max":745,"o":"m 197 964 l 312 964 l 312 101 l 745 101 l 745 0 l 197 0 l 197 964 m 566 964 l 688 964 l 581 699 l 458 699 l 566 964 z "},"ľ":{"ha":546,"x_min":136,"x_max":512,"o":"m 136 1025 l 247 1025 l 247 0 l 136 0 l 136 1025 m 400 1025 l 512 1025 l 432 760 l 320 760 l 400 1025 z "},"Ŀ":{"ha":768,"x_min":197,"x_max":745,"o":"m 197 964 l 312 964 l 312 101 l 745 101 l 745 0 l 197 0 l 197 964 m 460 558 l 603 558 l 603 416 l 460 416 l 460 558 z "},"ŀ":{"ha":559,"x_min":136,"x_max":505,"o":"m 136 1025 l 247 1025 l 247 0 l 136 0 l 136 1025 m 362 568 l 505 568 l 505 426 l 362 426 l 362 568 z "},"Ł":{"ha":768,"x_min":99,"x_max":745,"o":"m 197 964 l 312 964 l 312 560 l 488 662 l 488 545 l 312 444 l 312 101 l 745 101 l 745 0 l 197 0 l 197 376 l 99 320 l 99 437 l 197 493 l 197 964 z "},"ł":{"ha":466,"x_min":61,"x_max":412,"o":"m 156 1025 l 267 1025 l 267 575 l 412 659 l 412 557 l 267 473 l 267 0 l 156 0 l 156 410 l 61 355 l 61 456 l 156 511 l 156 1025 z "},"Ń":{"ha":1125,"x_min":197,"x_max":983,"o":"m 197 964 l 342 964 l 867 157 l 867 964 l 983 964 l 983 0 l 837 0 l 312 808 l 312 0 l 197 0 l 197 964 m 741 1340 l 788 1257 l 441 1057 l 399 1130 l 741 1340 z "},"ń":{"ha":798,"x_min":122,"x_max":676,"o":"m 122 670 l 200 670 l 224 613 q 460 684 354 684 q 556 666 515 684 q 619 623 597 649 q 655 557 642 597 q 672 481 669 517 q 676 399 676 446 l 676 0 l 564 0 l 564 407 q 412 583 564 583 q 233 531 334 583 l 233 0 l 122 0 l 122 670 m 578 1048 l 626 964 l 279 765 l 237 838 l 578 1048 z "},"Ņ":{"ha":1125,"x_min":197,"x_max":983,"o":"m 516 -83 l 638 -83 l 531 -347 l 409 -347 l 516 -83 m 197 964 l 342 964 l 867 157 l 867 964 l 983 964 l 983 0 l 837 0 l 312 808 l 312 0 l 197 0 l 197 964 z "},"ņ":{"ha":798,"x_min":122,"x_max":676,"o":"m 122 670 l 200 670 l 224 613 q 460 684 354 684 q 556 666 515 684 q 619 623 597 649 q 655 557 642 597 q 672 481 669 517 q 676 399 676 446 l 676 0 l 564 0 l 564 407 q 412 583 564 583 q 233 531 334 583 l 233 0 l 122 0 l 122 670 m 339 -83 l 461 -83 l 354 -347 l 232 -347 l 339 -83 z "},"Ň":{"ha":1125,"x_min":197,"x_max":983,"o":"m 197 964 l 342 964 l 867 157 l 867 964 l 983 964 l 983 0 l 837 0 l 312 808 l 312 0 l 197 0 l 197 964 m 614 1057 l 441 1251 l 505 1310 l 623 1177 l 746 1310 l 806 1257 l 614 1057 z "},"ň":{"ha":798,"x_min":122,"x_max":676,"o":"m 122 670 l 200 670 l 224 613 q 460 684 354 684 q 556 666 515 684 q 619 623 597 649 q 655 557 642 597 q 672 481 669 517 q 676 399 676 446 l 676 0 l 564 0 l 564 407 q 412 583 564 583 q 233 531 334 583 l 233 0 l 122 0 l 122 670 m 406 765 l 232 959 l 295 1019 l 414 886 l 537 1018 l 597 964 l 406 765 z "},"ŉ":{"ha":913,"x_min":95,"x_max":791,"o":"m 237 670 l 315 670 l 340 613 q 576 684 469 684 q 671 666 631 684 q 734 623 712 649 q 770 557 757 597 q 788 481 784 517 q 791 399 791 446 l 791 0 l 680 0 l 680 407 q 528 583 680 583 q 349 531 449 583 l 349 0 l 237 0 l 237 670 m 95 964 l 197 964 l 197 670 l 95 670 l 95 964 z "},"Ŋ":{"ha":1118,"x_min":197,"x_max":975,"o":"m 975 -24 q 962 -116 975 -75 q 928 -180 949 -156 q 878 -220 907 -205 q 820 -242 849 -236 q 758 -248 791 -248 q 604 -224 694 -248 l 621 -141 q 726 -155 690 -155 q 814 -129 780 -155 q 857 -57 848 -103 q 860 -7 860 -41 l 860 581 q 860 623 860 607 q 856 668 859 639 q 848 718 853 698 q 831 765 842 739 q 805 811 821 792 q 766 848 790 830 q 711 877 742 866 q 621 891 671 891 q 312 799 506 891 l 312 0 l 197 0 l 197 964 l 272 964 l 302 901 q 667 1006 534 1006 q 876 931 798 1006 q 970 736 955 857 q 975 618 975 697 l 975 -24 z "},"ŋ":{"ha":798,"x_min":122,"x_max":675,"o":"m 412 583 q 233 531 333 583 l 233 0 l 122 0 l 122 670 l 200 670 l 224 614 q 457 683 350 683 q 675 410 675 683 l 675 -11 q 667 -99 675 -61 q 638 -169 659 -137 q 581 -218 618 -201 q 489 -235 543 -235 q 336 -210 434 -235 l 353 -127 q 456 -142 437 -142 q 564 -11 564 -142 l 564 407 q 412 583 564 583 z "},"Ō":{"ha":1143,"x_min":146,"x_max":1052,"o":"m 933 481 q 913 626 933 560 q 860 738 893 692 q 782 813 827 783 q 689 859 737 844 q 591 873 642 873 q 498 859 544 873 q 410 815 452 845 q 335 741 367 785 q 284 634 303 698 q 264 494 264 570 q 291 327 264 404 q 363 199 317 251 q 470 119 408 148 q 604 91 532 91 q 698 105 652 91 q 787 150 745 119 q 862 226 830 181 q 914 336 895 271 q 933 481 933 402 m 600 974 q 778 940 695 974 q 922 846 861 907 q 1017 693 983 785 q 1052 493 1052 602 q 993 230 1052 345 q 830 53 935 115 q 595 -10 726 -10 q 429 21 508 -10 q 286 111 349 52 q 184 265 222 170 q 146 479 146 360 q 180 684 146 591 q 275 841 215 777 q 419 939 336 904 q 600 974 503 974 m 361 1151 l 863 1151 l 863 1063 l 361 1063 l 361 1151 z "},"ō":{"ha":821,"x_min":88,"x_max":733,"o":"m 414 683 q 643 594 553 683 q 733 349 733 505 q 641 84 733 182 q 404 -14 549 -14 q 176 78 264 -14 q 88 328 88 170 q 178 586 88 490 q 414 683 268 683 m 405 588 q 259 524 321 588 q 197 347 197 459 q 258 158 197 235 q 416 81 319 81 q 565 149 505 81 q 625 326 625 217 q 605 439 625 389 q 554 522 586 490 q 484 571 523 554 q 405 588 446 588 m 170 904 l 672 904 l 672 817 l 170 817 l 170 904 z "},"Ŏ":{"ha":1143,"x_min":146,"x_max":1052,"o":"m 355 1232 l 438 1276 q 506 1187 463 1225 q 609 1149 549 1149 q 716 1186 664 1149 q 809 1276 769 1223 l 886 1224 q 755 1104 831 1152 q 598 1056 679 1056 q 445 1108 509 1056 q 355 1232 381 1160 m 933 481 q 913 626 933 560 q 860 738 893 692 q 782 813 827 783 q 689 859 737 844 q 591 873 642 873 q 498 859 544 873 q 410 815 452 845 q 335 741 367 785 q 284 634 303 698 q 264 494 264 570 q 291 327 264 404 q 363 199 317 251 q 470 119 408 148 q 604 91 532 91 q 698 105 652 91 q 787 150 745 119 q 862 226 830 181 q 914 336 895 271 q 933 481 933 402 m 600 974 q 778 940 695 974 q 922 846 861 907 q 1017 693 983 785 q 1052 493 1052 602 q 993 230 1052 345 q 830 53 935 115 q 595 -10 726 -10 q 429 21 508 -10 q 286 111 349 52 q 184 265 222 170 q 146 479 146 360 q 180 684 146 591 q 275 841 215 777 q 419 939 336 904 q 600 974 503 974 z "},"ŏ":{"ha":821,"x_min":88,"x_max":733,"o":"m 181 937 l 264 982 q 332 893 289 931 q 435 855 376 855 q 543 892 490 855 q 636 982 596 929 l 712 930 q 582 809 658 857 q 425 762 505 762 q 272 813 336 762 q 181 937 208 865 m 405 588 q 259 524 321 588 q 197 347 197 459 q 258 158 197 235 q 416 81 319 81 q 565 149 505 81 q 625 326 625 217 q 605 439 625 389 q 554 522 586 490 q 484 571 523 554 q 405 588 446 588 m 414 683 q 643 594 553 683 q 733 349 733 505 q 641 84 733 182 q 404 -14 549 -14 q 176 78 264 -14 q 88 328 88 170 q 178 586 88 490 q 414 683 268 683 z "},"Ő":{"ha":1143,"x_min":146,"x_max":1052,"o":"m 979 1352 l 1034 1274 l 706 1044 l 657 1113 l 979 1352 m 627 1352 l 682 1274 l 353 1044 l 304 1113 l 627 1352 m 933 481 q 913 626 933 560 q 860 738 893 692 q 782 813 827 783 q 689 859 737 844 q 591 873 642 873 q 498 859 544 873 q 410 815 452 845 q 335 741 367 785 q 284 634 303 698 q 264 494 264 570 q 291 327 264 404 q 363 199 317 251 q 470 119 408 148 q 604 91 532 91 q 698 105 652 91 q 787 150 745 119 q 862 226 830 181 q 914 336 895 271 q 933 481 933 402 m 600 974 q 778 940 695 974 q 922 846 861 907 q 1017 693 983 785 q 1052 493 1052 602 q 993 230 1052 345 q 830 53 935 115 q 595 -10 726 -10 q 429 21 508 -10 q 286 111 349 52 q 184 265 222 170 q 146 479 146 360 q 180 684 146 591 q 275 841 215 777 q 419 939 336 904 q 600 974 503 974 z "},"ő":{"ha":821,"x_min":88,"x_max":787,"o":"m 414 683 q 643 594 553 683 q 733 349 733 505 q 641 84 733 182 q 404 -14 549 -14 q 176 78 264 -14 q 88 328 88 170 q 178 586 88 490 q 414 683 268 683 m 405 588 q 259 524 321 588 q 197 347 197 459 q 258 158 197 235 q 416 81 319 81 q 565 149 505 81 q 625 326 625 217 q 605 439 625 389 q 554 522 586 490 q 484 571 523 554 q 405 588 446 588 m 725 1050 l 787 977 l 532 763 l 478 831 l 725 1050 m 427 1050 l 490 977 l 235 763 l 180 831 l 427 1050 z "},"Œ":{"ha":1355,"x_min":146,"x_max":1246,"o":"m 712 862 l 673 862 q 546 855 588 862 q 336 733 411 834 q 261 475 261 633 q 278 343 261 403 q 326 243 296 283 q 386 177 355 203 q 451 135 416 152 q 532 108 493 114 q 627 102 572 102 l 712 102 l 712 862 m 265 830 q 346 893 300 867 q 432 932 391 919 q 529 953 473 946 q 624 962 585 960 q 720 964 663 964 l 1246 964 l 1246 862 l 827 862 l 827 547 l 1209 547 l 1209 446 l 827 446 l 827 102 l 1246 102 l 1246 0 l 660 0 q 513 8 577 0 q 393 39 450 16 q 212 198 277 88 q 146 477 146 308 q 265 830 146 705 z "},"œ":{"ha":1223,"x_min":88,"x_max":1135,"o":"m 591 321 q 573 441 591 389 q 526 523 555 493 q 463 569 497 553 q 391 585 429 585 q 251 515 304 585 q 197 340 197 446 q 254 155 197 231 q 403 80 312 80 q 537 144 483 80 q 591 321 591 208 m 873 580 q 775 547 817 580 q 715 466 734 515 q 696 360 696 417 l 1028 360 q 873 580 1028 580 m 896 676 q 980 664 943 676 q 1042 633 1018 652 q 1085 585 1067 615 q 1112 528 1103 555 q 1127 461 1122 500 q 1133 394 1132 422 q 1135 328 1135 366 l 1135 276 l 693 276 q 708 207 693 241 q 752 141 723 172 q 828 92 781 111 q 936 73 876 73 q 1078 98 996 73 l 1096 22 q 892 -16 996 -16 q 635 109 713 -16 q 532 18 595 50 q 391 -14 469 -14 q 171 79 254 -14 q 88 330 88 172 q 174 585 88 490 q 403 680 260 680 q 551 645 488 680 q 651 546 614 610 q 713 615 677 587 q 784 655 748 643 q 845 672 819 667 q 896 676 871 676 z "},"Ŕ":{"ha":975,"x_min":197,"x_max":889,"o":"m 833 699 q 821 608 833 651 q 785 525 810 564 q 718 457 761 486 q 617 414 675 428 l 889 0 l 760 0 l 499 402 q 477 402 492 402 q 455 401 463 401 l 313 401 l 313 0 l 197 0 l 197 964 l 551 964 q 672 950 621 964 q 766 892 724 937 q 833 699 833 821 m 313 503 l 479 503 q 618 523 564 503 q 701 605 673 543 q 718 686 718 641 q 685 794 718 746 q 583 856 652 842 q 488 863 552 863 l 313 863 l 313 503 m 633 1340 l 681 1257 l 334 1057 l 292 1130 l 633 1340 z "},"ŕ":{"ha":543,"x_min":122,"x_max":536,"o":"m 221 620 q 408 683 306 683 q 536 656 477 683 l 503 568 q 394 588 450 588 l 393 588 q 233 541 308 588 l 233 0 l 122 0 l 122 670 l 200 670 l 221 620 m 411 1050 l 473 977 l 218 763 l 164 831 l 411 1050 z "},"Ŗ":{"ha":975,"x_min":197,"x_max":889,"o":"m 315 -83 l 437 -83 l 330 -347 l 208 -347 l 315 -83 m 313 503 l 479 503 q 618 523 564 503 q 701 605 673 543 q 718 686 718 641 q 685 794 718 746 q 583 856 652 842 q 488 863 552 863 l 313 863 l 313 503 m 833 699 q 821 608 833 651 q 785 525 810 564 q 718 457 761 486 q 617 414 675 428 l 889 0 l 760 0 l 499 402 q 477 402 492 402 q 455 401 463 401 l 313 401 l 313 0 l 197 0 l 197 964 l 551 964 q 672 950 621 964 q 766 892 724 937 q 833 699 833 821 z "},"ŗ":{"ha":543,"x_min":18,"x_max":536,"o":"m 221 620 q 408 683 306 683 q 536 656 477 683 l 503 568 q 394 588 450 588 l 393 588 q 233 541 308 588 l 233 0 l 122 0 l 122 670 l 200 670 l 221 620 m 125 -83 l 247 -83 l 140 -347 l 18 -347 l 125 -83 z "},"Ř":{"ha":975,"x_min":197,"x_max":889,"o":"m 833 699 q 821 608 833 651 q 785 525 810 564 q 718 457 761 486 q 617 414 675 428 l 889 0 l 760 0 l 499 402 q 477 402 492 402 q 455 401 463 401 l 313 401 l 313 0 l 197 0 l 197 964 l 551 964 q 672 950 621 964 q 766 892 724 937 q 833 699 833 821 m 313 503 l 479 503 q 618 523 564 503 q 701 605 673 543 q 718 686 718 641 q 685 794 718 746 q 583 856 652 842 q 488 863 552 863 l 313 863 l 313 503 m 474 1057 l 300 1251 l 363 1310 l 483 1177 l 606 1310 l 665 1257 l 474 1057 z "},"ř":{"ha":543,"x_min":122,"x_max":536,"o":"m 221 620 q 408 683 306 683 q 536 656 477 683 l 503 568 q 394 588 450 588 l 393 588 q 233 541 308 588 l 233 0 l 122 0 l 122 670 l 200 670 l 221 620 m 334 762 l 160 956 l 224 1016 l 342 883 l 465 1015 l 525 964 l 334 762 z "},"Ś":{"ha":923,"x_min":163,"x_max":828,"o":"m 633 1340 l 681 1257 l 334 1057 l 292 1130 l 633 1340 m 557 972 q 796 934 668 972 l 759 829 q 547 864 637 864 q 377 822 447 864 q 308 712 308 779 q 330 646 308 675 q 389 598 353 616 q 473 562 426 580 q 568 529 519 544 q 663 491 616 514 q 747 440 710 468 q 806 369 783 413 q 828 269 828 325 q 816 192 828 231 q 775 116 804 154 q 705 50 747 79 q 598 4 663 22 q 456 -14 534 -14 q 311 3 377 -14 q 163 52 245 19 l 202 163 q 470 100 372 100 q 638 142 573 100 q 703 252 703 183 q 674 332 703 298 q 599 386 645 366 q 498 425 553 407 q 387 464 442 443 q 286 511 332 484 q 211 585 240 538 q 182 693 182 631 q 209 800 182 749 q 283 889 236 850 q 402 950 331 927 q 557 972 473 972 z "},"ś":{"ha":689,"x_min":88,"x_max":608,"o":"m 400 683 q 427 683 414 683 q 451 681 439 682 q 472 679 463 680 q 491 676 480 678 q 508 673 503 674 q 525 669 513 672 q 539 665 536 666 q 555 661 542 665 q 570 656 568 656 l 542 571 q 382 596 451 596 q 311 588 342 596 q 263 568 280 580 q 236 542 247 557 q 223 515 226 526 q 220 492 220 503 q 249 443 220 465 q 320 408 277 421 q 414 375 363 394 q 507 336 464 357 q 579 278 550 315 q 608 192 608 241 q 601 138 608 164 q 573 83 593 112 q 522 34 553 55 q 437 0 490 14 q 316 -14 385 -14 q 88 37 212 -14 l 119 121 q 234 85 189 96 q 321 74 278 74 q 486 179 486 74 q 470 220 486 202 q 427 249 454 237 q 365 272 399 260 q 295 294 331 283 q 225 320 260 304 q 164 357 191 337 q 121 409 137 377 q 104 481 104 441 q 112 531 104 505 q 141 584 120 556 q 195 634 163 612 q 280 669 227 655 q 400 683 333 683 m 458 1050 l 521 977 l 266 763 l 212 831 l 458 1050 z "},"Ŝ":{"ha":923,"x_min":163,"x_max":828,"o":"m 557 972 q 796 934 668 972 l 759 829 q 547 864 637 864 q 377 822 447 864 q 308 712 308 779 q 330 646 308 675 q 389 598 353 616 q 473 562 426 580 q 568 529 519 544 q 663 491 616 514 q 747 440 710 468 q 806 369 783 413 q 828 269 828 325 q 816 192 828 231 q 775 116 804 154 q 705 50 747 79 q 598 4 663 22 q 456 -14 534 -14 q 311 3 377 -14 q 163 52 245 19 l 202 163 q 470 100 372 100 q 638 142 573 100 q 703 252 703 183 q 674 332 703 298 q 599 386 645 366 q 498 425 553 407 q 387 464 442 443 q 286 511 332 484 q 211 585 240 538 q 182 693 182 631 q 209 800 182 749 q 283 889 236 850 q 402 950 331 927 q 557 972 473 972 m 485 1310 l 659 1116 l 595 1057 l 476 1190 l 353 1057 l 294 1110 l 485 1310 z "},"ŝ":{"ha":689,"x_min":88,"x_max":608,"o":"m 400 683 q 427 683 414 683 q 451 681 439 682 q 472 679 463 680 q 491 676 480 678 q 508 673 503 674 q 525 669 513 672 q 539 665 536 666 q 555 661 542 665 q 570 656 568 656 l 542 571 q 382 596 451 596 q 311 588 342 596 q 263 568 280 580 q 236 542 247 557 q 223 515 226 526 q 220 492 220 503 q 249 443 220 465 q 320 408 277 421 q 414 375 363 394 q 507 336 464 357 q 579 278 550 315 q 608 192 608 241 q 601 138 608 164 q 573 83 593 112 q 522 34 553 55 q 437 0 490 14 q 316 -14 385 -14 q 88 37 212 -14 l 119 121 q 234 85 189 96 q 321 74 278 74 q 486 179 486 74 q 470 220 486 202 q 427 249 454 237 q 365 272 399 260 q 295 294 331 283 q 225 320 260 304 q 164 357 191 337 q 121 409 137 377 q 104 481 104 441 q 112 531 104 505 q 141 584 120 556 q 195 634 163 612 q 280 669 227 655 q 400 683 333 683 m 377 1016 l 551 822 l 488 762 l 368 895 l 245 763 l 186 816 l 377 1016 z "},"Ş":{"ha":923,"x_min":163,"x_max":828,"o":"m 642 -214 q 602 -304 642 -266 q 498 -343 562 -343 q 448 -338 473 -343 q 338 -307 423 -332 l 358 -237 q 503 -271 469 -271 q 549 -256 532 -271 q 566 -222 566 -242 q 542 -182 566 -195 q 446 -148 518 -169 q 407 -136 421 -140 l 440 -14 q 306 3 368 -14 q 163 52 245 19 l 202 163 q 470 100 372 100 q 638 142 573 100 q 703 252 703 183 q 674 332 703 298 q 599 386 645 366 q 498 425 553 407 q 387 464 442 443 q 286 511 332 484 q 211 585 240 538 q 182 693 182 631 q 209 800 182 749 q 283 889 236 850 q 402 950 331 927 q 557 972 473 972 q 796 934 668 972 l 759 829 q 547 864 637 864 q 377 822 447 864 q 308 712 308 779 q 330 646 308 675 q 389 598 353 616 q 473 562 426 580 q 568 529 519 544 q 663 491 616 514 q 747 440 710 468 q 806 369 783 413 q 828 269 828 325 q 812 183 828 226 q 763 101 795 140 q 673 32 730 61 q 541 -8 616 2 l 520 -92 l 528 -94 q 541 -98 535 -96 q 558 -103 547 -100 q 577 -112 568 -107 q 596 -124 585 -117 q 614 -140 606 -131 q 628 -159 621 -149 q 638 -184 635 -170 q 642 -214 642 -199 z "},"ş":{"ha":689,"x_min":88,"x_max":608,"o":"m 425 -221 q 423 -206 425 -213 q 416 -194 421 -199 q 407 -183 412 -188 q 393 -174 402 -178 q 375 -166 383 -170 q 354 -158 368 -163 q 330 -151 340 -154 q 301 -142 319 -148 q 270 -133 283 -137 l 302 -14 q 88 37 201 -9 l 119 121 q 234 85 189 96 q 321 74 278 74 q 486 179 486 74 q 470 220 486 202 q 427 249 454 237 q 365 272 399 260 q 295 294 331 283 q 225 320 260 304 q 164 357 191 337 q 121 409 137 377 q 104 481 104 441 q 112 531 104 505 q 141 584 120 556 q 195 634 163 612 q 280 669 227 655 q 400 683 333 683 q 427 683 414 683 q 451 681 439 682 q 472 679 463 680 q 491 676 480 678 q 508 673 503 674 q 525 669 513 672 q 539 665 536 666 q 555 661 542 665 q 570 656 568 656 l 542 571 q 382 596 451 596 q 311 588 342 596 q 263 568 280 580 q 236 542 247 557 q 223 515 226 526 q 220 492 220 503 q 249 443 220 465 q 320 408 277 421 q 414 375 363 394 q 507 336 464 357 q 579 278 550 315 q 608 192 608 241 q 602 144 608 168 q 582 95 597 121 q 543 50 566 70 q 479 13 519 29 q 389 -9 440 -3 l 368 -92 q 378 -96 369 -93 q 393 -100 388 -98 q 408 -105 397 -101 q 425 -113 419 -109 q 441 -122 431 -116 q 458 -134 452 -127 q 471 -149 464 -140 q 483 -166 478 -157 q 490 -188 487 -176 q 492 -214 492 -200 q 455 -300 492 -262 q 354 -338 418 -338 q 323 -335 340 -338 q 288 -328 307 -333 q 256 -320 269 -323 q 224 -311 244 -317 q 199 -303 203 -304 l 217 -241 q 357 -273 323 -273 q 406 -258 388 -273 q 425 -221 425 -243 z "},"Š":{"ha":923,"x_min":163,"x_max":828,"o":"m 501 1057 l 328 1251 l 391 1310 l 510 1177 l 633 1310 l 692 1257 l 501 1057 m 557 972 q 796 934 668 972 l 759 829 q 547 864 637 864 q 377 822 447 864 q 308 712 308 779 q 330 646 308 675 q 389 598 353 616 q 473 562 426 580 q 568 529 519 544 q 663 491 616 514 q 747 440 710 468 q 806 369 783 413 q 828 269 828 325 q 816 192 828 231 q 775 116 804 154 q 705 50 747 79 q 598 4 663 22 q 456 -14 534 -14 q 311 3 377 -14 q 163 52 245 19 l 202 163 q 470 100 372 100 q 638 142 573 100 q 703 252 703 183 q 674 332 703 298 q 599 386 645 366 q 498 425 553 407 q 387 464 442 443 q 286 511 332 484 q 211 585 240 538 q 182 693 182 631 q 209 800 182 749 q 283 889 236 850 q 402 950 331 927 q 557 972 473 972 z "},"š":{"ha":689,"x_min":88,"x_max":608,"o":"m 359 762 l 186 956 l 249 1016 l 368 883 l 491 1015 l 551 964 l 359 762 m 400 683 q 427 683 414 683 q 451 681 439 682 q 472 679 463 680 q 491 676 480 678 q 508 673 503 674 q 525 669 513 672 q 539 665 536 666 q 555 661 542 665 q 570 656 568 656 l 542 571 q 382 596 451 596 q 311 588 342 596 q 263 568 280 580 q 236 542 247 557 q 223 515 226 526 q 220 492 220 503 q 249 443 220 465 q 320 408 277 421 q 414 375 363 394 q 507 336 464 357 q 579 278 550 315 q 608 192 608 241 q 601 138 608 164 q 573 83 593 112 q 522 34 553 55 q 437 0 490 14 q 316 -14 385 -14 q 88 37 212 -14 l 119 121 q 234 85 189 96 q 321 74 278 74 q 486 179 486 74 q 470 220 486 202 q 427 249 454 237 q 365 272 399 260 q 295 294 331 283 q 225 320 260 304 q 164 357 191 337 q 121 409 137 377 q 104 481 104 441 q 112 531 104 505 q 141 584 120 556 q 195 634 163 612 q 280 669 227 655 q 400 683 333 683 z "},"Ţ":{"ha":821,"x_min":58,"x_max":817,"o":"m 439 -270 q 487 -254 473 -270 q 500 -220 500 -238 q 496 -203 500 -211 q 482 -188 492 -195 q 463 -176 472 -181 q 436 -165 453 -171 q 407 -156 419 -159 q 374 -146 395 -152 q 341 -136 353 -140 q 354 -89 346 -120 q 365 -52 363 -58 q 371 -25 366 -46 q 376 1 376 -5 q 378 26 376 7 q 380 60 380 45 q 380 102 380 75 l 380 862 l 58 862 l 58 964 l 817 964 l 817 862 l 495 862 l 495 109 q 490 -3 495 37 q 469 -94 486 -42 q 576 -214 576 -125 q 537 -304 576 -264 q 431 -343 498 -343 q 405 -342 418 -343 q 374 -336 392 -340 q 347 -329 355 -332 q 309 -318 338 -327 q 271 -307 281 -310 l 292 -237 q 439 -270 403 -270 z "},"ţ":{"ha":512,"x_min":47,"x_max":478,"o":"m 138 862 l 249 862 l 249 670 l 453 670 l 453 583 l 249 583 l 249 212 q 359 73 249 73 q 463 87 378 73 l 478 12 q 355 -14 400 -9 l 335 -93 q 347 -96 336 -93 q 363 -101 359 -100 q 381 -108 368 -103 q 400 -117 393 -113 q 417 -128 407 -121 q 434 -143 428 -135 q 447 -162 440 -152 q 456 -185 453 -172 q 459 -214 459 -199 q 422 -300 459 -262 q 321 -338 385 -338 q 290 -336 307 -338 q 254 -329 274 -334 q 223 -321 234 -323 q 191 -311 213 -318 q 167 -304 168 -304 l 184 -242 q 324 -273 288 -273 q 374 -258 355 -273 q 392 -222 392 -243 q 390 -207 392 -214 q 384 -194 389 -200 q 375 -184 379 -189 q 360 -175 370 -180 q 343 -167 351 -170 q 321 -159 336 -164 q 297 -152 307 -155 q 268 -143 287 -149 q 236 -134 249 -138 l 270 -8 q 138 200 138 22 l 138 583 l 47 583 l 47 670 l 138 670 l 138 862 z "},"Ť":{"ha":821,"x_min":58,"x_max":817,"o":"m 446 1057 l 273 1251 l 336 1310 l 455 1177 l 578 1310 l 637 1257 l 446 1057 m 58 964 l 817 964 l 817 862 l 495 862 l 495 0 l 380 0 l 380 862 l 58 862 l 58 964 z "},"ť":{"ha":512,"x_min":47,"x_max":554,"o":"m 432 1036 l 554 1036 l 447 771 l 325 771 l 432 1036 m 138 862 l 249 862 l 249 670 l 453 670 l 453 583 l 249 583 l 249 212 q 359 73 249 73 q 463 87 378 73 l 478 12 q 325 -14 380 -14 q 232 4 270 -14 q 174 54 194 22 q 146 124 155 87 q 138 211 138 162 l 138 583 l 47 583 l 47 670 l 138 670 l 138 862 z "},"Ŧ":{"ha":821,"x_min":58,"x_max":817,"o":"m 58 964 l 817 964 l 817 862 l 495 862 l 495 511 l 737 511 l 737 409 l 495 409 l 495 0 l 380 0 l 380 409 l 172 409 l 172 511 l 380 511 l 380 862 l 58 862 l 58 964 z "},"ŧ":{"ha":512,"x_min":47,"x_max":478,"o":"m 478 12 q 325 -14 380 -14 q 248 -1 281 -14 q 194 31 214 11 q 160 81 173 51 q 142 142 147 111 q 138 211 138 173 l 138 325 l 47 325 l 47 399 l 138 399 l 138 583 l 47 583 l 47 670 l 138 670 l 138 862 l 249 862 l 249 670 l 453 670 l 453 583 l 249 583 l 249 399 l 453 399 l 453 325 l 249 325 l 249 212 q 359 73 249 73 q 463 87 378 73 l 478 12 z "},"Ũ":{"ha":1072,"x_min":195,"x_max":930,"o":"m 197 964 l 312 964 l 312 339 q 321 240 312 281 q 363 163 331 199 q 563 86 431 86 q 723 128 659 86 q 806 245 787 170 q 814 339 814 279 l 814 964 l 929 964 l 929 420 q 930 375 929 406 q 930 329 930 345 q 930 288 930 305 q 925 241 929 270 q 915 190 921 212 q 895 141 908 168 q 863 93 881 113 q 817 51 845 72 q 753 17 789 30 q 669 -5 718 3 q 563 -14 621 -14 q 420 3 484 -14 q 321 43 357 20 q 259 98 286 66 q 223 154 233 131 q 208 203 214 178 q 195 330 195 251 q 196 379 195 349 q 197 420 197 410 l 197 964 m 658 1141 q 680 1146 669 1141 q 697 1157 690 1151 q 714 1178 705 1164 q 728 1202 723 1193 q 743 1233 732 1211 q 759 1264 753 1254 l 830 1232 q 820 1210 827 1227 q 808 1186 812 1194 q 796 1163 804 1179 q 782 1139 787 1147 q 767 1118 777 1131 q 750 1098 758 1105 q 731 1082 743 1091 q 710 1069 720 1074 q 686 1061 699 1064 q 658 1058 672 1058 q 601 1070 628 1058 q 553 1101 573 1083 q 514 1137 532 1119 q 476 1167 495 1155 q 441 1180 458 1180 q 422 1177 431 1180 q 405 1166 413 1174 q 392 1153 397 1159 q 378 1133 386 1146 q 366 1111 370 1119 q 353 1084 361 1102 q 340 1057 345 1066 l 269 1088 q 279 1111 271 1094 q 291 1135 287 1127 q 303 1158 294 1142 q 317 1181 311 1173 q 331 1202 322 1190 q 348 1222 340 1215 q 367 1238 356 1230 q 389 1252 378 1247 q 413 1260 399 1257 q 441 1263 427 1263 q 498 1250 471 1263 q 546 1220 526 1238 q 585 1184 566 1202 q 622 1153 604 1166 q 658 1141 641 1141 z "},"ũ":{"ha":801,"x_min":121,"x_max":682,"o":"m 565 670 l 676 670 l 676 0 l 598 0 l 574 56 q 338 -14 446 -14 q 242 4 283 -14 q 179 47 201 21 q 143 112 157 73 q 126 188 130 152 q 122 270 122 224 l 122 670 l 233 670 l 233 262 q 386 86 233 86 q 565 138 465 86 l 565 670 m 510 846 q 529 849 520 846 q 546 860 538 852 q 559 874 553 867 q 573 894 566 880 q 585 916 581 907 q 598 943 589 924 q 612 970 607 961 l 682 938 q 672 916 680 932 q 660 892 664 899 q 648 869 656 884 q 634 845 640 853 q 620 824 629 837 q 603 804 610 811 q 584 788 595 797 q 562 774 572 779 q 538 767 551 770 q 510 764 524 764 q 453 776 480 764 q 405 807 425 789 q 366 843 385 825 q 329 873 348 861 q 294 886 311 886 q 275 883 283 886 q 258 872 266 880 q 244 858 250 865 q 231 838 239 852 q 219 816 223 825 q 206 790 214 808 q 193 762 197 772 l 121 794 q 131 816 123 799 q 143 840 140 833 q 155 863 146 847 q 169 887 163 880 q 184 908 174 895 q 201 928 193 922 q 220 944 208 935 q 242 958 231 954 q 266 965 252 962 q 294 968 279 968 q 351 956 323 968 q 399 925 378 943 q 437 889 419 907 q 474 859 456 871 q 510 846 493 846 z "},"Ū":{"ha":1072,"x_min":195,"x_max":930,"o":"m 197 964 l 312 964 l 312 339 q 321 240 312 281 q 363 163 331 199 q 563 86 431 86 q 723 128 659 86 q 806 245 787 170 q 814 339 814 279 l 814 964 l 929 964 l 929 420 q 930 375 929 406 q 930 329 930 345 q 930 288 930 305 q 925 241 929 270 q 915 190 921 212 q 895 141 908 168 q 863 93 881 113 q 817 51 845 72 q 753 17 789 30 q 669 -5 718 3 q 563 -14 621 -14 q 420 3 484 -14 q 321 43 357 20 q 259 98 286 66 q 223 154 233 131 q 208 203 214 178 q 195 330 195 251 q 196 379 195 349 q 197 420 197 410 l 197 964 m 268 1151 l 831 1151 l 831 1063 l 268 1063 l 268 1151 z "},"ū":{"ha":798,"x_min":122,"x_max":676,"o":"m 565 670 l 676 670 l 676 0 l 598 0 l 574 56 q 338 -14 446 -14 q 242 4 283 -14 q 179 47 201 21 q 143 112 157 73 q 126 188 130 152 q 122 270 122 224 l 122 670 l 233 670 l 233 262 q 386 86 233 86 q 565 138 465 86 l 565 670 m 199 904 l 604 904 l 604 817 l 199 817 l 199 904 z "},"Ŭ":{"ha":1072,"x_min":195,"x_max":930,"o":"m 255 1232 l 338 1276 q 406 1187 363 1225 q 509 1149 450 1149 q 617 1186 564 1149 q 709 1276 669 1223 l 786 1224 q 655 1104 732 1152 q 498 1056 579 1056 q 346 1108 410 1056 q 255 1232 281 1160 m 197 964 l 312 964 l 312 339 q 321 240 312 281 q 363 163 331 199 q 563 86 431 86 q 723 128 659 86 q 806 245 787 170 q 814 339 814 279 l 814 964 l 929 964 l 929 420 q 930 375 929 406 q 930 329 930 345 q 930 288 930 305 q 925 241 929 270 q 915 190 921 212 q 895 141 908 168 q 863 93 881 113 q 817 51 845 72 q 753 17 789 30 q 669 -5 718 3 q 563 -14 621 -14 q 420 3 484 -14 q 321 43 357 20 q 259 98 286 66 q 223 154 233 131 q 208 203 214 178 q 195 329 195 252 q 196 375 195 345 q 197 420 197 406 l 197 964 z "},"ŭ":{"ha":798,"x_min":122,"x_max":676,"o":"m 565 670 l 676 670 l 676 0 l 598 0 l 574 56 q 338 -14 446 -14 q 242 4 283 -14 q 179 47 201 21 q 143 112 157 73 q 126 188 130 152 q 122 270 122 224 l 122 670 l 233 670 l 233 262 q 386 86 233 86 q 565 138 465 86 l 565 670 m 141 937 l 225 982 q 293 893 250 931 q 396 855 336 855 q 504 892 451 855 q 596 982 556 929 l 673 930 q 542 809 618 857 q 385 762 466 762 q 232 813 296 762 q 141 937 168 865 z "},"Ů":{"ha":1072,"x_min":195,"x_max":930,"o":"m 444 1317 q 466 1339 444 1317 q 549 1361 488 1361 q 654 1317 610 1361 q 699 1209 699 1272 q 654 1101 699 1146 q 549 1057 610 1057 q 444 1101 488 1057 q 400 1209 400 1145 q 444 1317 400 1272 m 549 1299 q 487 1273 512 1299 q 461 1209 461 1246 q 486 1145 461 1173 q 549 1118 511 1118 q 611 1146 586 1118 q 636 1209 636 1173 q 611 1272 636 1245 q 549 1299 586 1299 m 197 964 l 312 964 l 312 339 q 321 240 312 281 q 363 163 331 199 q 563 86 431 86 q 723 128 659 86 q 806 245 787 170 q 814 339 814 279 l 814 964 l 929 964 l 929 420 q 930 375 929 406 q 930 329 930 345 q 930 288 930 305 q 925 241 929 270 q 915 190 921 212 q 895 141 908 168 q 863 93 881 113 q 817 51 845 72 q 753 17 789 30 q 669 -5 718 3 q 563 -14 621 -14 q 420 3 484 -14 q 321 43 357 20 q 259 98 286 66 q 223 154 233 131 q 208 203 214 178 q 195 329 195 252 q 196 375 195 345 q 197 420 197 406 l 197 964 z "},"ů":{"ha":798,"x_min":122,"x_max":676,"o":"m 565 670 l 676 670 l 676 0 l 598 0 l 574 56 q 338 -14 446 -14 q 242 4 283 -14 q 179 47 201 21 q 143 112 157 73 q 126 188 130 152 q 122 270 122 224 l 122 670 l 233 670 l 233 262 q 386 86 233 86 q 565 138 465 86 l 565 670 m 297 1022 q 319 1045 297 1022 q 401 1067 340 1067 q 507 1022 463 1067 q 551 915 551 978 q 507 807 551 852 q 402 762 463 762 q 297 807 341 762 q 253 915 253 851 q 297 1022 253 978 m 402 1005 q 339 978 365 1005 q 314 915 314 951 q 339 851 314 878 q 402 824 363 824 q 464 851 439 824 q 488 915 488 879 q 464 978 488 951 q 402 1005 439 1005 z "},"Ű":{"ha":1072,"x_min":195,"x_max":996,"o":"m 197 964 l 312 964 l 312 339 q 321 240 312 281 q 363 163 331 199 q 563 86 431 86 q 723 128 659 86 q 806 245 787 170 q 814 339 814 279 l 814 964 l 929 964 l 929 420 q 930 375 929 406 q 930 329 930 345 q 930 288 930 305 q 925 241 929 270 q 915 190 921 212 q 895 141 908 168 q 863 93 881 113 q 817 51 845 72 q 753 17 789 30 q 669 -5 718 3 q 563 -14 621 -14 q 420 3 484 -14 q 321 43 357 20 q 259 98 286 66 q 223 154 233 131 q 208 203 214 178 q 195 329 195 252 q 196 375 195 345 q 197 420 197 406 l 197 964 m 589 1345 l 643 1267 l 315 1037 l 267 1106 l 589 1345 m 941 1345 l 996 1267 l 667 1037 l 619 1106 l 941 1345 z "},"ű":{"ha":801,"x_min":122,"x_max":794,"o":"m 565 670 l 676 670 l 676 0 l 598 0 l 574 56 q 338 -14 446 -14 q 242 4 283 -14 q 179 47 201 21 q 143 112 157 73 q 126 188 130 152 q 122 270 122 224 l 122 670 l 233 670 l 233 262 q 386 86 233 86 q 565 138 465 86 l 565 670 m 420 1050 l 483 977 l 228 763 l 174 831 l 420 1050 m 732 1050 l 794 977 l 539 763 l 485 831 l 732 1050 z "},"Ų":{"ha":1072,"x_min":195,"x_max":930,"o":"m 195 329 q 196 375 195 345 q 197 420 197 406 l 197 964 l 312 964 l 312 339 q 321 240 312 281 q 363 163 331 199 q 563 86 431 86 q 723 128 659 86 q 806 245 787 170 q 814 339 814 279 l 814 964 l 929 964 l 929 420 q 929 378 929 406 q 930 335 930 349 q 925 241 930 281 q 908 169 920 200 q 882 115 896 137 q 843 73 868 92 q 795 40 819 54 q 734 8 771 26 q 655 -38 690 -13 q 600 -86 620 -63 q 567 -133 580 -109 q 549 -173 553 -156 q 544 -205 544 -191 q 564 -259 544 -238 q 617 -279 585 -279 q 726 -238 665 -279 l 760 -300 q 582 -370 669 -370 q 484 -331 521 -370 q 446 -230 446 -293 q 478 -109 446 -167 q 557 -14 511 -52 q 427 0 484 -14 q 332 35 369 14 q 268 89 294 56 q 227 150 241 121 q 206 216 214 178 q 197 276 198 254 q 195 329 195 299 z "},"ų":{"ha":801,"x_min":122,"x_max":679,"o":"m 363 -240 q 424 -107 363 -167 q 599 5 485 -48 l 577 55 q 345 -14 452 -14 q 257 2 297 -14 q 195 39 220 16 q 155 87 169 62 q 134 148 141 113 q 124 212 126 184 q 122 281 122 241 q 123 296 122 286 q 125 312 125 307 l 125 670 l 236 670 l 236 266 q 237 239 236 250 q 240 209 237 229 q 249 175 242 189 q 265 143 255 160 q 293 114 275 127 q 334 94 311 102 q 389 86 359 86 q 568 138 469 86 l 568 670 l 679 670 l 679 -31 q 644 -48 668 -36 q 607 -67 619 -61 q 574 -85 595 -74 q 543 -104 553 -97 q 516 -123 532 -112 q 492 -144 500 -135 q 475 -166 484 -154 q 463 -190 467 -178 q 460 -216 460 -203 q 478 -266 460 -248 q 530 -284 496 -284 q 643 -249 578 -284 l 675 -304 q 499 -368 579 -368 q 400 -332 437 -368 q 363 -240 363 -295 z "},"Ŵ":{"ha":1461,"x_min":95,"x_max":1421,"o":"m 95 964 l 218 964 l 460 154 l 705 964 l 821 964 l 1072 154 l 1307 964 l 1421 964 l 1132 0 l 1009 0 l 756 805 l 519 0 l 397 0 l 95 964 m 766 1313 l 940 1119 l 878 1059 l 758 1192 l 635 1060 l 575 1113 l 766 1313 z "},"ŵ":{"ha":1143,"x_min":41,"x_max":1102,"o":"m 41 670 l 159 670 l 341 108 l 513 670 l 623 670 l 802 109 l 983 670 l 1102 670 l 857 0 l 745 0 l 567 543 l 391 0 l 279 0 l 41 670 m 572 1019 l 745 825 l 683 766 l 564 899 l 440 766 l 380 819 l 572 1019 z "},"Ŷ":{"ha":857,"x_min":68,"x_max":829,"o":"m 68 964 l 204 964 l 450 566 l 701 964 l 829 964 l 501 456 l 501 0 l 386 0 l 386 456 l 68 964 m 460 1310 l 633 1116 l 571 1057 l 452 1190 l 328 1057 l 269 1110 l 460 1310 z "},"ŷ":{"ha":712,"x_min":34,"x_max":678,"o":"m 34 670 l 149 670 l 363 102 l 563 670 l 678 670 l 292 -360 l 173 -360 l 311 -26 l 34 670 m 368 1016 l 541 822 l 478 762 l 359 895 l 236 763 l 176 816 l 368 1016 z "},"Ÿ":{"ha":857,"x_min":68,"x_max":829,"o":"m 68 964 l 204 964 l 450 566 l 701 964 l 829 964 l 501 456 l 501 0 l 386 0 l 386 456 l 68 964 m 538 1287 l 663 1287 l 663 1162 l 538 1162 l 538 1287 m 233 1287 l 358 1287 l 358 1162 l 233 1162 l 233 1287 z "},"Ź":{"ha":921,"x_min":105,"x_max":880,"o":"m 125 964 l 862 964 l 862 890 l 258 102 l 880 102 l 880 0 l 105 0 l 105 75 l 697 862 l 125 862 l 125 964 m 652 1340 l 699 1257 l 352 1057 l 310 1130 l 652 1340 z "},"ź":{"ha":731,"x_min":102,"x_max":629,"o":"m 102 670 l 612 670 l 612 611 l 246 87 l 629 87 l 629 0 l 102 0 l 102 59 l 467 583 l 102 583 l 102 670 m 465 1050 l 528 977 l 273 763 l 218 831 l 465 1050 z "},"Ż":{"ha":921,"x_min":105,"x_max":880,"o":"m 125 964 l 862 964 l 862 890 l 258 102 l 880 102 l 880 0 l 105 0 l 105 75 l 697 862 l 125 862 l 125 964 m 411 1240 l 553 1240 l 553 1098 l 411 1098 l 411 1240 z "},"ż":{"ha":731,"x_min":102,"x_max":629,"o":"m 102 670 l 612 670 l 612 611 l 246 87 l 629 87 l 629 0 l 102 0 l 102 59 l 467 583 l 102 583 l 102 670 m 294 964 l 425 964 l 425 836 l 294 836 l 294 964 z "},"Ž":{"ha":921,"x_min":105,"x_max":880,"o":"m 125 964 l 862 964 l 862 890 l 258 102 l 880 102 l 880 0 l 105 0 l 105 75 l 697 862 l 125 862 l 125 964 m 486 1057 l 313 1251 l 376 1310 l 495 1177 l 618 1310 l 677 1257 l 486 1057 z "},"ž":{"ha":731,"x_min":102,"x_max":629,"o":"m 102 670 l 612 670 l 612 611 l 246 87 l 629 87 l 629 0 l 102 0 l 102 59 l 467 583 l 102 583 l 102 670 m 352 762 l 178 956 l 241 1016 l 361 883 l 484 1015 l 543 964 l 352 762 z "},"Ƒ":{"ha":846,"x_min":-73,"x_max":755,"o":"m -73 -341 l -56 -258 q 52 -275 4 -275 q 160 -238 123 -275 q 197 -132 197 -201 l 197 964 l 755 964 l 755 862 l 312 862 l 312 547 l 714 547 l 714 446 l 312 446 l 312 -136 q 250 -311 312 -256 q 85 -367 188 -367 q -73 -341 12 -367 z "},"ƒ":{"ha":557,"x_min":-81,"x_max":574,"o":"m 73 670 l 189 670 l 189 743 q 215 872 189 827 q 293 944 241 919 q 412 969 345 969 q 574 943 486 969 l 557 860 q 449 876 494 876 q 395 870 419 876 q 356 854 371 863 q 329 831 340 845 q 313 805 318 817 q 305 777 308 793 q 301 753 302 761 q 301 734 301 745 l 301 670 l 526 670 l 526 583 l 301 583 l 301 -147 q 300 -180 301 -165 q 295 -218 299 -194 q 282 -261 290 -242 q 257 -300 273 -279 q 218 -335 240 -321 q 160 -358 195 -349 q 80 -367 124 -367 q -81 -340 7 -367 l -64 -258 q 43 -274 -1 -274 q 113 -263 84 -274 q 157 -237 142 -252 q 179 -201 171 -223 q 188 -166 186 -179 q 189 -135 189 -153 l 189 583 l 73 583 l 73 670 z "},"Ȭ":{"ha":1143,"x_min":146,"x_max":1052,"o":"m 361 1449 l 863 1449 l 863 1362 l 361 1362 l 361 1449 m 793 1274 l 866 1262 q 861 1235 865 1257 q 854 1204 857 1213 q 848 1176 852 1196 q 838 1147 843 1156 q 826 1122 833 1138 q 810 1099 819 1107 q 789 1083 801 1092 q 762 1071 777 1074 q 729 1067 747 1067 q 671 1080 699 1067 q 622 1111 643 1093 q 583 1146 602 1128 q 547 1177 565 1164 q 513 1190 529 1190 q 496 1186 504 1190 q 483 1178 488 1183 q 472 1165 477 1174 q 465 1149 467 1156 q 458 1129 462 1142 q 454 1109 455 1116 q 450 1087 452 1102 q 446 1066 447 1072 l 372 1078 q 378 1105 374 1083 q 384 1135 382 1127 q 391 1164 386 1143 q 400 1193 395 1184 q 412 1217 405 1202 q 429 1240 420 1233 q 449 1257 437 1248 q 476 1269 461 1265 q 509 1272 492 1272 q 567 1260 539 1272 q 616 1229 595 1247 q 655 1193 637 1211 q 691 1163 673 1175 q 725 1150 709 1150 q 742 1154 734 1150 q 755 1161 750 1157 q 766 1175 761 1166 q 774 1191 771 1184 q 780 1211 777 1198 q 785 1231 783 1223 q 789 1253 786 1238 q 793 1274 791 1268 m 933 481 q 913 627 933 561 q 859 739 892 694 q 781 814 825 783 q 689 859 736 845 q 593 873 642 873 l 591 873 q 498 859 544 873 q 410 815 452 845 q 335 741 367 785 q 284 634 303 698 q 264 494 264 570 q 291 327 264 404 q 363 199 317 251 q 470 119 408 148 q 604 91 532 91 q 698 105 652 91 q 787 150 745 119 q 862 226 830 181 q 914 336 895 271 q 933 481 933 402 m 600 974 q 778 940 695 974 q 922 846 861 907 q 1017 693 983 785 q 1052 493 1052 602 q 993 230 1052 345 q 830 53 935 115 q 595 -10 726 -10 q 429 21 508 -10 q 286 111 349 52 q 184 265 222 170 q 146 479 146 360 q 180 684 146 591 q 275 841 215 777 q 419 939 336 904 q 600 974 503 974 z "},"ȭ":{"ha":821,"x_min":88,"x_max":733,"o":"m 588 982 l 661 970 q 656 943 660 965 q 650 913 652 921 q 643 884 648 905 q 633 855 638 864 q 621 831 629 846 q 605 808 614 815 q 584 791 596 800 q 557 779 572 783 q 524 776 542 776 q 466 788 494 776 q 417 819 438 801 q 378 855 397 837 q 342 885 360 873 q 309 898 324 898 q 293 896 300 898 q 281 889 286 894 q 271 879 275 884 q 263 865 267 874 q 257 850 259 857 q 252 832 254 844 q 248 814 250 821 q 244 794 247 807 q 241 776 242 782 l 168 786 q 173 813 169 791 q 179 844 177 836 q 186 872 181 852 q 195 901 191 892 q 208 926 200 910 q 224 949 215 941 q 244 965 233 956 q 272 977 256 974 q 304 981 287 981 q 362 968 334 981 q 411 938 391 956 q 450 902 432 920 q 487 871 469 884 q 520 859 505 859 q 537 862 530 859 q 551 870 545 865 q 561 883 556 874 q 569 899 566 892 q 575 919 572 906 q 580 939 578 932 q 584 961 581 946 q 588 982 587 977 m 170 1145 l 672 1145 l 672 1058 l 170 1058 l 170 1145 m 414 683 q 643 594 553 683 q 733 349 733 505 q 641 84 733 182 q 404 -14 549 -14 q 176 78 264 -14 q 88 328 88 170 q 178 586 88 490 q 414 683 268 683 m 405 588 q 259 524 321 588 q 197 347 197 459 q 258 158 197 235 q 416 81 319 81 q 565 149 505 81 q 625 326 625 217 q 605 439 625 389 q 554 522 586 490 q 484 571 523 554 q 405 588 446 588 z "},"ȷ":{"ha":355,"x_min":12,"x_max":233,"o":"m 122 670 l 233 670 l 233 -93 q 233 -129 233 -115 q 229 -167 232 -142 q 219 -210 225 -192 q 199 -252 212 -229 q 167 -294 186 -276 q 120 -330 149 -312 q 54 -362 91 -349 l 12 -278 q 122 -104 122 -226 l 122 670 z "},"ˆ":{"ha":1003,"x_min":300,"x_max":665,"o":"m 492 1045 l 665 851 l 602 791 l 483 924 l 360 792 l 300 845 l 492 1045 z "},"ˇ":{"ha":731,"x_min":178,"x_max":543,"o":"m 352 762 l 178 956 l 241 1016 l 361 883 l 484 1015 l 543 964 l 352 762 z "},"˘":{"ha":731,"x_min":100,"x_max":631,"o":"m 100 937 l 183 982 q 251 893 208 931 q 354 855 294 855 q 462 892 409 855 q 555 982 515 929 l 631 930 q 500 809 576 857 q 343 762 424 762 q 190 813 254 762 q 100 937 126 865 z "},"˙":{"ha":814,"x_min":329,"x_max":471,"o":"m 329 978 l 471 978 l 471 836 l 329 836 l 329 978 z "},"˚":{"ha":735,"x_min":245,"x_max":543,"o":"m 394 1005 q 331 978 357 1005 q 306 915 306 951 q 331 851 306 878 q 394 824 355 824 q 455 851 431 824 q 480 915 480 879 q 455 978 480 951 q 394 1005 431 1005 m 289 1022 q 310 1045 289 1022 q 393 1067 332 1067 q 498 1022 454 1067 q 543 915 543 978 q 499 807 543 852 q 394 762 455 762 q 289 807 333 762 q 245 915 245 851 q 289 1022 245 978 z "},"˛":{"ha":735,"x_min":312,"x_max":629,"o":"m 449 -369 q 350 -329 388 -369 q 312 -227 312 -290 q 398 -32 312 -128 q 609 98 485 64 l 629 22 q 471 -80 532 -14 q 410 -205 410 -147 q 430 -259 410 -238 q 482 -279 450 -279 q 593 -239 524 -279 l 625 -300 q 449 -369 528 -369 z "},"˜":{"ha":949,"x_min":208,"x_max":769,"o":"m 597 923 q 616 926 607 923 q 632 937 625 929 q 646 950 640 944 q 660 970 652 957 q 672 992 667 984 q 685 1019 676 1001 q 698 1046 693 1037 l 769 1015 q 759 992 766 1009 q 747 968 751 976 q 735 945 743 961 q 721 922 726 930 q 706 901 715 913 q 689 881 697 888 q 670 865 682 873 q 649 851 659 856 q 625 843 638 846 q 597 840 611 840 q 539 853 567 840 q 492 884 512 865 q 453 920 471 902 q 415 951 434 939 q 380 964 397 964 q 361 961 370 964 q 344 950 352 958 q 331 936 336 943 q 317 916 325 929 q 305 893 310 902 q 292 866 300 884 q 279 839 283 848 l 208 871 q 221 898 209 873 q 236 929 233 923 q 252 957 239 936 q 271 986 264 979 q 291 1009 277 994 q 317 1030 305 1024 q 346 1041 329 1036 q 380 1046 362 1046 q 437 1034 410 1046 q 485 1003 465 1021 q 524 966 505 985 q 561 936 543 948 q 597 923 580 923 z "},"˝":{"ha":1120,"x_min":193,"x_max":922,"o":"m 867 1087 l 922 1008 l 593 779 l 545 848 l 867 1087 m 515 1087 l 569 1008 l 241 779 l 193 848 l 515 1087 z "},"ˮ":{"ha":566,"x_min":75,"x_max":465,"o":"m 339 1025 l 465 1025 l 465 734 l 339 734 l 339 1025 m 75 1025 l 200 1025 l 200 734 l 75 734 l 75 1025 z "},"̂":{"ha":1003,"x_min":300,"x_max":665,"o":"m 492 1045 l 665 851 l 602 791 l 483 924 l 360 792 l 300 845 l 492 1045 z "},"Ḃ":{"ha":966,"x_min":197,"x_max":881,"o":"m 312 876 l 312 552 q 357 553 325 553 q 406 554 389 553 q 456 556 424 554 q 507 562 488 559 q 554 571 526 565 q 598 586 581 578 q 635 608 616 595 q 665 637 654 621 q 683 676 676 654 q 690 726 690 699 q 686 765 690 747 q 669 804 682 783 q 636 840 656 825 q 580 865 616 855 q 498 876 545 876 l 312 876 m 312 463 l 312 102 l 492 102 q 533 102 516 102 q 581 106 549 102 q 634 116 612 110 q 683 136 656 123 q 727 168 710 149 q 755 215 743 186 q 766 280 766 243 q 696 421 766 370 q 509 472 627 472 q 312 463 496 472 m 197 964 l 536 964 q 627 953 586 964 q 695 926 668 943 q 742 888 722 910 q 774 844 763 865 q 791 800 785 823 q 800 761 798 776 q 802 732 802 745 q 762 614 802 673 q 677 538 722 555 q 824 452 766 522 q 881 292 881 382 q 877 248 881 271 q 863 196 873 225 q 835 140 852 167 q 789 88 818 114 q 722 43 760 62 q 630 12 684 24 q 510 0 575 0 l 197 0 l 197 964 m 461 1287 l 604 1287 l 604 1145 l 461 1145 l 461 1287 z "},"ḃ":{"ha":802,"x_min":129,"x_max":715,"o":"m 240 638 q 419 684 328 684 q 499 674 460 684 q 578 640 538 664 q 648 578 618 615 q 696 480 677 541 q 715 343 715 419 q 627 82 715 178 q 399 -14 539 -14 q 220 31 308 -14 l 206 0 l 129 0 l 129 1025 l 240 1025 l 240 638 m 381 591 q 240 555 309 591 l 240 105 q 383 74 313 74 q 444 81 414 74 q 503 105 473 87 q 555 151 533 123 q 592 222 578 178 q 606 323 606 267 q 591 436 606 387 q 553 514 576 486 q 499 561 530 543 q 439 585 468 579 q 381 591 411 591 m 357 1287 l 500 1287 l 500 1145 l 357 1145 l 357 1287 z "},"Ḋ":{"ha":1089,"x_min":197,"x_max":981,"o":"m 503 1287 l 646 1287 l 646 1145 l 503 1145 l 503 1287 m 312 862 l 312 102 l 452 102 q 503 102 483 102 q 557 106 523 103 q 616 117 591 110 q 672 136 641 123 q 728 168 704 149 q 777 214 753 186 q 820 279 802 243 q 865 488 865 365 q 840 643 865 574 q 774 754 815 711 q 687 823 733 798 q 589 857 640 848 q 499 862 559 862 l 312 862 m 495 964 q 665 945 589 964 q 794 892 742 926 q 883 816 846 859 q 941 721 920 773 q 971 617 962 668 q 981 511 981 566 q 971 390 981 448 q 938 271 962 332 q 879 163 915 211 q 785 77 842 115 q 654 20 727 39 q 569 6 616 11 q 492 1 522 1 q 406 0 461 0 l 197 0 l 197 964 l 495 964 z "},"ḋ":{"ha":806,"x_min":88,"x_max":677,"o":"m 318 1287 l 460 1287 l 460 1145 l 318 1145 l 318 1287 m 421 78 q 566 116 495 78 l 566 564 q 420 596 493 596 q 359 589 389 596 q 300 565 330 583 q 247 519 269 547 q 211 446 225 492 q 197 341 197 400 q 212 232 197 280 q 250 156 227 184 q 304 109 273 127 q 363 84 335 91 q 421 78 392 78 m 88 323 q 113 479 88 410 q 180 593 137 549 q 280 660 222 637 q 404 684 337 684 q 553 653 477 684 l 566 648 l 566 1025 l 677 1025 l 677 0 l 600 0 l 581 42 q 385 -14 487 -14 q 302 -3 342 -14 q 223 32 262 7 q 154 95 184 57 q 106 191 125 132 q 88 323 88 250 z "},"Ḟ":{"ha":846,"x_min":197,"x_max":755,"o":"m 312 862 l 312 547 l 714 547 l 714 446 l 312 446 l 312 0 l 197 0 l 197 964 l 755 964 l 755 862 l 312 862 m 397 1287 l 540 1287 l 540 1145 l 397 1145 l 397 1287 z "},"ḟ":{"ha":556,"x_min":92,"x_max":573,"o":"m 449 876 q 380 865 409 876 q 336 839 351 854 q 313 804 321 825 q 303 770 304 783 q 301 743 301 757 l 301 670 l 526 670 l 526 583 l 301 583 l 301 0 l 189 0 l 189 583 l 92 583 l 92 670 l 189 670 l 189 738 q 215 872 189 826 q 293 944 241 919 q 412 969 345 969 q 573 943 485 969 l 556 860 q 449 876 493 876 m 286 1240 l 429 1240 l 429 1098 l 286 1098 l 286 1240 z "},"Ṁ":{"ha":1278,"x_min":197,"x_max":1135,"o":"m 197 964 l 359 964 l 669 379 l 983 964 l 1135 964 l 1135 0 l 1020 0 l 1020 798 l 724 276 l 608 276 l 312 798 l 312 0 l 197 0 l 197 964 m 588 1287 l 730 1287 l 730 1145 l 588 1145 l 588 1287 z "},"ṁ":{"ha":1173,"x_min":122,"x_max":1051,"o":"m 390 581 q 233 529 332 581 l 233 0 l 122 0 l 122 670 l 200 670 l 224 614 q 434 683 345 683 q 595 608 536 683 q 833 682 728 682 q 922 668 884 682 q 985 630 961 654 q 1024 570 1009 606 q 1045 493 1040 534 q 1051 402 1051 453 l 1051 0 l 939 0 l 939 410 q 938 438 939 425 q 933 473 937 451 q 920 512 930 495 q 896 546 910 529 q 856 571 881 562 q 797 581 830 581 q 632 528 734 581 q 642 397 642 485 l 642 0 l 530 0 l 530 412 q 529 446 530 430 q 519 488 528 462 q 498 533 511 515 q 456 566 484 552 q 390 581 428 581 m 523 964 l 665 964 l 665 822 l 523 822 l 523 964 z "},"Ṗ":{"ha":908,"x_min":197,"x_max":836,"o":"m 197 964 l 515 964 q 552 963 537 964 q 594 961 566 963 q 642 954 622 958 q 688 940 661 949 q 734 919 715 931 q 773 887 753 907 q 807 842 794 867 q 827 783 819 818 q 836 707 836 749 q 822 600 836 648 q 787 521 808 553 q 732 466 766 489 q 665 430 698 443 q 586 411 631 418 q 506 401 541 404 q 423 399 470 399 q 312 404 377 399 l 312 0 l 197 0 l 197 964 m 312 506 q 435 500 377 500 q 491 501 469 500 q 546 506 513 502 q 600 517 578 510 q 646 538 622 524 q 685 572 671 553 q 709 621 700 591 q 719 688 719 650 q 709 758 719 728 q 679 806 699 788 q 638 837 660 825 q 587 853 617 848 q 534 860 557 859 q 480 862 511 862 l 312 862 l 312 506 m 412 1287 l 554 1287 l 554 1145 l 412 1145 l 412 1287 z "},"ṗ":{"ha":798,"x_min":122,"x_max":711,"o":"m 218 627 q 415 683 313 683 q 496 673 456 683 q 575 638 535 663 q 644 576 614 614 q 692 478 673 538 q 711 342 711 418 q 623 82 711 178 q 395 -14 535 -14 q 246 17 321 -14 l 233 22 l 233 -360 l 122 -360 l 122 670 l 199 670 l 218 627 m 377 591 q 233 553 303 591 l 233 106 q 379 74 306 74 q 439 81 410 74 q 499 105 469 87 q 551 151 529 123 q 588 222 574 178 q 602 323 602 267 q 587 436 602 387 q 549 513 572 485 q 495 560 526 542 q 435 585 464 578 q 377 591 407 591 m 364 964 l 507 964 l 507 822 l 364 822 l 364 964 z "},"Ṡ":{"ha":923,"x_min":163,"x_max":828,"o":"m 439 1287 l 581 1287 l 581 1145 l 439 1145 l 439 1287 m 557 972 q 796 934 668 972 l 759 829 q 547 864 637 864 q 377 822 447 864 q 308 712 308 779 q 330 646 308 675 q 389 598 353 616 q 473 562 426 580 q 568 529 519 544 q 663 491 616 514 q 747 440 710 468 q 806 369 783 413 q 828 269 828 325 q 816 192 828 231 q 775 116 804 154 q 705 50 747 79 q 598 4 663 22 q 456 -14 534 -14 q 311 3 377 -14 q 163 52 245 19 l 202 163 q 470 100 372 100 q 638 142 573 100 q 703 252 703 183 q 674 332 703 298 q 599 386 645 366 q 498 425 553 407 q 387 464 442 443 q 286 511 332 484 q 211 585 240 538 q 182 693 182 631 q 209 800 182 749 q 283 889 236 850 q 402 950 331 927 q 557 972 473 972 z "},"ṡ":{"ha":689,"x_min":88,"x_max":608,"o":"m 400 683 q 427 683 414 683 q 451 681 439 682 q 472 679 463 680 q 491 676 480 678 q 508 673 503 674 q 525 669 513 672 q 539 665 536 666 q 555 661 542 665 q 570 656 568 656 l 542 571 q 382 596 451 596 q 311 588 342 596 q 263 568 280 580 q 236 542 247 557 q 223 515 226 526 q 220 492 220 503 q 249 443 220 465 q 320 408 277 421 q 414 375 363 394 q 507 336 464 357 q 579 278 550 315 q 608 192 608 241 q 601 138 608 164 q 573 83 593 112 q 522 34 553 55 q 437 0 490 14 q 316 -14 385 -14 q 88 37 212 -14 l 119 121 q 234 85 189 96 q 321 74 278 74 q 486 179 486 74 q 470 220 486 202 q 427 249 454 237 q 365 272 399 260 q 295 294 331 283 q 225 320 260 304 q 164 357 191 337 q 121 409 137 377 q 104 481 104 441 q 112 531 104 505 q 141 584 120 556 q 195 634 163 612 q 280 669 227 655 q 400 683 333 683 m 290 964 l 433 964 l 433 822 l 290 822 l 290 964 z "},"Ṫ":{"ha":821,"x_min":58,"x_max":817,"o":"m 58 964 l 817 964 l 817 862 l 495 862 l 495 0 l 380 0 l 380 862 l 58 862 l 58 964 m 377 1287 l 519 1287 l 519 1145 l 377 1145 l 377 1287 z "},"ṫ":{"ha":512,"x_min":47,"x_max":478,"o":"m 478 12 q 325 -14 380 -14 q 232 4 270 -14 q 174 54 194 22 q 146 124 155 87 q 138 211 138 162 l 138 583 l 47 583 l 47 670 l 138 670 l 138 862 l 249 862 l 249 670 l 453 670 l 453 583 l 249 583 l 249 212 q 359 73 249 73 q 463 87 378 73 l 478 12 m 133 1099 l 275 1099 l 275 957 l 133 957 l 133 1099 z "},"Ẁ":{"ha":1461,"x_min":95,"x_max":1421,"o":"m 95 964 l 218 964 l 460 154 l 705 964 l 821 964 l 1072 154 l 1307 964 l 1421 964 l 1132 0 l 1009 0 l 756 805 l 519 0 l 397 0 l 95 964 m 655 1308 l 997 1097 l 955 1025 l 608 1224 l 655 1308 z "},"ẁ":{"ha":1143,"x_min":41,"x_max":1102,"o":"m 41 670 l 159 670 l 341 108 l 513 670 l 623 670 l 802 109 l 983 670 l 1102 670 l 857 0 l 745 0 l 567 543 l 391 0 l 279 0 l 41 670 m 478 1050 l 725 831 l 671 763 l 416 977 l 478 1050 z "},"Ẃ":{"ha":1461,"x_min":95,"x_max":1421,"o":"m 95 964 l 218 964 l 460 154 l 705 964 l 821 964 l 1072 154 l 1307 964 l 1421 964 l 1132 0 l 1009 0 l 756 805 l 519 0 l 397 0 l 95 964 m 895 1308 l 943 1224 l 595 1025 l 553 1097 l 895 1308 z "},"ẃ":{"ha":1143,"x_min":41,"x_max":1102,"o":"m 41 670 l 159 670 l 341 108 l 513 670 l 623 670 l 802 109 l 983 670 l 1102 670 l 857 0 l 745 0 l 567 543 l 391 0 l 279 0 l 41 670 m 682 1050 l 745 977 l 490 763 l 435 831 l 682 1050 z "},"Ẅ":{"ha":1461,"x_min":95,"x_max":1421,"o":"m 95 964 l 218 964 l 460 154 l 705 964 l 821 964 l 1072 154 l 1307 964 l 1421 964 l 1132 0 l 1009 0 l 756 805 l 519 0 l 397 0 l 95 964 m 543 1287 l 668 1287 l 668 1162 l 543 1162 l 543 1287 m 848 1287 l 973 1287 l 973 1162 l 848 1162 l 848 1287 z "},"ẅ":{"ha":1143,"x_min":41,"x_max":1102,"o":"m 41 670 l 159 670 l 341 108 l 513 670 l 623 670 l 802 109 l 983 670 l 1102 670 l 857 0 l 745 0 l 567 543 l 391 0 l 279 0 l 41 670 m 353 964 l 478 964 l 478 839 l 353 839 l 353 964 m 658 964 l 783 964 l 783 839 l 658 839 l 658 964 z "},"Ỳ":{"ha":857,"x_min":68,"x_max":829,"o":"m 68 964 l 204 964 l 450 566 l 701 964 l 829 964 l 501 456 l 501 0 l 386 0 l 386 456 l 68 964 m 312 1308 l 654 1097 l 612 1025 l 264 1224 l 312 1308 z "},"ỳ":{"ha":712,"x_min":34,"x_max":678,"o":"m 34 670 l 149 670 l 363 102 l 563 670 l 678 670 l 292 -360 l 173 -360 l 311 -26 l 34 670 m 254 1050 l 501 831 l 447 763 l 192 977 l 254 1050 z "},"–":{"ha":786,"x_min":0,"x_max":786,"o":"m 0 494 l 786 494 l 786 399 l 0 399 l 0 494 z "},"—":{"ha":939,"x_min":0,"x_max":939,"o":"m 0 494 l 939 494 l 939 399 l 0 399 l 0 494 z "},"―":{"ha":1085,"x_min":0,"x_max":1085,"o":"m 0 494 l 1085 494 l 1085 399 l 0 399 l 0 494 z "},"‘":{"ha":305,"x_min":61,"x_max":278,"o":"m 61 1025 l 193 1025 l 278 731 l 146 731 l 61 1025 z "},"’":{"ha":305,"x_min":27,"x_max":244,"o":"m 112 1025 l 244 1025 l 159 731 l 27 731 l 112 1025 z "},"‚":{"ha":305,"x_min":27,"x_max":244,"o":"m 112 147 l 244 147 l 159 -146 l 27 -146 l 112 147 z "},"‛":{"ha":305,"x_min":61,"x_max":278,"o":"m 193 1025 l 278 731 l 146 731 l 61 1025 l 193 1025 z "},"“":{"ha":563,"x_min":27,"x_max":502,"o":"m 502 1025 l 417 731 l 285 731 l 370 1025 l 502 1025 m 244 1025 l 159 731 l 27 731 l 112 1025 l 244 1025 z "},"”":{"ha":563,"x_min":27,"x_max":502,"o":"m 370 1025 l 502 1025 l 417 731 l 285 731 l 370 1025 m 112 1025 l 244 1025 l 159 731 l 27 731 l 112 1025 z "},"„":{"ha":563,"x_min":27,"x_max":502,"o":"m 370 145 l 502 145 l 417 -149 l 285 -149 l 370 145 m 112 145 l 244 145 l 159 -149 l 27 -149 l 112 145 z "},"‟":{"ha":563,"x_min":61,"x_max":536,"o":"m 193 1025 l 278 731 l 146 731 l 61 1025 l 193 1025 m 451 1025 l 536 731 l 404 731 l 319 1025 l 451 1025 z "},"†":{"ha":639,"x_min":115,"x_max":524,"o":"m 271 100 l 271 798 l 115 791 l 115 865 l 271 859 l 271 1025 l 368 1025 l 368 859 l 524 865 l 524 791 l 368 798 l 368 100 l 271 100 z "},"‡":{"ha":639,"x_min":115,"x_max":524,"o":"m 271 64 l 271 798 l 115 791 l 115 865 l 271 859 l 271 1025 l 368 1025 l 368 859 l 524 865 l 524 791 l 368 798 l 368 64 l 524 71 l 524 -3 l 368 3 l 368 -163 l 271 -163 l 271 3 l 115 -3 l 115 71 l 271 64 z "},"•":{"ha":434,"x_min":129,"x_max":305,"o":"m 129 585 l 305 585 l 305 409 l 129 409 l 129 585 z "},"…":{"ha":1166,"x_min":122,"x_max":1031,"o":"m 122 142 l 264 142 l 264 0 l 122 0 l 122 142 m 505 142 l 648 142 l 648 0 l 505 0 l 505 142 m 888 142 l 1031 142 l 1031 0 l 888 0 l 888 142 z "},"‰":{"ha":1302,"x_min":58,"x_max":1227,"o":"m 715 964 l 830 964 l 173 0 l 58 0 l 715 964 m 1073 422 q 1122 415 1098 422 q 1171 390 1145 408 q 1212 333 1196 372 q 1227 238 1227 294 q 1183 97 1227 149 q 1072 45 1139 45 q 962 90 1006 45 q 918 239 918 136 q 964 375 918 327 q 1073 422 1010 422 m 1072 357 q 1010 331 1036 357 q 984 239 984 304 q 992 172 984 200 q 1016 131 1001 144 q 1044 113 1030 118 q 1073 108 1057 108 q 1135 136 1109 108 q 1161 236 1161 165 q 1153 298 1161 273 q 1130 336 1144 323 q 1102 353 1116 348 q 1072 357 1088 357 m 661 422 q 710 415 686 422 q 759 390 734 408 q 800 333 785 372 q 816 238 816 294 q 772 97 816 149 q 661 45 728 45 q 550 90 594 45 q 507 239 507 136 q 552 375 507 327 q 661 422 598 422 m 661 357 q 598 331 624 357 q 572 239 572 304 q 581 172 572 200 q 604 131 589 144 q 632 113 618 118 q 661 108 646 108 q 723 136 697 108 q 749 236 749 165 q 741 298 749 273 q 718 336 732 323 q 690 353 704 348 q 661 357 676 357 m 222 924 q 260 921 241 924 q 300 905 278 917 q 338 874 322 893 q 365 821 354 855 q 376 741 376 786 q 332 598 376 650 q 221 547 288 547 q 111 592 155 547 q 66 741 66 638 q 113 877 66 829 q 222 924 159 924 m 221 860 q 159 833 184 860 q 133 742 133 806 q 141 675 133 703 q 164 634 150 647 q 193 615 179 621 q 222 610 206 610 q 284 639 258 610 q 310 739 310 667 q 301 801 310 775 q 279 838 293 826 q 251 855 264 850 q 221 860 237 860 z "},"′":{"ha":275,"x_min":75,"x_max":200,"o":"m 75 1025 l 200 1025 l 200 734 l 75 734 l 75 1025 z "},"″":{"ha":549,"x_min":75,"x_max":475,"o":"m 75 1025 l 200 1025 l 200 734 l 75 734 l 75 1025 m 349 1025 l 475 1025 l 475 734 l 349 734 l 349 1025 z "},"‴":{"ha":824,"x_min":75,"x_max":749,"o":"m 75 1025 l 200 1025 l 200 734 l 75 734 l 75 1025 m 349 1025 l 475 1025 l 475 734 l 349 734 l 349 1025 m 624 1025 l 749 1025 l 749 734 l 624 734 l 624 1025 z "},"‵":{"ha":275,"x_min":47,"x_max":227,"o":"m 47 1025 l 180 1025 l 227 731 l 95 731 l 47 1025 z "},"‹":{"ha":383,"x_min":51,"x_max":349,"o":"m 223 670 l 349 670 l 163 422 l 349 175 l 224 175 l 51 422 l 223 670 z "},"›":{"ha":383,"x_min":34,"x_max":332,"o":"m 34 670 l 159 670 l 332 422 l 160 175 l 34 175 l 220 422 l 34 670 z "},"‼":{"ha":882,"x_min":153,"x_max":729,"o":"m 153 136 l 288 136 l 288 0 l 153 0 l 153 136 m 163 964 l 278 964 l 278 311 l 163 311 l 163 964 m 593 136 l 729 136 l 729 0 l 593 0 l 593 136 m 604 964 l 719 964 l 719 311 l 604 311 l 604 964 z "},"‽":{"ha":709,"x_min":68,"x_max":594,"o":"m 211 136 l 347 136 l 347 0 l 211 0 l 211 136 m 287 975 q 375 968 334 975 q 458 946 416 962 q 528 905 499 930 q 576 838 557 880 q 594 742 594 796 q 579 646 594 689 q 542 572 565 602 q 490 516 518 543 q 434 466 462 490 q 382 414 406 441 q 344 350 359 387 q 330 266 330 312 l 228 266 l 228 732 l 330 732 l 330 512 q 358 536 337 519 q 393 566 380 554 q 425 597 406 577 q 455 635 444 618 q 474 677 466 653 q 482 726 482 701 q 472 778 482 753 q 439 826 462 802 q 375 863 417 849 q 276 878 333 878 q 103 846 183 878 l 68 928 q 287 975 163 975 z "},"⁄":{"ha":703,"x_min":14,"x_max":689,"o":"m 570 964 l 689 964 l 133 0 l 14 0 l 570 964 z "},"⁋":{"ha":907,"x_min":129,"x_max":819,"o":"m 819 768 q 736 546 819 626 q 524 465 652 465 l 524 0 l 407 0 l 407 923 l 244 923 l 244 0 l 129 0 l 129 1025 l 494 1025 q 645 1011 585 1025 q 750 954 705 998 q 819 768 819 886 z "},"€":{"ha":905,"x_min":34,"x_max":851,"o":"m 184 342 l 34 342 l 34 430 l 172 430 q 171 455 172 438 q 170 480 170 471 q 177 575 170 532 l 77 575 l 77 663 l 197 663 q 348 888 241 805 q 604 970 456 970 q 840 919 720 970 l 808 823 q 602 869 688 869 q 426 813 503 869 q 310 663 350 757 l 616 663 l 616 575 l 283 575 q 274 480 274 531 q 277 430 274 452 l 572 430 l 572 342 l 296 342 q 416 162 331 231 q 623 92 502 92 q 819 133 716 92 l 851 47 q 597 -14 725 -14 q 330 84 440 -14 q 184 342 220 181 z "},"™":{"ha":966,"x_min":75,"x_max":857,"o":"m 260 640 l 193 640 l 193 970 l 75 970 l 75 1025 l 378 1025 l 378 970 l 260 970 l 260 640 m 468 1025 l 547 1025 l 663 810 l 776 1025 l 857 1025 l 857 640 l 791 640 l 791 942 l 682 743 l 636 743 l 534 945 l 534 640 l 468 640 l 468 1025 z "},"ﬀ":{"ha":1112,"x_min":92,"x_max":1129,"o":"m 1005 876 q 936 865 965 876 q 892 839 907 854 q 869 804 878 825 q 859 770 861 783 q 857 743 857 757 l 857 670 l 1082 670 l 1082 583 l 857 583 l 857 0 l 745 0 l 745 583 l 648 583 l 648 670 l 745 670 l 745 738 q 771 872 745 826 q 849 944 798 919 q 968 969 901 969 q 1129 943 1041 969 l 1112 860 q 1005 876 1049 876 m 449 876 q 380 865 409 876 q 336 839 351 854 q 313 804 321 825 q 303 770 304 783 q 301 743 301 757 l 301 670 l 526 670 l 526 583 l 301 583 l 301 0 l 189 0 l 189 583 l 92 583 l 92 670 l 189 670 l 189 738 q 215 872 189 826 q 293 944 241 919 q 412 969 345 969 q 573 943 485 969 l 556 860 q 449 876 493 876 z "},"ﬁ":{"ha":911,"x_min":92,"x_max":800,"o":"m 668 964 l 800 964 l 800 836 l 668 836 l 668 964 m 678 670 l 789 670 l 789 0 l 678 0 l 678 670 m 449 876 q 380 865 409 876 q 336 839 351 854 q 313 804 321 825 q 303 770 304 783 q 301 743 301 757 l 301 670 l 526 670 l 526 583 l 301 583 l 301 0 l 189 0 l 189 583 l 92 583 l 92 670 l 189 670 l 189 738 q 215 872 189 826 q 293 944 241 919 q 412 969 345 969 q 573 943 485 969 l 556 860 q 449 876 493 876 z "},"ﬂ":{"ha":939,"x_min":92,"x_max":803,"o":"m 692 1025 l 803 1025 l 803 0 l 692 0 l 692 1025 m 449 876 q 380 865 409 876 q 336 839 351 854 q 313 804 321 825 q 303 770 304 783 q 301 743 301 757 l 301 670 l 526 670 l 526 583 l 301 583 l 301 0 l 189 0 l 189 583 l 92 583 l 92 670 l 189 670 l 189 738 q 215 872 189 826 q 293 944 241 919 q 412 969 345 969 q 573 943 485 969 l 556 860 q 449 876 493 876 z "},"ﬃ":{"ha":1468,"x_min":92,"x_max":1356,"o":"m 1224 964 l 1356 964 l 1356 836 l 1224 836 l 1224 964 m 1234 670 l 1345 670 l 1345 0 l 1234 0 l 1234 670 m 1005 876 q 936 865 965 876 q 892 839 907 854 q 869 804 878 825 q 859 770 861 783 q 857 743 857 757 l 857 670 l 1082 670 l 1082 583 l 857 583 l 857 0 l 745 0 l 745 583 l 648 583 l 648 670 l 745 670 l 745 738 q 771 872 745 826 q 849 944 798 919 q 968 969 901 969 q 1129 943 1041 969 l 1112 860 q 1005 876 1049 876 m 449 876 q 380 865 409 876 q 336 839 351 854 q 313 804 321 825 q 303 770 304 783 q 301 743 301 757 l 301 670 l 526 670 l 526 583 l 301 583 l 301 0 l 189 0 l 189 583 l 92 583 l 92 670 l 189 670 l 189 738 q 215 872 189 826 q 293 944 241 919 q 412 969 345 969 q 573 943 485 969 l 556 860 q 449 876 493 876 z "},"ﬄ":{"ha":1495,"x_min":92,"x_max":1359,"o":"m 1248 1025 l 1359 1025 l 1359 0 l 1248 0 l 1248 1025 m 1005 876 q 936 865 965 876 q 892 839 907 854 q 869 804 878 825 q 859 770 861 783 q 857 743 857 757 l 857 670 l 1082 670 l 1082 583 l 857 583 l 857 0 l 745 0 l 745 583 l 648 583 l 648 670 l 745 670 l 745 738 q 771 872 745 826 q 849 944 798 919 q 968 969 901 969 q 1129 943 1041 969 l 1112 860 q 1005 876 1049 876 m 449 876 q 380 865 409 876 q 336 839 351 854 q 313 804 321 825 q 303 770 304 783 q 301 743 301 757 l 301 670 l 526 670 l 526 583 l 301 583 l 301 0 l 189 0 l 189 583 l 92 583 l 92 670 l 189 670 l 189 738 q 215 872 189 826 q 293 944 241 919 q 412 969 345 969 q 573 943 485 969 l 556 860 q 449 876 493 876 z "}}}
